<svg xmlns="http://www.w3.org/2000/svg" width="2967.4" height="2967.4" viewBox="0 0 2000 2000">
  <defs>
    <style>
      .cls-1 {
        fill: #fff;
        fill-rule: evenodd;
      }
    </style>
  </defs>
  <path class="cls-1" d="M1222.51,1576.68c0,68.19-1.51,131.37.63,194.42,1.06,31.27-9.1,42.12-40.41,41.88-30.57-.24-38.47-13.33-38.07-41.18,1.12-77.95,1.48-155.94-.12-233.87-0.6-29.14,7.72-39.31,38.15-38.34,73.86,2.33,147.85,1.36,221.78,1.05,51.41-.19,75.15-22.77,75.95-74.45,1.09-71.34.27-142.7,0.26-214.05v-47.26c32.84,0,60.29.83,87.67-.17,47.48-1.73,59.21-21.25,36.3-61-40.18-69.68-79.03-140.291-122.74-207.733-24.74-38.167-36.49-76.279-36.07-121.557,2-212.707-158.35-417.042-364.39-485.48C802.819,196.4,496.434,362.271,412.5,622.357,366.984,763.405,372.82,898.235,436.68,1028.52c60.33,123.08,82.431,251.74,81.608,386.69q-1.075,176.385.482,352.78c0.23,27.83-3.483,44.29-38.035,45.02-36.581.76-36.747-18.56-36.616-44.9q0.945-186.33.15-372.65c-0.641-115.97-23.149-226.15-74.778-331.92C212.674,742.275,359,381.5,670.65,240.26c312.239-141.51,679.01,9.91,807.31,325.639,29.33,72.186,40.06,145.822,46.75,222.665,3.51,40.378,29.36,79.987,49.68,117.464,30.16,55.627,61.62,110.932,97.48,162.972,52.27,75.85.43,161.98-76.73,167.61-32,2.33-39.33,15.04-38.12,44.36,2.07,50.12-3.68,100.83,1.46,150.51,6.76,65.25-63.7,145.48-142.88,145.25C1353.64,1576.52,1291.68,1576.68,1222.51,1576.68Zm97.75-779.162c9.58,218.7-183.41,408.552-406.256,406.512-222.767-2.05-417.435-191.35-404.76-430.206,10.877-204.906,191.61-396.9,430.206-384.559C1135.89,399.41,1328.74,569.522,1320.26,797.518ZM587.688,793.01c-9.795,189.657,152.736,335.71,328.635,336.34,181.247,0.63,330.7-151.3,330.877-333.322,0.17-175.246-142.43-324.306-323.635-330.5C745.221,459.428,576.877,619.017,587.688,793.01Zm329.331,276.97c-150.221.07-274.574-123.669-274.56-273.207,0.017-148.88,125.626-273.407,274.962-272.615,148.489,0.784,273.109,124.206,273.619,270.969C1191.56,943.034,1065.08,1069.89,917.019,1069.98Zm2.543-288.456c39.207-42.173,75.766-79.9,109.658-119.91,4.34-5.1-1.59-28.257-8.88-32.475-66.208-38.307-135.062-43.4-202.32-3.638C748.527,666.585,714.8,731.487,717.254,810.454c2.512,80.858,69.715,160.962,150.07,179.653,79.32,18.453,148.726-5.59,202-68.744,52.61-62.377,59.73-150.087,15.82-209.767-56.28,55.556-112.161,110.721-173.38,171.154-36.682-38.308-74.394-76.7-110.44-116.593-4.444-4.916-3.559-20.628,1.031-26.556,10.757-13.861,25.259-24.83,38.1-36.841C866.07,728.257,888.3,750.382,919.562,781.524Z"/>
</svg>
