<svg xmlns="http://www.w3.org/2000/svg" viewBox="0 0 64 64">
  <g>
    <defs>
      <style>
        .cls-1 {
          fill: none;
        }
      </style>
    </defs>
    <path class="cls-1"
      d="M23,52.15c-1.97-1.38-2.62-3.38-2.24-5.71,.35-2.18,1.6-3.67,3.71-4.36,1.65-.54,3.23-.29,4.74,.58,.52,.3,1.1,.49,1.72,.76v-10.4h-.72c-3.44,0-6.87,0-10.31,0-.98,0-1.28-.33-1.31-1.31-.04-1.31,.31-2.49,.99-3.61,1.1-1.81,.51-4.07-1.24-4.96-1.48-.75-3.45-.47-4.52,.65-1.11,1.16-1.24,2.9-.29,4.44,.64,1.04,.94,2.17,.93,3.38,0,1.09-.32,1.41-1.42,1.41-3.39,0-6.79,0-10.18,0h-.76c-.01,.27-.03,.46-.03,.64,0,6.27,0,12.54,0,18.8,0,.56,.03,1.13,.13,1.68,.85,4.66,4.57,7.77,9.31,7.78,6.25,.01,12.49,0,18.74,0,.22,0,.44-.02,.69-.03v-10.4c-.73,.35-1.36,.63-1.98,.94-2.05,1.04-4.08,1.03-5.97-.28Z" />
    <path class="cls-1"
      d="M12.52,30.94c-.36-.74-.63-1.38-.97-1.98-1.53-2.78-.51-6.28,2.27-7.67,2.95-1.48,6.59-.31,7.87,2.56,.81,1.81,.67,3.61-.33,5.32-.32,.55-.66,1.08-.63,1.78h10.25v-.82c0-3.44,0-6.87,0-10.31,0-.87,.35-1.19,1.2-1.23,1.35-.06,2.57,.29,3.73,1,1.89,1.15,4.26,.42,5.06-1.49,.64-1.53,.26-3.39-.88-4.37-1.19-1.03-2.84-1.12-4.35-.18-1.04,.64-2.17,.93-3.38,.92-1.06-.01-1.39-.33-1.39-1.38,0-3.41,0-6.83,0-10.24v-.76h-.66c-6.29,0-12.58,0-18.87,0-.52,0-1.05,.02-1.55,.11C5.2,3.03,2.09,6.76,2.08,11.6c-.02,6.23,0,12.45,0,18.68,0,.22,.03,.44,.04,.66H12.52Z" />
    <path class="cls-1"
      d="M52.42,35.02c1.5,2.69,.63,6.07-1.98,7.58-2.69,1.56-6.34,.7-7.85-1.91-1.1-1.9-1.06-3.84,0-5.77,.31-.56,.54-1.17,.85-1.85h-10.42v.78c0,3.44,0,6.87,0,10.31,0,.9-.34,1.22-1.25,1.25-1.33,.05-2.53-.29-3.68-.99-1.86-1.13-4.15-.49-5.01,1.35-.7,1.51-.38,3.42,.75,4.45,1.18,1.07,2.88,1.18,4.4,.24,1.01-.62,2.08-.92,3.26-.93,1.23,0,1.53,.28,1.53,1.49,0,3.37,0,6.75,0,10.12v.75c.28,.01,.47,.03,.65,.03,6.29,0,12.58,0,18.87,0,.74,0,1.5-.08,2.23-.25,4.32-1.03,7.14-4.69,7.15-9.27,.02-6.23,0-12.46,0-18.68v-.65h-10.44c.35,.73,.61,1.36,.93,1.95Z" />
    <path
      d="M61.9,30.95s0,.02,0,.03h-.78c-3.39,0-6.79,0-10.18,0-1.06,0-1.38,.32-1.4,1.37-.01,1.24,.29,2.38,.94,3.44,.94,1.53,.8,3.28-.32,4.44-1.06,1.11-3.07,1.38-4.52,.62-1.74-.91-2.31-3.16-1.2-4.97,.67-1.1,1.01-2.26,.98-3.55-.03-1.02-.32-1.35-1.34-1.35-3.41,0-6.83,0-10.24,0h-.77v-10.43c.7,.32,1.3,.56,1.87,.87,1.88,1.03,3.79,1.09,5.66,.05,2.68-1.48,3.58-5.16,2-7.92-1.5-2.62-4.94-3.48-7.63-1.94-.57,.32-1.18,.56-1.89,.9V.02c-7.27,0-14.54-.01-21.82,0C5.08,.03,.03,5.08,.02,11.25c-.03,13.83-.02,27.66,0,41.48,0,5.63,4.21,10.37,9.77,11.15,.12,.02,.23,.08,.34,.11H53.88c.5-.11,1-.22,1.5-.34,4.5-1.11,7.86-4.85,8.51-9.44,.02-.12,.08-.23,.11-.34V30.95h-2.1ZM2.08,11.6c.01-4.84,3.12-8.57,7.82-9.41,.51-.09,1.04-.11,1.55-.11,6.29,0,12.58,0,18.87,0h.66v.76c0,3.41,0,6.83,0,10.24,0,1.05,.33,1.37,1.39,1.38,1.21,.01,2.34-.27,3.38-.92,1.52-.93,3.16-.85,4.35,.18,1.14,.98,1.51,2.84,.88,4.37-.79,1.91-3.16,2.64-5.06,1.49-1.16-.71-2.38-1.06-3.73-1-.86,.04-1.2,.36-1.2,1.23,0,3.44,0,6.87,0,10.31v.82h-10.25c-.03-.7,.31-1.23,.63-1.78,1-1.72,1.14-3.51,.33-5.32-1.28-2.88-4.92-4.04-7.87-2.56-2.77,1.39-3.8,4.89-2.27,7.67,.33,.61,.61,1.25,.97,1.98H2.12c-.01-.22-.04-.44-.04-.66,0-6.23-.01-12.45,0-18.68ZM30.95,61.9c-.25,.01-.47,.03-.69,.03-6.25,0-12.49,.01-18.74,0-4.74-.01-8.46-3.12-9.31-7.78-.1-.55-.12-1.12-.13-1.68,0-6.27,0-12.53,0-18.8,0-.18,.02-.37,.03-.64h.76c3.39,0,6.79,0,10.18,0,1.1,0,1.42-.32,1.42-1.41,0-1.21-.28-2.34-.93-3.38-.95-1.54-.82-3.28,.29-4.44,1.07-1.12,3.03-1.41,4.52-.65,1.75,.89,2.34,3.15,1.24,4.96-.68,1.12-1.04,2.3-.99,3.61,.03,.99,.33,1.31,1.31,1.31,3.44,0,6.87,0,10.31,0h.72v10.4c-.62-.27-1.2-.46-1.72-.76-1.51-.87-3.09-1.12-4.74-.58-2.11,.69-3.36,2.18-3.71,4.36-.38,2.32,.27,4.33,2.24,5.71,1.89,1.32,3.92,1.33,5.97,.28,.62-.31,1.25-.6,1.98-.94v10.4Zm30.99-28.18c0,6.23,.01,12.46,0,18.68-.01,4.58-2.83,8.24-7.15,9.27-.72,.17-1.48,.25-2.23,.25-6.29,.02-12.58,.01-18.87,0-.19,0-.37-.02-.65-.03v-.75c0-3.37,0-6.75,0-10.12,0-1.21-.29-1.49-1.53-1.49-1.17,0-2.25,.31-3.26,.93-1.52,.94-3.22,.83-4.4-.24-1.13-1.02-1.45-2.94-.75-4.45,.86-1.84,3.15-2.49,5.01-1.35,1.14,.7,2.34,1.04,3.68,.99,.9-.04,1.24-.35,1.25-1.25,0-3.44,0-6.87,0-10.31v-.78h10.42c-.31,.68-.54,1.28-.85,1.85-1.05,1.93-1.1,3.87,0,5.77,1.51,2.6,5.16,3.46,7.85,1.91,2.6-1.5,3.47-4.88,1.98-7.58-.33-.59-.59-1.22-.93-1.95h10.44v.65Z" />
    <path
      d="M62,29.4c0-.55,.45-1,1-1h0c.55,0,1,.45,1,1h0c0,.56-.45,1-1,1h0c-.55,0-1-.44-1-1Zm0-5c0-.55,.45-1,1-1h0c.55,0,1,.45,1,1h0c0,.56-.45,1-1,1h0c-.55,0-1-.44-1-1Zm0-5c0-.55,.45-1,1-1h0c.55,0,1,.45,1,1h0c0,.56-.45,1-1,1h0c-.55,0-1-.44-1-1Zm0-5c0-.55,.45-1,1-1h0c.55,0,1,.45,1,1h0c0,.56-.45,1-1,1h0c-.55,0-1-.44-1-1Zm-.13-4.82c-.09-.55,.28-1.06,.82-1.16h0c.55-.09,1.06,.28,1.16,.82h0c.09,.55-.28,1.07-.82,1.16h0c-.06,0-.11,0-.17,0h0c-.48,0-.9-.34-.99-.83Zm-1.8-4.08h0c-.34-.43-.26-1.06,.17-1.4h0c.44-.34,1.07-.26,1.41,.17h0c.34,.44,.26,1.06-.17,1.4h0c-.19,.15-.41,.22-.62,.22h0c-.3,0-.59-.14-.79-.39Zm-3.52-2.73c-.51-.22-.74-.81-.52-1.32h0c.23-.51,.82-.73,1.32-.51h0c.51,.22,.74,.81,.52,1.31h0c-.17,.38-.53,.6-.92,.6h0c-.13,0-.27-.02-.4-.08Zm-5.48-1.76c0-.55,.45-1,1-1h0c.55,0,1,.45,1,1h0c0,.55-.45,1-1,1h0c-.55,0-1-.45-1-1Zm-5,0c0-.55,.45-1,1-1h0c.55,0,1,.45,1,1h0c0,.55-.45,1-1,1h0c-.55,0-1-.45-1-1Zm-5,0c0-.55,.45-1,1-1h0c.55,0,1,.45,1,1h0c0,.55-.45,1-1,1h0c-.55,0-1-.45-1-1Zm-5,0c0-.55,.45-1,1-1h0c.55,0,1,.45,1,1h0c0,.55-.45,1-1,1h0c-.55,0-1-.45-1-1Zm-5,0c0-.55,.45-1,1-1h0c.55,0,1,.45,1,1h0c0,.55-.45,1-1,1h0c-.55,0-1-.45-1-1Z" />
    <g />
</svg>