<svg xmlns="http://www.w3.org/2000/svg" viewBox="0 0 64 64">
  <path
    d="M22.66,52.37c0-1.41-.03-2.83,0-4.24,.08-3.26-1.12-5.95-3.44-8.25-9.19-9.1-6.02-24.44,6.03-29.26,11.07-4.43,23.48,2.91,24.71,14.65,.6,5.67-1.16,10.58-5.21,14.63-2.31,2.31-3.48,5-3.42,8.26,.05,3.21,.01,6.41,.01,9.62,0,1.26-.23,1.52-1.5,1.49-.48-.01-.66,.16-.79,.59-.32,1.1-.71,2.17-1.05,3.26-.18,.61-.57,.88-1.19,.88-3.22,0-6.44,0-9.65,0-.6,0-.97-.26-1.15-.84-.34-1.11-.73-2.21-1.06-3.33-.12-.41-.29-.57-.74-.57-1.33,.01-1.54-.22-1.54-1.52,0-1.79,0-3.59,0-5.38Zm16.78-2.94c0-.3,0-.56,0-.82,.03-.87,0-1.75,.11-2.62,.38-2.86,1.68-5.25,3.73-7.29,3.71-3.68,5.37-8.13,4.78-13.31-1.03-9.15-9.7-15.61-18.82-13.93-6.28,1.16-10.63,4.82-12.6,10.85-1.96,6-.65,11.48,3.76,16.03,2.84,2.92,4.35,6.21,4.16,10.26-.01,.28,0,.56,0,.83h14.88Zm-.05,1.96h-14.79v5.96h14.79v-5.96Zm-11.73,10.7h8.67c.29-.91,.59-1.81,.9-2.78h-10.47c.31,.97,.61,1.87,.9,2.78Z" />
  <path
    d="M13.18,46.89c-.29-.23-.7-.41-.78-.67-.09-.33-.01-.82,.2-1.08,.5-.63,1.13-1.16,1.7-1.73,.72-.71,1.43-1.43,2.16-2.13,.52-.5,1.08-.54,1.49-.13,.42,.42,.38,.94-.15,1.47-1.26,1.25-2.52,2.5-3.8,3.74-.2,.19-.48,.31-.82,.53Z" />
  <path
    d="M46.69,40.74c.36,.23,.65,.35,.87,.56,1.26,1.22,2.51,2.46,3.75,3.7,.52,.51,.57,1.07,.17,1.48-.42,.43-.96,.4-1.49-.12-1.29-1.26-2.58-2.51-3.82-3.82-.23-.24-.32-.75-.24-1.08,.06-.27,.47-.46,.76-.72Z" />
  <path
    d="M50.83,7.58c.29,.24,.7,.41,.77,.67,.09,.33,0,.83-.21,1.08-.66,.76-1.42,1.45-2.14,2.16-.58,.57-1.15,1.15-1.73,1.71-.49,.47-1.04,.5-1.44,.12-.42-.4-.4-.94,.08-1.42,1.27-1.28,2.55-2.54,3.84-3.8,.2-.19,.48-.3,.83-.51Z" />
  <path
    d="M13.16,7.6c.36,.21,.64,.31,.84,.5,1.29,1.25,2.57,2.52,3.84,3.79,.48,.49,.5,1.02,.1,1.42-.39,.39-.96,.37-1.44-.09-1.3-1.27-2.61-2.54-3.86-3.86-.22-.23-.3-.74-.22-1.07,.06-.26,.47-.45,.75-.69Z" />
  <path
    d="M31.05,3.75c0-.87,0-1.75,0-2.62,0-.7,.4-1.15,.97-1.13,.55,.01,.92,.44,.93,1.11,0,1.77,0,3.54,0,5.31,0,.73-.36,1.13-.97,1.11-.58-.01-.92-.39-.93-1.09-.01-.9,0-1.79,0-2.69Z" />
  <path
    d="M55.68,28.18c-.88,0-1.76,.01-2.65,0-.72-.01-1.16-.4-1.14-.97,.02-.54,.44-.9,1.13-.9,1.81-.01,3.62-.01,5.43,0,.67,0,1.04,.33,1.06,.88,.02,.58-.36,.97-1.04,.98-.93,.02-1.85,0-2.78,0Z" />
  <path
    d="M8.29,28.18c-.88,0-1.76,.01-2.65,0-.74-.01-1.15-.37-1.14-.96,0-.59,.4-.92,1.16-.92,1.76,0,3.53,0,5.29,0,.73,0,1.17,.38,1.16,.94,0,.56-.44,.92-1.18,.94-.88,.01-1.76,0-2.65,0Z" />
  <path
    d="M38.87,38.12c-.27-.16-.54-.28-.76-.46-.33-.28-.65-.57-.91-.9-.42-.56-.85-.62-1.49-.31-.43,.21-.63,.4-.59,.88,.04,.56,.02,1.12,0,1.68-.02,.58-.34,.93-.93,.94-1.45,.02-2.9,.02-4.35,0-.63,0-.95-.37-.96-.98-.01-.58-.03-1.17,0-1.75,.03-.41-.12-.64-.51-.72-.43-.09-.83-.62-1.31,0-.34,.44-.78,.81-1.19,1.19-.53,.48-.98,.49-1.49,0-.99-.95-1.97-1.92-2.94-2.9-.48-.49-.47-.97,0-1.48,.29-.31,.57-.65,.92-.9,.59-.43,.66-.87,.32-1.52-.21-.4-.37-.59-.84-.56-.5,.04-1,.02-1.49,0-.87-.02-1.21-.34-1.22-1.17-.01-1.3-.01-2.6,0-3.9,0-.78,.34-1.1,1.12-1.12,.57-.01,1.13-.03,1.7,0,.39,.02,.62-.11,.67-.48,.06-.43,.68-.8,.06-1.3-.44-.35-.82-.77-1.21-1.18-.51-.53-.52-1.02-.02-1.53,.95-.96,1.91-1.91,2.89-2.85,.53-.51,1.01-.5,1.55,0,.43,.4,.81,.85,1.27,1.22,.17,.14,.56,.21,.74,.11,.36-.19,1.03-.05,.99-.79-.03-.58-.02-1.17,0-1.75,.01-.74,.34-1.08,1.07-1.09,1.38-.01,2.76-.01,4.15,0,.69,0,1.02,.36,1.04,1.06,.01,.43,.04,.86,0,1.28-.07,.66,.09,1.06,.81,1.27,.48,.15,.78,.15,1.11-.24,.33-.39,.72-.74,1.1-1.1,.5-.46,.97-.5,1.44-.05,1.03,.98,2.03,1.98,3.03,3,.43,.44,.41,.93,0,1.38-.3,.33-.6,.68-.96,.95-.59,.43-.65,.87-.32,1.52,.22,.43,.42,.61,.9,.58,.52-.04,1.04-.02,1.56,0,.72,.02,1.07,.33,1.09,1.01,.02,1.39,.02,2.78,0,4.17-.01,.64-.4,.99-1.04,1.01-.61,.02-1.23-.03-1.83,.03-.22,.02-.53,.25-.59,.44-.12,.39-.69,.75-.12,1.24,.46,.4,.88,.84,1.3,1.28,.45,.47,.46,.97,0,1.43-.98,1-1.97,1.98-2.98,2.95-.18,.18-.46,.26-.74,.41Zm1.8-4.2c-.44-.39-.9-.79-1.36-1.18-.53-.46-.55-.95-.23-1.56,.31-.59,.57-1.22,.78-1.85,.19-.61,.54-.9,1.18-.88,.62,.02,1.25,0,1.91,0v-2.44c-.66,0-1.29,0-1.92,0-.59,0-.95-.26-1.15-.84-.24-.7-.53-1.38-.85-2.04-.25-.52-.22-.95,.21-1.33,.48-.44,.96-.86,1.36-1.22-.67-.68-1.21-1.24-1.83-1.86-.41,.43-.85,.89-1.28,1.35-.4,.42-.83,.45-1.35,.21-.67-.31-1.36-.6-2.06-.84-.56-.2-.86-.53-.85-1.14,.01-.62,0-1.24,0-1.89h-2.45c0,.64-.01,1.24,0,1.84,.02,.63-.27,.99-.87,1.19-.68,.23-1.35,.51-2,.82-.54,.25-.99,.24-1.41-.2-.43-.46-.86-.92-1.2-1.28-.66,.63-1.23,1.18-1.85,1.78,.37,.35,.77,.75,1.19,1.12,.54,.47,.61,.97,.27,1.61-.31,.57-.58,1.17-.75,1.79-.19,.68-.59,.97-1.27,.96-.6,0-1.2,0-1.83,0v2.43c.64,0,1.25,.02,1.85,0,.67-.02,1.03,.26,1.23,.9,.2,.64,.46,1.26,.78,1.85,.33,.61,.27,1.11-.25,1.55-.46,.39-.92,.77-1.31,1.09,.71,.72,1.26,1.27,1.86,1.88,.4-.42,.83-.85,1.24-1.29,.43-.46,.89-.52,1.46-.23,.62,.31,1.27,.59,1.93,.8,.67,.21,.96,.6,.93,1.29-.03,.58,0,1.15,0,1.75h2.46c0-.64,.01-1.25,0-1.85-.02-.63,.28-.98,.88-1.18,.68-.23,1.35-.51,2-.82,.55-.27,.99-.23,1.4,.22,.43,.46,.86,.91,1.3,1.37,.62-.62,1.18-1.17,1.86-1.85Z" />
  <path
    d="M37.59,27.27c0,3.03-2.52,5.51-5.59,5.5-3.09,0-5.59-2.5-5.58-5.58,.01-3.04,2.53-5.52,5.59-5.5,3.13,.02,5.59,2.48,5.58,5.57Zm-9.26-.05c0,2,1.63,3.64,3.64,3.67,2.03,.02,3.72-1.63,3.72-3.65,0-2.01-1.61-3.63-3.64-3.65-2.07-.02-3.71,1.59-3.72,3.63Z" />
</svg>