<svg xmlns="http://www.w3.org/2000/svg" viewBox="0 0 64 64">
  <g>
    <path
      d="M64,37c-.66-1-1.29-2.01-1.99-2.98-1.54-2.13-2.89-4.37-4.06-6.73-.27-.55-.2-.94,.24-1.31,.27-.23,.53-.47,.78-.71,1.18-1.11,1.54-2.39,.87-3.85-.98-2.13-1.56-4.37-2.22-6.61-1.23-4.14-3.43-7.67-7.06-10.14-2.5-1.71-5.34-2.63-8.29-3.13-3.34-.57-6.7-1.05-10.06-1.45-1.25-.15-2.53,0-3.8,.04-.7,.03-1.11,.5-1.08,1.11,.04,.64,.52,1.01,1.26,1.01,1.45,0,2.92-.09,4.36,.03,3.97,.31,7.88,.97,11.72,2.04,5.81,1.62,9.26,5.59,10.93,11.21,.66,2.21,1.22,4.45,2.21,6.54,.39,.83,.3,1.04-.38,1.7-.37,.36-.8,.68-1.11,1.09-.76,1.01-.93,2.07-.34,3.27,1.43,2.91,3.12,5.64,5.09,8.2,1.03,1.34,1.12,1.18-.44,2.15-.32,.2-.67,.34-.99,.53-1.76,1.02-2.25,2.62-1.39,4.47,.19,.41,.42,.81,.63,1.22-.52,.46-1.12,.85-1.52,1.38-.51,.67,.17,1.22,.43,1.82-.11,.08-.19,.14-.27,.19-1.7,.96-2.3,2.26-1.83,4.18,.23,.96,.25,1.89-.08,2.82-.4,1.13-1.3,1.66-2.45,1.31-3.34-1-6.68-2.02-10.01-3.08-1.62-.51-3.24-1.07-4.82-1.7-.88-.35-1.72-.83-2.52-1.35-.82-.53-1.33-1.29-1.39-2.32-.04-.66-.52-1.02-1.14-.97-.57,.04-.96,.47-.96,1.1,0,1.23,.49,2.26,1.34,3.13,1.27,1.3,2.87,2.04,4.54,2.65,1.09,.4,2.2,.77,3.4,1.18-1.77,2.02-3.02,4.26-3.73,6.75-8.04,0-16.04,0-24.05,0,0-.12-.02-.19,0-.23,1.91-3.05,2.67-6.47,3.23-9.95,.63-3.85,.32-7.59-1.14-11.22-.79-1.94-1.91-3.69-3.18-5.35-1.57-2.05-3.08-4.15-3.76-6.7-.06-.24-.11-.49-.2-.72-.21-.57-.75-.86-1.29-.7-.55,.16-.87,.67-.74,1.26,.37,1.68,.99,3.27,1.91,4.72,.75,1.17,1.54,2.33,2.39,3.43,2.48,3.19,4.03,6.73,4.18,10.82,.1,2.81-.43,5.55-1.12,8.26-.51,1.99-1.26,3.87-2.44,5.57-.29,.42-.52,.91-.7,1.39-.33,.84,.12,1.52,1.03,1.54,1.33,.03,2.67,.02,4,.03,.1,0,.2,.04,.3,.07,7.58,0,15.16,0,22.75,0,.26-.4,.58-.78,.76-1.21,.46-1.07,.8-2.18,1.28-3.24,.57-1.25,1.33-2.4,2.41-3.3,.33-.28,.63-.33,1.07-.19,2.78,.85,5.56,1.71,8.36,2.47,1.95,.53,3.9-.56,4.63-2.45,.53-1.36,.65-2.73,.28-4.16-.3-1.14-.15-1.42,.87-2.03,.18-.11,.36-.21,.53-.32,.66-.4,.93-.99,.8-1.75-.06-.34-.16-.67-.25-1.02,.11-.09,.2-.17,.3-.25,1.37-1.08,1.46-1.56,.6-3.11-.04-.07-.08-.14-.12-.22-.89-1.61-.81-1.89,.82-2.73,1.13-.58,2.15-1.26,2.64-2.51,0-.33,0-.67,0-1Z" />
    <path
      d="M7.21,24.63c-.83,.51-1.7,.43-2.41-.23-.49-.45-.96-.93-1.41-1.41-.69-.74-.78-1.6-.25-2.46,.35-.57,.74-1.11,1.1-1.67,.36-.55-.07-1.57-.72-1.7-.67-.14-1.35-.25-2.02-.41-.9-.22-1.46-.91-1.49-1.84-.02-.69-.02-1.37,0-2.06,.03-.93,.58-1.62,1.5-1.84,.67-.16,1.35-.27,2.02-.41,.65-.14,1.07-1.15,.71-1.7-.35-.54-.73-1.07-1.07-1.61-.57-.89-.49-1.75,.22-2.51,.44-.47,.9-.93,1.37-1.37,.79-.73,1.65-.8,2.56-.21,.53,.34,1.04,.7,1.56,1.04,.58,.38,1.59-.05,1.73-.74,.14-.67,.25-1.35,.41-2.02,.22-.88,.9-1.42,1.8-1.46,.69-.02,1.37-.02,2.06,0,.96,.03,1.66,.59,1.88,1.53,.16,.67,.26,1.35,.41,2.02,.13,.6,1.16,1.03,1.67,.7,.56-.36,1.1-.75,1.66-1.11,.88-.56,1.74-.46,2.51,.25,.2,.18,.36,.42,.58,.56,.22,.14,.5,.28,.76,.29,.79,.04,1.58,0,2.37,.01,1.21,.02,2.01,.66,2.27,1.83,.11,.49,.24,.98,.28,1.47,.09,1.11,.49,1.9,1.69,2.16,.36,.08,.6,.11,.9-.11,.73-.52,1.47-1.02,2.23-1.49,.93-.59,1.89-.5,2.69,.25,.62,.58,1.23,1.19,1.81,1.81,.71,.77,.8,1.76,.25,2.65-.29,.48-.57,.98-.94,1.4-.74,.83-.92,1.66-.3,2.66,.2,.32,.35,.5,.71,.57,.9,.17,1.8,.34,2.69,.54,1.01,.23,1.63,.98,1.66,2,.03,.89,.03,1.79,0,2.69-.03,.97-.61,1.69-1.55,1.95-.56,.15-1.13,.32-1.71,.35-1.17,.06-1.95,.55-2.15,1.75-.04,.25-.05,.57,.07,.77,.46,.77,.99,1.49,1.48,2.24,.62,.97,.53,1.97-.26,2.8-.56,.59-1.14,1.16-1.72,1.72-.81,.76-1.79,.86-2.74,.26-.46-.28-.95-.55-1.34-.91-.83-.76-1.66-.92-2.66-.31-.31,.19-.5,.34-.57,.72-.13,.84-.32,1.67-.49,2.51-.25,1.19-1.03,1.84-2.24,1.85-.79,.01-1.58,.01-2.37,0-1.12-.02-1.88-.65-2.13-1.74-.12-.53-.29-1.06-.32-1.59-.05-1.12-.52-1.83-1.66-2.11-.36-.09-.59-.13-.9,.09-.73,.52-1.47,1.02-2.23,1.5-.9,.57-1.89,.51-2.65-.2-.66-.61-1.29-1.24-1.9-1.9-.7-.76-.77-1.69-.23-2.59,.29-.48,.56-.99,.94-1.4,.8-.86,.93-1.73,.28-2.71-.01-.02-.01-.04-.03-.06-.17-.14-.33-.37-.53-.42-.79-.2-1.58-.37-2.38-.49-.78-.13-1.43-.44-1.88-1.18-.56,.37-1.05,.72-1.57,1.03Zm20.4,7.97c.1-.53,.39-.82,.9-1,.78-.28,1.54-.61,2.3-.96,.5-.23,.94-.23,1.4,.09,.99,.68,2,1.34,2.98,1.99,.59-.61,1.16-1.2,1.79-1.85-.58-.87-1.23-1.86-1.9-2.83-.38-.54-.4-1.03-.1-1.62,.34-.66,.63-1.36,.86-2.07,.19-.61,.55-.94,1.17-1.05,1.16-.21,2.32-.46,3.53-.7,0-.77,.02-1.51-.02-2.26,0-.12-.25-.29-.41-.33-1.01-.23-2.03-.44-3.06-.62-.64-.11-1.02-.43-1.22-1.07-.22-.71-.52-1.41-.86-2.07-.31-.59-.27-1.09,.1-1.62,.67-.95,1.3-1.93,1.94-2.88-.61-.59-1.21-1.16-1.85-1.77-.87,.58-1.85,1.21-2.79,1.88-.58,.41-1.1,.44-1.73,.1-.63-.34-1.33-.59-2.01-.83-.56-.19-.92-.5-1.03-1.11-.21-1.19-.48-2.36-.73-3.61-.75,0-1.5-.02-2.24,.02-.13,0-.31,.28-.35,.46-.23,1.03-.44,2.07-.63,3.12-.1,.57-.41,.91-.96,1.1-.76,.27-1.52,.57-2.24,.93-.53,.26-.98,.23-1.45-.1-.99-.68-2-1.34-2.99-2-.6,.61-1.19,1.2-1.79,1.81,.64,.95,1.28,1.95,1.96,2.92,.37,.52,.4,.99,.1,1.56-.35,.68-.64,1.4-.88,2.13-.2,.61-.56,.92-1.19,1.03-1.02,.18-2.04,.42-3.06,.6-.36,.06-.5,.2-.48,.57,.03,.66,0,1.33,0,2.05,1.13,.23,2.22,.49,3.32,.66,.79,.12,1.26,.48,1.47,1.29,.17,.66,.48,1.29,.8,1.89,.32,.59,.28,1.08-.1,1.62-.6,.85-1.15,1.73-1.75,2.59-.19,.27-.2,.45,.06,.69,.5,.47,.96,.98,1.46,1.49,1.03-.69,2.02-1.33,2.99-2.01,.54-.38,1.03-.39,1.62-.09,.68,.35,1.4,.63,2.13,.88,.56,.19,.87,.51,.97,1.09,.19,1.04,.43,2.08,.61,3.12,.06,.36,.19,.5,.56,.48,.66-.03,1.33,0,2.05,0,.26-1.26,.51-2.46,.75-3.67ZM19.38,6.47c-.52,.37-1,.4-1.57,.1-.53-.28-1.1-.49-1.67-.69-.5-.18-.8-.48-.9-1.01-.17-.9-.36-1.79-.54-2.7h-1.67c-.18,.9-.37,1.77-.53,2.64-.1,.58-.41,.91-.97,1.09-.55,.18-1.09,.4-1.61,.67-.54,.28-1.01,.28-1.51-.07-.73-.51-1.48-1-2.22-1.49-.4,.41-.78,.79-1.18,1.2,.48,.71,.94,1.44,1.45,2.15,.37,.52,.4,1,.1,1.57-.27,.51-.49,1.06-.67,1.61-.18,.56-.51,.87-1.09,.98-.88,.16-1.75,.35-2.65,.53v1.67c.91,.18,1.8,.38,2.69,.54,.53,.1,.83,.4,1.01,.89,.22,.6,.47,1.2,.74,1.78,.23,.48,.22,.91-.08,1.35-.52,.75-1.02,1.52-1.54,2.3,.4,.4,.78,.77,1.19,1.18,.71-.48,1.44-.92,2.11-1.44,.16-.12,.23-.46,.23-.7-.01-.8,.12-1.54,.75-2.15-.89-.93-1.51-1.98-1.78-3.23-1-4.62,3.13-8.57,7.75-7.61,1.6,.33,2.8,1.16,4.08,1.99,.34,.22,.6,.22,1.01,.11,1.08-.29,1.56-.93,1.59-2.02,.01-.39,.1-.79,.24-1.16,.26-.7,0-1.15-.62-1.52-.71,.47-1.44,.95-2.15,1.45Zm-9.62,5.86c-.72,1.85-.06,3.97,1.58,5.07,.77,.51,1.93,.08,2.37-.7,.49-.89,.35-1.56-.27-2.28-.37-.42-.64-.92-.94-1.39-.7-1.08-.63-1.98,.24-2.94,.08-.09,.15-.19,.25-.3-1.27,.01-2.66,1.13-3.22,2.54Z" />
    <path
      d="M52.08,18.86c.71-.16,1.35-.3,2.05-.45-.39-2-1.01-3.86-1.94-5.64-2.11-4.02-5.62-5.97-9.88-6.87-.26-.06-.53-.12-.79-.16-.66-.11-1.15,.18-1.29,.77-.15,.6,.17,1.11,.85,1.29,.82,.22,1.65,.41,2.47,.64,4.67,1.28,7.04,4.65,8.2,9.09,.11,.42,.21,.84,.33,1.34Z" />
    <path
      d="M18.14,21.32c0-4.09,3.35-7.44,7.43-7.45,4.13,0,7.48,3.31,7.5,7.44,.02,4.1-3.35,7.47-7.46,7.48-4.13,0-7.47-3.35-7.47-7.47Zm12.79,.05c.02-2.94-2.34-5.35-5.27-5.37-2.96-.02-5.38,2.38-5.39,5.32,0,2.93,2.37,5.31,5.32,5.32,2.95,.01,5.32-2.33,5.34-5.28Z" />
  </g>
</svg>