<?xml version="1.0" encoding="utf-8"?>
<!-- Generator: Adobe Illustrator 27.0.1, SVG Export Plug-In . SVG Version: 6.00 Build 0)  -->
<svg version="1.1" id="Layer_1" xmlns="http://www.w3.org/2000/svg" xmlns:xlink="http://www.w3.org/1999/xlink" x="0px" y="0px"
	 viewBox="0 0 2563.3 2563.3" style="enable-background:new 0 0 2563.3 2563.3;" xml:space="preserve">
<style type="text/css">
	.st0{fill-rule:evenodd;clip-rule:evenodd;fill:#5A308D;}
</style>
<path class="st0" d="M1281.7,2500.5c-325.6,0-631.7-126.8-861.9-357s-357-536.3-357-861.9s126.8-631.7,357-861.9
	s536.3-357,861.9-357s631.7,126.8,861.9,357s357,536.3,357,861.9s-126.8,631.7-357,861.9S1607.2,2500.5,1281.7,2500.5z
	 M1281.7,519.3c-420.4,0-762.4,342-762.4,762.4s342,762.4,762.4,762.4s762.4-342,762.4-762.4S1702.1,519.3,1281.7,519.3
	L1281.7,519.3z"/>
</svg>
