<?xml version="1.0" encoding="utf-8"?>
<!-- Generator: Adobe Illustrator 27.0.1, SVG Export Plug-In . SVG Version: 6.00 Build 0)  -->
<svg version="1.1" id="Layer_1" xmlns="http://www.w3.org/2000/svg" xmlns:xlink="http://www.w3.org/1999/xlink" x="0px" y="0px"
	 viewBox="0 0 1417.3 2649.1" style="enable-background:new 0 0 1417.3 2649.1;" xml:space="preserve">
<style type="text/css">
	.st0{fill-rule:evenodd;clip-rule:evenodd;fill:#89C53E;}
</style>
<path id="Shape_26_copy" class="st0" d="M1150.4,2537.5c0,0,31.5-25.2,67.7-70.4c111.4-129.8,104.7-323.3-20.5-445.3l-620-578.3
	c-11.9-11.6-21.9-24.8-29.9-39.3l1-0.4c-14.2-25.3-21.5-53.9-21-82.9c0.1-3.8,0.2-7.5,0.5-11.2l0,0c3.8-38.7,21.3-74.8,49.3-101.9
	l620-580.3c125.1-122,131.8-315.5,20.5-445.4c-36.2-45.3-67.7-70.4-67.7-70.4s41.2,54-252.7,340.6l0.1,0.1l-676.9,633.9
	c-55.3,53.6-90.2,124.9-98.4,201.5c-0.3,2.6-0.7,5.1-0.9,7.7c-0.4,4.3-0.4,8.5-0.6,12.8c-5.1,95.3,31.4,188.2,100,254.6l677,633.9
	l-0.1,0.2C1191.6,2483.5,1150.4,2537.5,1150.4,2537.5"/>
</svg>
