<?xml version="1.0" encoding="utf-8"?>
<!-- Generator: Adobe Illustrator 27.0.1, SVG Export Plug-In . SVG Version: 6.00 Build 0)  -->
<svg version="1.1" id="Layer_1" xmlns="http://www.w3.org/2000/svg" xmlns:xlink="http://www.w3.org/1999/xlink" x="0px" y="0px"
	 viewBox="0 0 2563.3 2563.3" style="enable-background:new 0 0 2563.3 2563.3;" xml:space="preserve">
<style type="text/css">
	.st0{opacity:0.25;fill-rule:evenodd;clip-rule:evenodd;fill:#5A308D;}
	.st1{opacity:0.9;fill-rule:evenodd;clip-rule:evenodd;fill:#FBB811;}
</style>
<path class="st0" d="M1281.7,2500.5c-325.6,0-631.7-126.8-861.9-357s-357-536.3-357-861.9s126.8-631.7,357-861.9
	s536.3-357,861.9-357s631.7,126.8,861.9,357s357,536.3,357,861.9s-126.8,631.7-357,861.9S1607.2,2500.5,1281.7,2500.5z
	 M1281.7,519.3c-420.4,0-762.4,342-762.4,762.4s342,762.4,762.4,762.4s762.4-342,762.4-762.4S1702.1,519.3,1281.7,519.3
	L1281.7,519.3z"/>
<path class="st1" d="M731.6,2557.2c-20.9,0-41-8.3-55.8-23.1l-568.1-565.8c-31-30.9-31.1-81-0.2-112c9.5-9.5,21.3-16.5,34.2-20.2
	l760.8-218.5c42-12.1,85.8,12.2,97.9,54.3c3.8,13.3,4.1,27.3,0.8,40.7l-192.7,784.3C799.7,2532.3,768,2557.2,731.6,2557.2z
	 M314.7,1951.1l373.5,371.9l126.7-515.5L314.7,1951.1z"/>
</svg>
