<?xml version="1.0" encoding="utf-8"?>
<!-- Generator: Adobe Illustrator 26.2.1, SVG Export Plug-In . SVG Version: 6.00 Build 0)  -->
<svg version="1.1" id="Layer_1" xmlns="http://www.w3.org/2000/svg" xmlns:xlink="http://www.w3.org/1999/xlink" x="0px" y="0px"
	 viewBox="0 0 632.88 334.8" style="enable-background:new 0 0 632.88 334.8;" xml:space="preserve">
<style type="text/css">
	.st0{fill:url(#SVGID_1_);}
	.st1{fill:url(#SVGID_00000016067021584231373420000009861233799330085023_);}
	.st2{opacity:0.5;clip-path:url(#SVGID_00000056385806913997572790000013478155411230825627_);fill:#73A533;}
	
		.st3{clip-path:url(#SVGID_00000042733567305824073080000001053374190346290841_);fill:url(#SVGID_00000152237342036905565290000011217869569915541926_);}
	
		.st4{clip-path:url(#SVGID_00000042733567305824073080000001053374190346290841_);fill:url(#SVGID_00000034803253180045671570000009064967598123122333_);}
	.st5{opacity:0.5;clip-path:url(#SVGID_00000069389324201896968260000008260671384347623601_);fill:#73A533;}
	.st6{fill:#8DC63F;}
	.st7{fill:#662D91;}
</style>
<g>
	<g>
		<linearGradient id="SVGID_1_" gradientUnits="userSpaceOnUse" x1="495.4862" y1="192.187" x2="389.1538" y2="192.187">
			<stop  offset="0" style="stop-color:#4D186E"/>
			<stop  offset="0.5343" style="stop-color:#5B2481"/>
			<stop  offset="1" style="stop-color:#662D91"/>
		</linearGradient>
		<path class="st0" d="M471.82,279.77h-82.67V104.61h106.17c0,0,1.04,1.4-2.12,6.53c-3.09,0-97.51,0-97.51,0v162.1h69.67
			L471.82,279.77z"/>
		
			<linearGradient id="SVGID_00000079446497228519105130000007911591533687210155_" gradientUnits="userSpaceOnUse" x1="584.3533" y1="206.348" x2="489.4994" y2="206.348">
			<stop  offset="0" style="stop-color:#8DC63F"/>
			<stop  offset="0.2036" style="stop-color:#89C23D"/>
			<stop  offset="0.4202" style="stop-color:#83BA3B"/>
			<stop  offset="0.6422" style="stop-color:#79AD36"/>
			<stop  offset="0.7135" style="stop-color:#75A834"/>
			<stop  offset="1" style="stop-color:#73A533"/>
		</linearGradient>
		<path style="fill:url(#SVGID_00000079446497228519105130000007911591533687210155_);" d="M584.35,293.51l-94.7,0.09
			c0,0-1-1.27,2.07-6.45c2.37,0,86.27,0,86.27,0V150.67c0-13.9-11.31-25.21-25.21-25.21c0,0-43.52,0-46.27,0
			c-0.32-4.25-1.21-6.36-1.21-6.36h47.48c17.41,0,31.57,14.16,31.57,31.57V293.51z"/>
		<g>
			<defs>
				<path id="SVGID_00000074435609134399998360000005582593877020422576_" d="M559.41,182.06c0,0-49.81-49.81-53.08-53.08
					c-0.72,10.99-8.71,17.51-13.58,22.39c2.71,2.71,39.88,39.88,39.88,39.88c5.01,5.01,5.01,13.14,0,18.15l-46.52,44.51
					c-9.39,9.39-9.89,24.28-1.53,34.27c2.72,3.48,5.08,5.42,5.08,5.42s-3.09-4.16,18.96-26.21c0,0-0.01-0.01-0.01-0.01l50.8-48.79
					C569.5,208.5,569.5,192.15,559.41,182.06z"/>
			</defs>
			<use xlink:href="#SVGID_00000074435609134399998360000005582593877020422576_"  style="overflow:visible;fill:#8DC63F;"/>
			<clipPath id="SVGID_00000098908114652502599730000000673543248809497009_">
				<use xlink:href="#SVGID_00000074435609134399998360000005582593877020422576_"  style="overflow:visible;"/>
			</clipPath>
			<path style="opacity:0.5;clip-path:url(#SVGID_00000098908114652502599730000000673543248809497009_);fill:#73A533;" d="
				M545.01,176.48c-15.05-15.05-53.53-52.87-53.53-52.87s-23.75-9.19-29.14-4.74c-0.07,0.06-0.14,0.12-0.22,0.18l56.11,68.67
				c5.01,6.13,5.01,16.08,0,22.21l-46.52,54.47c-9.39,11.49-9.89,29.72-1.53,41.95c2.72,4.26,5.08,6.63,5.08,6.63
				s0.6-19.38,13.74-20.7c4.86-23.16,38.73-53.81,56.02-71.1C562.3,203.89,562.55,194.02,545.01,176.48z"/>
			<path style="opacity:0.5;clip-path:url(#SVGID_00000098908114652502599730000000673543248809497009_);fill:#73A533;" d="
				M530.17,176.03c-11.68-11.68-46.7-47.62-46.7-47.62s-3.3,2.55-8.69,7c-0.07,0.06,59.51,65.8,59.51,65.8l-69.21,58.3
				c0,0-4.38,24.63,23.91,32.77c-7.96-26.21,28.09-54.85,47.45-73.9C555.8,199.33,541.84,187.71,530.17,176.03z"/>
		</g>
		<g>
			<defs>
				<path id="SVGID_00000008842432784429553910000004907458874645912746_" d="M521.59,193.1l-18.46-18.46
					c0,0-38.74,38.75-43.29,43.29c-4.54,4.54-4.26,8.7-4.26,8.7l-9.66-9.66c-5.14-5.14-5.14-13.48,0-18.62l53-53
					c9.28-9.28,10.08-23.81,2.45-34.03c0-0.01,0.01-0.02,0.01-0.03c-3.13-4.29-6.07-6.68-6.07-6.68s3.17,4.27-19.46,26.89l0,0
					l-57.41,57.41c-10.35,10.35-10.35,27.13,0,37.48l53.37,53.37v-32.49c0-2.82,1.12-5.53,3.11-7.52L521.59,193.1z"/>
			</defs>
			<use xlink:href="#SVGID_00000008842432784429553910000004907458874645912746_"  style="overflow:visible;fill:#662D91;"/>
			<clipPath id="SVGID_00000160887384703800182850000011210716334585307038_">
				<use xlink:href="#SVGID_00000008842432784429553910000004907458874645912746_"  style="overflow:visible;"/>
			</clipPath>
			
				<linearGradient id="SVGID_00000101815953302295893270000012445517536474918576_" gradientUnits="userSpaceOnUse" x1="440.2399" y1="158.0397" x2="524.5814" y2="158.0397">
				<stop  offset="0" style="stop-color:#4D186E"/>
				<stop  offset="0.5343" style="stop-color:#5B2481"/>
				<stop  offset="1" style="stop-color:#662D91"/>
			</linearGradient>
			
				<path style="clip-path:url(#SVGID_00000160887384703800182850000011210716334585307038_);fill:url(#SVGID_00000101815953302295893270000012445517536474918576_);" d="
				M496.17,100.95c0,0,0.8,18.14-14.54,37.76c-15.62,19.99-54.03,50.59-37.24,76.4c15.62-19,80.18-81.5,80.18-81.5L496.17,100.95z"
				/>
			
				<linearGradient id="SVGID_00000166646234721870677930000001664455507907993225_" gradientUnits="userSpaceOnUse" x1="461.7221" y1="235.0993" x2="528.7398" y2="235.0993">
				<stop  offset="0" style="stop-color:#4D186E"/>
				<stop  offset="0.5343" style="stop-color:#5B2481"/>
				<stop  offset="1" style="stop-color:#662D91"/>
			</linearGradient>
			
				<path style="clip-path:url(#SVGID_00000160887384703800182850000011210716334585307038_);fill:url(#SVGID_00000166646234721870677930000001664455507907993225_);" d="
				M475.44,289.7c0,0-13.72-33.54-13.72-49.11c0-4.17,0.35-10.88,5.49-16.02c5.15-5.15,38.45-37.4,45.11-44.07
				c8,5.61,16.41,19.01,16.41,19.01l-43.21,47.03L475.44,289.7z"/>
		</g>
		<g>
			<defs>
				<circle id="SVGID_00000155856840174197090820000015613838269535045284_" cx="494.82" cy="73.68" r="25.44"/>
			</defs>
			<use xlink:href="#SVGID_00000155856840174197090820000015613838269535045284_"  style="overflow:visible;fill:#8DC63F;"/>
			<clipPath id="SVGID_00000058586635380404419650000007582014083043187378_">
				<use xlink:href="#SVGID_00000155856840174197090820000015613838269535045284_"  style="overflow:visible;"/>
			</clipPath>
			
				<circle style="opacity:0.5;clip-path:url(#SVGID_00000058586635380404419650000007582014083043187378_);fill:#73A533;" cx="494.82" cy="86.5" r="25.44"/>
			
				<circle style="opacity:0.5;clip-path:url(#SVGID_00000058586635380404419650000007582014083043187378_);fill:#73A533;" cx="494.82" cy="99.11" r="25.44"/>
		</g>
	</g>
	<g>
		<g>
			<g>
				<circle class="st6" cx="82.64" cy="88.73" r="10.04"/>
				<circle class="st6" cx="322.82" cy="88.73" r="10.04"/>
				<g>
					<path class="st7" d="M225.91,159.92c0.9-1.94,1.34-3.98,1.34-6.13v-33c0-2.15-0.41-4.18-1.22-6.1
						c-0.81-1.92-2.01-3.6-3.59-5.05c-1.58-1.45-3.47-2.63-5.66-3.54c-2.2-0.91-4.4-1.37-6.62-1.37h-31.83
						c-1.21,0-2.33,0.09-3.37,0.27c-1.04,0.18-2.1,0.5-3.17,0.95c-2.02,0.81-3.89,1.99-5.61,3.51c-1.46,1.37-2.65,3.07-3.56,5.1
						c-0.91,2.03-1.37,4.11-1.37,6.22v33c0,0.91-0.19,1.79-0.56,2.64c-0.37,0.85-0.87,1.59-1.49,2.25
						c-1.24,1.17-2.75,1.77-4.54,1.81h-1.41v0.04c-3.09-0.03-5.01-0.17-5.71-0.43c-0.78-0.29-1.48-0.76-2.1-1.42
						c-1.4-1.37-2.1-2.96-2.1-4.78v-49.36h-10.4v49.36c0,1.79-0.68,3.34-2.03,4.66c-1.24,1.21-3.9,1.86-7.93,1.96v-0.08h-1.41
						c-0.36,0-0.72-0.02-1.08-0.05c-0.33-0.06-0.76-0.2-1.32-0.39c-0.78-0.29-1.48-0.76-2.1-1.42c-1.4-1.33-2.1-2.93-2.1-4.78
						v-49.45h-10.45v49.45c0,0.94-0.17,1.82-0.51,2.64c-0.34,0.81-0.82,1.51-1.44,2.07c-0.62,0.57-1.38,1.03-2.29,1.39
						c-0.2,0.1-0.54,0.21-1.03,0.34c-0.49,0.13-0.99,0.2-1.51,0.2H65.76c-0.81,0-1.66-0.16-2.54-0.49c-0.68-0.29-1.42-0.76-2.2-1.42
						c-1.37-1.3-2.05-2.88-2.05-4.74v-33.2c0-0.65,0.03-1.16,0.1-1.51c0.07-0.36,0.2-0.76,0.39-1.22c0.36-0.65,0.89-1.35,1.61-2.1
						c1.3-1.24,2.86-1.86,4.69-1.86h9.23v-0.01h2.9c4.68,0,8.55-3.46,9.2-7.96c0,0,0.01,0,0.01,0c0.29-1.87,0.15-3.22,0.15-3.22
						s-0.28,1.88-11.69,1.88h-0.57v-0.1h-9.23c-2.44,0-4.67,0.41-6.69,1.24c-2.02,0.83-3.82,1.98-5.42,3.44
						c-1.59,1.46-2.85,3.21-3.76,5.25c-0.91,2.03-1.37,4.09-1.37,6.18v33.2c0,2.15,0.42,4.2,1.27,6.15s2.1,3.68,3.76,5.18
						c1.5,1.4,3.31,2.55,5.44,3.44c2.13,0.89,4.39,1.34,6.76,1.34h31.98c1.43,0,2.57-0.11,3.42-0.34c1.01-0.13,2.08-0.42,3.22-0.88
						c1.14-0.46,2.15-0.98,3.03-1.56c0.78-0.52,1.56-1.14,2.34-1.85c0,0,0.01,0,0.01,0c1.5,1.33,3.25,2.44,5.27,3.32c0,0,0,0,0,0
						c0.98,0.36,2.05,0.65,3.22,0.88c1.14,0.29,2.25,0.44,3.32,0.44h0.34v0.05c5.17,0,8.84-0.44,10.98-1.32
						c2.02-0.81,3.78-1.92,5.27-3.32c1.43,1.33,3.12,2.44,5.08,3.32c0,0,0,0,0,0c1.99,0.75,4.85,1.19,8.59,1.32h2.44v-0.05h0.39
						c2.38,0,4.52-0.41,6.44-1.22c1.14-0.42,2.12-0.93,2.93-1.51c0.39-0.23,0.83-0.52,1.32-0.88l1.16-0.98
						c1.5,1.34,3.23,2.41,5.18,3.23c2.08,0.88,4.3,1.32,6.64,1.32h31.83c2.47,0,4.71-0.42,6.71-1.27c2-0.85,3.78-2.02,5.35-3.51
						C223.79,163.58,225.02,161.86,225.91,159.92z M216.91,153.8c0,1.95-0.7,3.53-2.1,4.74c-0.59,0.62-1.3,1.09-2.15,1.42
						c-0.81,0.29-1.64,0.44-2.49,0.44h-31.83c-1.76,0-3.32-0.62-4.69-1.86c-0.59-0.49-1.06-1.14-1.42-1.95
						c-0.36-0.88-0.54-1.81-0.54-2.78v-33c0-1.92,0.67-3.5,2-4.74c0.55-0.55,1.29-1.04,2.2-1.46c0.75-0.29,1.56-0.44,2.44-0.44
						h31.83c0.88,0,1.68,0.18,2.39,0.54c0.71,0.26,1.48,0.72,2.29,1.37c1.37,1.3,2.05,2.88,2.05,4.74V153.8z"/>
					<path class="st6" d="M369.99,114.64c-0.88-1.92-2.1-3.62-3.66-5.1c-1.56-1.48-3.4-2.67-5.52-3.56
						c-2.12-0.89-4.35-1.34-6.69-1.34h-62.57c-2.41,0-4.66,0.45-6.76,1.34c-2.1,0.9-3.93,2.08-5.49,3.56
						c-1.56,1.48-2.78,3.18-3.64,5.1c-0.86,1.92-1.29,3.97-1.29,6.15v12.5c0,2.15,0.45,4.19,1.34,6.13
						c0.89,1.94,2.11,3.65,3.64,5.13c1.53,1.48,3.34,2.66,5.44,3.54c2.1,0.88,4.35,1.32,6.76,1.32h62.57c1.63,0,3.17-0.18,4.61-0.54
						l2.12-0.53h0v5.55c0,1.79-0.67,3.37-2,4.74c-1.27,1.27-2.85,1.9-4.74,1.9h-90.27h-1.42c-0.72,0-1.48-0.16-2.29-0.49
						c-0.85-0.33-1.58-0.8-2.2-1.42c-1.4-1.24-2.1-2.78-2.1-4.64v-49.45h-10.4v65.27c0,0.88-0.2,1.72-0.59,2.54
						c-0.39,0.85-0.87,1.55-1.44,2.1c-0.57,0.55-1.33,1.03-2.27,1.42c-0.36,0.13-0.78,0.26-1.27,0.39c-0.17,0.05-0.5,0.08-0.89,0.11
						l-7,0c-4.68,0-8.55,3.46-9.2,7.96c0,0-0.01,0-0.01,0c-0.29,1.87-0.15,3.22-0.15,3.22s0.28-1.88,11.69-1.88l4.86,0
						c0.62,0.02,1.23,0.04,1.9,0h0.14c0,0,0,0,0-0.01c1.09-0.08,2.34-0.34,4.09-1.12c2.1-0.93,3.99-1.95,5.54-3.42
						c1.55-1.46,2.77-3.18,3.66-5.15c0.89-1.97,1.34-4.03,1.34-6.18v-0.98c1.33,0.75,4,1.12,8.01,1.12v-0.09l90.27,0.14
						c2.41,0,4.67-0.44,6.79-1.32c2.12-0.88,3.94-2.06,5.47-3.54c1.53-1.48,2.73-3.19,3.61-5.13c0.88-1.94,1.32-3.98,1.32-6.13
						v-33.1C371.31,118.62,370.87,116.57,369.99,114.64z M360.86,133.29c0,1.79-0.67,3.37-2,4.74c-1.27,1.27-2.85,1.9-4.74,1.9
						h-62.57c-1.79,0-3.37-0.62-4.74-1.85c-0.65-0.55-1.16-1.25-1.51-2.1c-0.36-0.85-0.54-1.74-0.54-2.68v-12.5
						c0-1.95,0.68-3.56,2.05-4.83c1.3-1.24,2.88-1.85,4.74-1.85h62.57c1.86,0,3.44,0.64,4.76,1.93c1.32,1.29,1.98,2.87,1.98,4.76
						V133.29z"/>
					<rect x="108.54" y="178.19" class="st7" width="32.29" height="9.09"/>
				</g>
			</g>
			<path class="st7" d="M54.5,87.39"/>
		</g>
		<g>
			<g>
				<path class="st7" d="M370.04,222.53c-0.85-1.95-2.1-3.68-3.76-5.18c-1.5-1.4-3.31-2.55-5.44-3.44
					c-2.13-0.89-4.39-1.34-6.76-1.34H322.1c-1.43,0-2.57,0.11-3.42,0.34c-1.01,0.13-2.08,0.42-3.22,0.88
					c-1.14,0.46-2.15,0.98-3.03,1.56c-0.78,0.52-1.56,1.14-2.34,1.85c0,0-0.01,0-0.01,0c-1.5-1.33-3.25-2.44-5.27-3.32c0,0,0,0,0,0
					c-0.98-0.36-2.05-0.65-3.22-0.88c-1.12-0.29-2.22-0.43-3.28-0.44v9.47c0.35,0,0.69,0.02,1.04,0.05c0.33,0.06,0.76,0.2,1.32,0.39
					c0.78,0.29,1.48,0.76,2.1,1.42c1.4,1.33,2.1,2.93,2.1,4.78v49.45h10.45v-49.45c0-0.94,0.17-1.82,0.51-2.64
					c0.34-0.81,0.82-1.51,1.44-2.07c0.62-0.57,1.38-1.03,2.29-1.39c0.2-0.1,0.54-0.21,1.03-0.34c0.49-0.13,0.99-0.2,1.51-0.2h31.98
					c0.81,0,1.66,0.16,2.54,0.49c0.68,0.29,1.42,0.76,2.2,1.42c1.37,1.3,2.05,2.88,2.05,4.74v33.2c0,0.65-0.03,1.16-0.1,1.51
					c-0.07,0.36-0.2,0.76-0.39,1.22c-0.36,0.65-0.89,1.35-1.61,2.1c-1.3,1.24-2.86,1.86-4.69,1.86h-9.23v0.01h-2.9
					c-4.68,0-8.55,3.46-9.2,7.96c0,0-0.01,0-0.01,0c-0.29,1.87-0.15,3.22-0.15,3.22s0.28-1.88,11.69-1.88h0.57v0.1h9.23
					c2.44,0,4.67-0.41,6.69-1.24c2.02-0.83,3.82-1.98,5.42-3.44c1.59-1.46,2.85-3.21,3.76-5.25c0.91-2.03,1.37-4.09,1.37-6.18v-33.2
					C371.31,226.53,370.89,224.48,370.04,222.53z"/>
				<path class="st6" d="M150.34,217.39c-1.53-1.48-3.35-2.66-5.47-3.54c-2.12-0.88-4.38-1.32-6.79-1.32l-29.79,0.13V222h29.79
					c1.89,0,3.47,0.63,4.74,1.9c1.33,1.37,2,2.95,2,4.74v5.55h0l-2.12-0.53c-1.45-0.36-2.99-0.54-4.61-0.54h-31.93
					c-2.41,0-4.66,0.44-6.76,1.32s-3.91,2.06-5.44,3.54c-1.53,1.48-2.74,3.19-3.64,5.13c-0.9,1.94-1.34,3.98-1.34,6.13v12.5
					c0,2.18,0.43,4.23,1.29,6.15c0.86,1.92,2.07,3.62,3.64,5.1c1.56,1.48,3.39,2.67,5.49,3.56c2.1,0.89,4.35,1.34,6.76,1.34h31.93
					c2.34,0,4.57-0.45,6.69-1.34c2.12-0.9,3.95-2.08,5.52-3.56c1.56-1.48,2.78-3.18,3.66-5.1c0.88-1.92,1.32-3.97,1.32-6.15v-33.1
					c0-2.15-0.44-4.19-1.32-6.13C153.07,220.58,151.87,218.87,150.34,217.39z M144.82,261.74c0,1.89-0.66,3.47-1.98,4.76
					c-1.32,1.29-2.9,1.93-4.76,1.93h-31.93c-1.86,0-3.43-0.62-4.74-1.85c-1.37-1.27-2.05-2.88-2.05-4.83v-12.5
					c0-0.94,0.18-1.84,0.54-2.68c0.36-0.85,0.86-1.55,1.51-2.1c1.37-1.24,2.94-1.85,4.74-1.85h31.93c1.89,0,3.47,0.63,4.74,1.9
					c1.33,1.37,2,2.95,2,4.74V261.74z"/>
				<path class="st7" d="M256.74,217.22l-1.16-0.98c-0.49-0.36-0.93-0.65-1.32-0.88c-0.81-0.59-1.79-1.09-2.93-1.51
					c-1.92-0.81-4.07-1.22-6.44-1.22h-0.39v-0.05h-2.44c-3.74,0.13-6.61,0.57-8.59,1.32c0,0,0,0,0,0c-1.95,0.88-3.64,1.99-5.08,3.32
					c-1.5-1.4-3.26-2.51-5.27-3.32c-2.15-0.88-5.81-1.32-10.98-1.32v0.05h-0.34c-1.07,0-2.18,0.15-3.32,0.44
					c-1.17,0.23-2.24,0.52-3.22,0.88c0,0,0,0,0,0c-2.02,0.88-10.5,5.67-10.5,14.79c0,6.77,0,49.45,0,49.45h10.45v-49.45
					c0-1.86,0.7-3.45,2.1-4.78c0.62-0.65,1.32-1.12,2.1-1.42c0.55-0.2,0.99-0.33,1.32-0.39c0.36-0.03,0.72-0.05,1.08-0.05h1.41
					v-0.08c4.04,0.1,6.69,0.75,7.93,1.96c1.35,1.32,2.03,2.87,2.03,4.66v49.36h10.4v-49.36c0-1.82,0.7-3.42,2.1-4.78
					c0.62-0.65,1.32-1.12,2.1-1.42c0.71-0.26,2.62-0.41,5.71-0.43v0.04h1.41c1.79,0.03,3.3,0.63,4.54,1.81
					c0.62,0.65,1.11,1.4,1.49,2.25c0.37,0.85,0.56,1.72,0.56,2.64v49.26h10.45v-49.26c0-0.98,0.18-1.9,0.54-2.78
					c0.36-0.81,0.83-1.46,1.42-1.95c1.11-1.01,2.36-1.6,3.73-1.78v-9.5c-1.99,0.1-3.89,0.52-5.68,1.27
					C259.97,214.8,258.24,215.88,256.74,217.22z"/>
				<path class="st6" d="M60.98,223.9c1.27-1.27,2.85-1.9,4.74-1.9h17.46v-0.01l6.8,0c4.59,0,8.39-3.4,9.03-7.81c0,0,0.01,0,0.01,0
					c0.29-1.84,0.15-3.16,0.15-3.16s-0.27,1.84-11.47,1.84l-4.52,0v-0.28c-0.14,0-0.27-0.01-0.41-0.01v0.09l-17.05-0.14
					c-2.41,0-4.67,0.44-6.79,1.32c-2.12,0.88-3.94,2.06-5.47,3.54c-1.53,1.48-2.73,3.19-3.61,5.13c-0.88,1.94-1.32,3.98-1.32,6.13
					v48.29c0,0.33,0.03,0.66,0.05,0.99l10.4-10.4v-18.27c0-1.79,0.67-3.37,2-4.74c1.27-1.27,2.85-1.9,4.74-1.9h16.25v-9.47H65.71
					c-1.63,0-3.17,0.18-4.61,0.54l-2.12,0.53h0v-5.55C58.97,226.84,59.64,225.26,60.98,223.9z"/>
				<path class="st6" d="M198.98,198.2c0,0,0.01,0,0.01,0c0.29-1.87,0.15-3.22,0.15-3.22s-0.28,1.88-11.69,1.88l-4.86,0
					c-0.62-0.02-1.23-0.04-1.9,0h-0.14c0,0,0,0,0,0.01c-1.09,0.08-2.34,0.34-4.09,1.12c-2.1,0.93-3.99,1.95-5.54,3.42
					c-1.55,1.46-2.77,3.18-3.66,5.15c-0.89,1.97-1.34,4.03-1.34,6.18v0.98c-1.17-0.66-3.37-1.02-6.59-1.11v9.4
					c0.72,0,1.48,0.16,2.29,0.49c0.85,0.33,1.58,0.8,2.2,1.42c1.4,1.24,2.1,2.78,2.1,4.64v49.45h10.4v-65.27
					c0-0.88,0.2-1.72,0.59-2.54c0.39-0.85,0.87-1.55,1.44-2.1c0.57-0.55,1.33-1.03,2.27-1.42c0.36-0.13,0.78-0.26,1.27-0.39
					c0.17-0.05,0.5-0.08,0.89-0.11l7,0C194.46,206.16,198.33,202.7,198.98,198.2z"/>
				<rect x="277.76" y="222.38" class="st7" width="10.4" height="55.7"/>
			</g>
			<circle class="st6" cx="282.96" cy="202.53" r="10.04"/>
		</g>
	</g>
</g>
</svg>
