<?xml version="1.0" encoding="utf-8"?>
<!-- Generator: Adobe Illustrator 27.0.1, SVG Export Plug-In . SVG Version: 6.00 Build 0)  -->
<svg version="1.1" id="Layer_1" xmlns="http://www.w3.org/2000/svg" xmlns:xlink="http://www.w3.org/1999/xlink" x="0px" y="0px"
	 viewBox="0 0 435.6 677.8" style="enable-background:new 0 0 435.6 677.8;" xml:space="preserve">
<style type="text/css">
	.st0{fill:#8DC63F;}
	.st1{fill:#662D91;}
	.st2{fill:url(#SVGID_1_);}
	.st3{fill:url(#SVGID_00000013902935999551047490000007341469591119045298_);}
	
		.st4{opacity:0.5;clip-path:url(#SVGID_00000136385392971164553070000008820781968904564151_);fill:#73A533;enable-background:new    ;}
	
		.st5{opacity:0.5;clip-path:url(#SVGID_00000127723323571885710250000012062292514333150380_);fill:#73A533;enable-background:new    ;}
	
		.st6{clip-path:url(#SVGID_00000098900392329129571980000016092037595262979491_);fill:url(#SVGID_00000170265781780489034220000015682192787070443946_);}
	
		.st7{clip-path:url(#SVGID_00000076574351228147988710000010075382366090947985_);fill:url(#SVGID_00000112596824338162560110000008055528438335946918_);}
	
		.st8{opacity:0.5;clip-path:url(#SVGID_00000135668463859618304560000009121292274593436065_);fill:#73A533;enable-background:new    ;}
	
		.st9{opacity:0.5;clip-path:url(#SVGID_00000114069837473333857940000005601268022841795519_);fill:#73A533;enable-background:new    ;}
</style>
<g>
	<g>
		<g>
			<g>
				<circle class="st0" cx="90.5" cy="465" r="10"/>
				<circle class="st0" cx="330.7" cy="465" r="10"/>
				<g>
					<path class="st1" d="M233.8,536.2c0.9-1.9,1.3-4,1.3-6.1v-33c0-2.1-0.4-4.2-1.2-6.1c-0.8-1.9-2-3.6-3.6-5.1
						c-1.6-1.4-3.5-2.6-5.7-3.5c-2.2-0.9-4.4-1.4-6.6-1.4h-31.8c-1.2,0-2.3,0.1-3.4,0.3c-1,0.2-2.1,0.5-3.2,1c-2,0.8-3.9,2-5.6,3.5
						c-1.5,1.4-2.6,3.1-3.6,5.1s-1.4,4.1-1.4,6.2v33c0,0.9-0.2,1.8-0.6,2.6c-0.4,0.8-0.9,1.6-1.5,2.2c-1.2,1.2-2.8,1.8-4.5,1.8h-1.4
						v0c-3.1,0-5-0.2-5.7-0.4c-0.8-0.3-1.5-0.8-2.1-1.4c-1.4-1.4-2.1-3-2.1-4.8v-49.4h-10.4v49.4c0,1.8-0.7,3.3-2,4.7
						c-1.2,1.2-3.9,1.9-7.9,2v-0.1h-1.4c-0.4,0-0.7,0-1.1,0c-0.3-0.1-0.8-0.2-1.3-0.4c-0.8-0.3-1.5-0.8-2.1-1.4
						c-1.4-1.3-2.1-2.9-2.1-4.8v-49.4h-10.4V530c0,0.9-0.2,1.8-0.5,2.6c-0.3,0.8-0.8,1.5-1.4,2.1c-0.6,0.6-1.4,1-2.3,1.4
						c-0.2,0.1-0.5,0.2-1,0.3c-0.5,0.1-1,0.2-1.5,0.2h-32c-0.8,0-1.7-0.2-2.5-0.5c-0.7-0.3-1.4-0.8-2.2-1.4
						c-1.4-1.3-2.1-2.9-2.1-4.7v-33.2c0-0.6,0-1.2,0.1-1.5c0.1-0.4,0.2-0.8,0.4-1.2c0.4-0.6,0.9-1.4,1.6-2.1
						c1.3-1.2,2.9-1.9,4.7-1.9h9.2v0h2.9c4.7,0,8.6-3.5,9.2-8h0c0.3-1.9,0.2-3.2,0.2-3.2s-0.3,1.9-11.7,1.9h-0.6v-0.1h-9.2
						c-2.4,0-4.7,0.4-6.7,1.2c-2,0.8-3.8,2-5.4,3.4c-1.6,1.5-2.8,3.2-3.8,5.2c-0.9,2-1.4,4.1-1.4,6.2V530c0,2.1,0.4,4.2,1.3,6.1
						c0.9,2,2.1,3.7,3.8,5.2c1.5,1.4,3.3,2.6,5.4,3.4c2.1,0.9,4.4,1.3,6.8,1.3h32c1.4,0,2.6-0.1,3.4-0.3c1-0.1,2.1-0.4,3.2-0.9
						c1.1-0.5,2.2-1,3-1.6c0.8-0.5,1.6-1.1,2.3-1.8h0c1.5,1.3,3.2,2.4,5.3,3.3l0,0c1,0.4,2.1,0.6,3.2,0.9c1.1,0.3,2.2,0.4,3.3,0.4
						h0.3v0c5.2,0,8.8-0.4,11-1.3c2-0.8,3.8-1.9,5.3-3.3c1.4,1.3,3.1,2.4,5.1,3.3l0,0c2,0.8,4.9,1.2,8.6,1.3h2.4v0h0.4
						c2.4,0,4.5-0.4,6.4-1.2c1.1-0.4,2.1-0.9,2.9-1.5c0.4-0.2,0.8-0.5,1.3-0.9l1.2-1c1.5,1.3,3.2,2.4,5.2,3.2
						c2.1,0.9,4.3,1.3,6.6,1.3H218c2.5,0,4.7-0.4,6.7-1.3c2-0.9,3.8-2,5.4-3.5C231.7,539.8,232.9,538.1,233.8,536.2z M224.8,530
						c0,2-0.7,3.5-2.1,4.7c-0.6,0.6-1.3,1.1-2.1,1.4c-0.8,0.3-1.6,0.4-2.5,0.4h-31.8c-1.8,0-3.3-0.6-4.7-1.9
						c-0.6-0.5-1.1-1.1-1.4-1.9c-0.4-0.9-0.5-1.8-0.5-2.8v-33c0-1.9,0.7-3.5,2-4.7c0.6-0.5,1.3-1,2.2-1.5c0.8-0.3,1.6-0.4,2.4-0.4
						H218c0.9,0,1.7,0.2,2.4,0.5c0.7,0.3,1.5,0.7,2.3,1.4c1.4,1.3,2.1,2.9,2.1,4.7L224.8,530L224.8,530z"/>
					<path class="st0" d="M377.9,490.9c-0.9-1.9-2.1-3.6-3.7-5.1c-1.6-1.5-3.4-2.7-5.5-3.6c-2.1-0.9-4.4-1.3-6.7-1.3h-62.6
						c-2.4,0-4.7,0.4-6.8,1.3c-2.1,0.9-3.9,2.1-5.5,3.6c-1.6,1.5-2.8,3.2-3.6,5.1c-0.9,1.9-1.3,4-1.3,6.2v12.5
						c0,2.1,0.5,4.2,1.3,6.1c0.9,1.9,2.1,3.7,3.6,5.1c1.5,1.5,3.3,2.7,5.4,3.5s4.4,1.3,6.8,1.3H362c1.6,0,3.2-0.2,4.6-0.5l2.1-0.5
						l0,0v5.5c0,1.8-0.7,3.4-2,4.7c-1.3,1.3-2.9,1.9-4.7,1.9h-90.3h-1.4c-0.7,0-1.5-0.2-2.3-0.5c-0.9-0.3-1.6-0.8-2.2-1.4
						c-1.4-1.2-2.1-2.8-2.1-4.6v-49.5h-10.4V546c0,0.9-0.2,1.7-0.6,2.5c-0.4,0.8-0.9,1.5-1.4,2.1s-1.3,1-2.3,1.4
						c-0.4,0.1-0.8,0.3-1.3,0.4c-0.2,0-0.5,0.1-0.9,0.1h-7c-4.7,0-8.6,3.5-9.2,8h0c-0.3,1.9-0.1,3.2-0.1,3.2s0.3-1.9,11.7-1.9h4.9
						c0.6,0,1.2,0,1.9,0h0.1c0,0,0,0,0,0c1.1-0.1,2.3-0.3,4.1-1.1c2.1-0.9,4-2,5.5-3.4c1.6-1.5,2.8-3.2,3.7-5.2c0.9-2,1.3-4,1.3-6.2
						v-1c1.3,0.8,4,1.1,8,1.1v-0.1l90.3,0.1c2.4,0,4.7-0.4,6.8-1.3s3.9-2.1,5.5-3.5s2.7-3.2,3.6-5.1c0.9-1.9,1.3-4,1.3-6.1V497
						C379.2,494.9,378.7,492.8,377.9,490.9z M368.7,509.5c0,1.8-0.7,3.4-2,4.7c-1.3,1.3-2.9,1.9-4.7,1.9h-62.6
						c-1.8,0-3.4-0.6-4.7-1.9c-0.6-0.5-1.2-1.2-1.5-2.1c-0.4-0.9-0.5-1.7-0.5-2.7V497c0-2,0.7-3.6,2-4.8c1.3-1.2,2.9-1.8,4.7-1.8
						H362c1.9,0,3.4,0.6,4.8,1.9s2,2.9,2,4.8V509.5z"/>
					<rect x="116.4" y="554.4" class="st1" width="32.3" height="9.1"/>
				</g>
			</g>
			<path class="st1" d="M62.4,463.6"/>
		</g>
		<g>
			<g>
				<path class="st1" d="M377.9,598.8c-0.9-1.9-2.1-3.7-3.8-5.2c-1.5-1.4-3.3-2.5-5.4-3.4c-2.1-0.9-4.4-1.3-6.8-1.3h-32
					c-1.4,0-2.6,0.1-3.4,0.3c-1,0.1-2.1,0.4-3.2,0.9c-1.1,0.5-2.1,1-3,1.6c-0.8,0.5-1.6,1.1-2.3,1.9h0c-1.5-1.3-3.2-2.4-5.3-3.3l0,0
					c-1-0.4-2-0.7-3.2-0.9c-1.1-0.3-2.2-0.4-3.3-0.4v9.5c0.4,0,0.7,0,1,0.1c0.3,0.1,0.8,0.2,1.3,0.4c0.8,0.3,1.5,0.8,2.1,1.4
					c1.4,1.3,2.1,2.9,2.1,4.8v49.5h10.5v-49.5c0-0.9,0.2-1.8,0.5-2.6c0.3-0.8,0.8-1.5,1.4-2.1c0.6-0.6,1.4-1,2.3-1.4
					c0.2-0.1,0.5-0.2,1-0.3s1-0.2,1.5-0.2h32c0.8,0,1.7,0.2,2.5,0.5c0.7,0.3,1.4,0.8,2.2,1.4c1.4,1.3,2,2.9,2,4.7v33.2
					c0,0.6,0,1.2-0.1,1.5c-0.1,0.4-0.2,0.8-0.4,1.2c-0.4,0.7-0.9,1.4-1.6,2.1c-1.3,1.2-2.9,1.9-4.7,1.9h-9.2v0h-2.9
					c-4.7,0-8.5,3.5-9.2,8h0c-0.3,1.9-0.1,3.2-0.1,3.2s0.3-1.9,11.7-1.9h0.6v0.1h9.2c2.4,0,4.7-0.4,6.7-1.2c2-0.8,3.8-2,5.4-3.4
					c1.6-1.5,2.9-3.2,3.8-5.2c0.9-2,1.4-4.1,1.4-6.2v-33.2C379.2,602.8,378.8,600.7,377.9,598.8z"/>
				<path class="st0" d="M158.2,593.6c-1.5-1.5-3.4-2.7-5.5-3.5s-4.4-1.3-6.8-1.3l-29.8,0.1v9.3H146c1.9,0,3.5,0.6,4.7,1.9
					c1.3,1.4,2,3,2,4.7v5.5l0,0l-2.1-0.5c-1.4-0.4-3-0.5-4.6-0.5H114c-2.4,0-4.7,0.4-6.8,1.3s-3.9,2.1-5.4,3.5
					c-1.5,1.5-2.7,3.2-3.6,5.1c-0.9,1.9-1.3,4-1.3,6.1V638c0,2.2,0.4,4.2,1.3,6.2s2.1,3.6,3.6,5.1c1.6,1.5,3.4,2.7,5.5,3.6
					c2.1,0.9,4.4,1.3,6.8,1.3H146c2.3,0,4.6-0.5,6.7-1.3c2.1-0.9,3.9-2.1,5.5-3.6c1.6-1.5,2.8-3.2,3.7-5.1c0.9-1.9,1.3-4,1.3-6.2
					v-33.1c0-2.2-0.4-4.2-1.3-6.1C160.9,596.8,159.7,595.1,158.2,593.6z M152.7,638c0,1.9-0.7,3.5-2,4.8c-1.3,1.3-2.9,1.9-4.8,1.9
					H114c-1.9,0-3.4-0.6-4.7-1.9c-1.4-1.3-2.1-2.9-2.1-4.8v-12.5c0-0.9,0.2-1.8,0.5-2.7c0.4-0.9,0.9-1.5,1.5-2.1
					c1.4-1.2,2.9-1.8,4.7-1.8H146c1.9,0,3.5,0.6,4.7,1.9c1.3,1.4,2,3,2,4.7L152.7,638L152.7,638z"/>
				<path class="st1" d="M264.6,593.5l-1.2-1c-0.5-0.4-0.9-0.6-1.3-0.9c-0.8-0.6-1.8-1.1-2.9-1.5c-1.9-0.8-4.1-1.2-6.4-1.2h-0.4v0
					h-2.4c-3.7,0.1-6.6,0.6-8.6,1.3l0,0c-1.9,0.9-3.6,2-5.1,3.3c-1.5-1.4-3.3-2.5-5.3-3.3c-2.1-0.9-5.8-1.3-11-1.3v0h-0.3
					c-1.1,0-2.2,0.1-3.3,0.4c-1.2,0.2-2.2,0.5-3.2,0.9l0,0c-2,0.9-10.5,5.7-10.5,14.8c0,6.8,0,49.5,0,49.5h10.4V605
					c0-1.9,0.7-3.5,2.1-4.8c0.6-0.7,1.3-1.1,2.1-1.4c0.6-0.2,1-0.3,1.3-0.4c0.4,0,0.7-0.1,1.1-0.1h1.4v-0.1c4,0.1,6.7,0.8,7.9,2
					c1.4,1.3,2,2.9,2,4.7v49.4h10.4v-49.4c0-1.8,0.7-3.4,2.1-4.8c0.6-0.6,1.3-1.1,2.1-1.4c0.7-0.3,2.6-0.4,5.7-0.4v0h1.4
					c1.8,0,3.3,0.6,4.5,1.8c0.6,0.7,1.1,1.4,1.5,2.2c0.4,0.9,0.6,1.7,0.6,2.6v49.3h10.4V605c0-1,0.2-1.9,0.5-2.8
					c0.4-0.8,0.8-1.5,1.4-2c1.1-1,2.4-1.6,3.7-1.8V589c-2,0.1-3.9,0.5-5.7,1.3C267.8,591,266.1,592.1,264.6,593.5z"/>
				<path class="st0" d="M68.9,600.1c1.3-1.3,2.8-1.9,4.7-1.9h17.5v0h6.8c4.6,0,8.4-3.4,9-7.8h0c0.3-1.8,0.2-3.2,0.2-3.2
					s-0.3,1.8-11.5,1.8h-4.5v-0.3c-0.1,0-0.3,0-0.4,0v0.1l-17.1-0.1c-2.4,0-4.7,0.4-6.8,1.3c-2.1,0.9-3.9,2.1-5.5,3.5
					c-1.5,1.5-2.7,3.2-3.6,5.1s-1.3,4-1.3,6.1v48.3c0,0.3,0,0.7,0,1l10.4-10.4v-18.3c0-1.8,0.7-3.4,2-4.7c1.3-1.3,2.9-1.9,4.7-1.9
					h16.2v-9.5H73.6c-1.6,0-3.2,0.2-4.6,0.5l-2.1,0.5l0,0v-5.6C66.8,603.1,67.5,601.5,68.9,600.1z"/>
				<path class="st0" d="M206.9,574.4L206.9,574.4c0.3-1.9,0.2-3.2,0.2-3.2s-0.3,1.9-11.7,1.9h-4.9c-0.6,0-1.2,0-1.9,0h-0.1
					c0,0,0,0,0,0c-1.1,0.1-2.3,0.3-4.1,1.1c-2.1,0.9-4,2-5.5,3.4c-1.6,1.5-2.8,3.2-3.7,5.2c-0.9,2-1.3,4-1.3,6.2v1
					c-1.2-0.7-3.4-1-6.6-1.1v9.4c0.7,0,1.5,0.2,2.3,0.5c0.9,0.3,1.6,0.8,2.2,1.4c1.4,1.2,2.1,2.8,2.1,4.6v49.5h10.4V589
					c0-0.9,0.2-1.7,0.6-2.5c0.4-0.9,0.9-1.6,1.4-2.1s1.3-1,2.3-1.4c0.4-0.1,0.8-0.3,1.3-0.4c0.2,0,0.5-0.1,0.9-0.1h7
					C202.3,582.4,206.2,578.9,206.9,574.4z"/>
				<rect x="285.6" y="598.6" class="st1" width="10.4" height="55.7"/>
			</g>
			<circle class="st0" cx="290.8" cy="578.8" r="10"/>
		</g>
	</g>
	<g>
		
			<linearGradient id="SVGID_1_" gradientUnits="userSpaceOnUse" x1="232.2322" y1="760.1656" x2="56.4" y2="760.1656" gradientTransform="matrix(1 0 0 -1 0 1020)">
			<stop  offset="0" style="stop-color:#4D186E"/>
			<stop  offset="0.5343" style="stop-color:#5B2481"/>
			<stop  offset="1" style="stop-color:#662D91"/>
		</linearGradient>
		<path class="st2" d="M193.1,404.7H56.4V115H232c0,0,1.7,2.3-3.5,10.8c-5.1,0-161.2,0-161.2,0v268h115.2L193.1,404.7z"/>
		
			<linearGradient id="SVGID_00000070826924127701952300000007853015020738907793_" gradientUnits="userSpaceOnUse" x1="379.1801" y1="736.7509" x2="222.3281" y2="736.7509" gradientTransform="matrix(1 0 0 -1 0 1020)">
			<stop  offset="0" style="stop-color:#8DC63F"/>
			<stop  offset="0.2036" style="stop-color:#89C23D"/>
			<stop  offset="0.4202" style="stop-color:#83BA3B"/>
			<stop  offset="0.6422" style="stop-color:#79AD36"/>
			<stop  offset="0.7135" style="stop-color:#75A834"/>
			<stop  offset="1" style="stop-color:#73A533"/>
		</linearGradient>
		<path style="fill:url(#SVGID_00000070826924127701952300000007853015020738907793_);" d="M379.2,427.4l-156.6,0.1
			c0,0-1.7-2.1,3.4-10.7c3.9,0,142.7,0,142.7,0V191.2c0-23-18.7-41.7-41.7-41.7c0,0-72,0-76.5,0c-0.5-7-2-10.5-2-10.5H327
			c28.8,0,52.2,23.4,52.2,52.2V427.4z"/>
		<g>
			<g>
				<path id="SVGID_00000001645506695369061640000003735367439150433443_" class="st0" d="M337.9,243.1c0,0-82.4-82.4-87.8-87.8
					c-1.2,18.2-14.4,29-22.5,37c4.5,4.5,65.9,65.9,65.9,65.9c8.3,8.3,8.3,21.7,0,30l-76.9,73.6c-15.5,15.5-16.4,40.1-2.5,56.7
					c4.5,5.8,8.4,9,8.4,9s-5.1-6.9,31.4-43.3l0,0l84-80.7C354.6,286.8,354.6,259.8,337.9,243.1z"/>
			</g>
			<g>
				<defs>
					<path id="SVGID_00000106118598748437570160000016160255856352288643_" d="M337.9,243.1c0,0-82.4-82.4-87.8-87.8
						c-1.2,18.2-14.4,29-22.5,37c4.5,4.5,65.9,65.9,65.9,65.9c8.3,8.3,8.3,21.7,0,30l-76.9,73.6c-15.5,15.5-16.4,40.1-2.5,56.7
						c4.5,5.8,8.4,9,8.4,9s-5.1-6.9,31.4-43.3l0,0l84-80.7C354.6,286.8,354.6,259.8,337.9,243.1z"/>
				</defs>
				<clipPath id="SVGID_00000105402822658631615610000010045463489517934007_">
					<use xlink:href="#SVGID_00000106118598748437570160000016160255856352288643_"  style="overflow:visible;"/>
				</clipPath>
				
					<path style="opacity:0.5;clip-path:url(#SVGID_00000105402822658631615610000010045463489517934007_);fill:#73A533;enable-background:new    ;" d="
					M314.1,233.9c-24.9-24.9-88.5-87.4-88.5-87.4s-39.3-15.2-48.2-7.8c-0.1,0.1-0.2,0.2-0.4,0.3l92.8,113.6
					c8.3,10.1,8.3,26.6,0,36.7l-76.9,90.1c-15.5,19-16.4,49.1-2.5,69.4c4.5,7,8.4,11,8.4,11s1-32,22.7-34.2c8-38.3,64-89,92.6-117.6
					C342.7,279.2,343.1,262.9,314.1,233.9z"/>
			</g>
			<g>
				<defs>
					<path id="SVGID_00000178202228121067327620000004285089400564087721_" d="M337.9,243.1c0,0-82.4-82.4-87.8-87.8
						c-1.2,18.2-14.4,29-22.5,37c4.5,4.5,65.9,65.9,65.9,65.9c8.3,8.3,8.3,21.7,0,30l-76.9,73.6c-15.5,15.5-16.4,40.1-2.5,56.7
						c4.5,5.8,8.4,9,8.4,9s-5.1-6.9,31.4-43.3l0,0l84-80.7C354.6,286.8,354.6,259.8,337.9,243.1z"/>
				</defs>
				<clipPath id="SVGID_00000117636184595758209410000014671504300123609763_">
					<use xlink:href="#SVGID_00000178202228121067327620000004285089400564087721_"  style="overflow:visible;"/>
				</clipPath>
				
					<path style="opacity:0.5;clip-path:url(#SVGID_00000117636184595758209410000014671504300123609763_);fill:#73A533;enable-background:new    ;" d="
					M289.6,233.1c-19.3-19.3-77.2-78.7-77.2-78.7s-5.5,4.2-14.4,11.6c-0.1,0.1,98.4,108.8,98.4,108.8L182,371.2
					c0,0-7.2,40.7,39.5,54.2c-13.2-43.3,46.4-90.7,78.5-122.2S308.9,252.4,289.6,233.1z"/>
			</g>
		</g>
		<g>
			<g>
				<path id="SVGID_00000019680601217893336800000009200246044333584285_" class="st1" d="M275.4,261.3l-30.5-30.5
					c0,0-64.1,64.1-71.6,71.6c-7.5,7.5-7,14.4-7,14.4l-16-16c-8.5-8.5-8.5-22.3,0-30.8l87.6-87.6c15.3-15.3,16.7-39.4,4.1-56.3
					c0,0,0,0,0,0c-5.2-7.1-10-11-10-11s5.2,7.1-32.2,44.5l0,0l-94.9,94.9c-17.1,17.1-17.1,44.9,0,62l88.3,88.3v-53.7
					c0-4.7,1.9-9.1,5.2-12.4L275.4,261.3z"/>
			</g>
			<g>
				<defs>
					<path id="SVGID_00000093873650495437260730000017760357637530502278_" d="M275.4,261.3l-30.5-30.5c0,0-64.1,64.1-71.6,71.6
						c-7.5,7.5-7,14.4-7,14.4l-16-16c-8.5-8.5-8.5-22.3,0-30.8l87.6-87.6c15.3-15.3,16.7-39.4,4.1-56.3c0,0,0,0,0,0
						c-5.2-7.1-10-11-10-11s5.2,7.1-32.2,44.5l0,0l-94.9,94.9c-17.1,17.1-17.1,44.9,0,62l88.3,88.3v-53.7c0-4.7,1.9-9.1,5.2-12.4
						L275.4,261.3z"/>
				</defs>
				<clipPath id="SVGID_00000038384955324329270970000013260166692176958650_">
					<use xlink:href="#SVGID_00000093873650495437260730000017760357637530502278_"  style="overflow:visible;"/>
				</clipPath>
				
					<linearGradient id="SVGID_00000119811889127715572080000018022394183391177885_" gradientUnits="userSpaceOnUse" x1="140.8625" y1="816.6522" x2="280.3287" y2="816.6522" gradientTransform="matrix(1 0 0 -1 0 1020)">
					<stop  offset="0" style="stop-color:#4D186E"/>
					<stop  offset="0.5343" style="stop-color:#5B2481"/>
					<stop  offset="1" style="stop-color:#662D91"/>
				</linearGradient>
				
					<path style="clip-path:url(#SVGID_00000038384955324329270970000013260166692176958650_);fill:url(#SVGID_00000119811889127715572080000018022394183391177885_);" d="
					M233.4,109c0,0,1.3,30-24,62.4c-25.8,33.1-89.3,83.7-61.6,126.3C173.6,266.3,280.3,163,280.3,163L233.4,109z"/>
			</g>
			<g>
				<defs>
					<path id="SVGID_00000027592724286980585200000007351437519588085146_" d="M275.4,261.3l-30.5-30.5c0,0-64.1,64.1-71.6,71.6
						c-7.5,7.5-7,14.4-7,14.4l-16-16c-8.5-8.5-8.5-22.3,0-30.8l87.6-87.6c15.3-15.3,16.7-39.4,4.1-56.3c0,0,0,0,0,0
						c-5.2-7.1-10-11-10-11s5.2,7.1-32.2,44.5l0,0l-94.9,94.9c-17.1,17.1-17.1,44.9,0,62l88.3,88.3v-53.7c0-4.7,1.9-9.1,5.2-12.4
						L275.4,261.3z"/>
				</defs>
				<clipPath id="SVGID_00000005958847326061305810000000847067151764326560_">
					<use xlink:href="#SVGID_00000027592724286980585200000007351437519588085146_"  style="overflow:visible;"/>
				</clipPath>
				
					<linearGradient id="SVGID_00000100353217367609923460000000324186114318781570_" gradientUnits="userSpaceOnUse" x1="176.4007" y1="689.2103" x2="287.2076" y2="689.2103" gradientTransform="matrix(1 0 0 -1 0 1020)">
					<stop  offset="0" style="stop-color:#4D186E"/>
					<stop  offset="0.5343" style="stop-color:#5B2481"/>
					<stop  offset="1" style="stop-color:#662D91"/>
				</linearGradient>
				
					<path style="clip-path:url(#SVGID_00000005958847326061305810000000847067151764326560_);fill:url(#SVGID_00000100353217367609923460000000324186114318781570_);" d="
					M199.1,421.1c0,0-22.7-55.5-22.7-81.2c0-6.9,0.6-18,9.1-26.5c8.5-8.5,63.6-61.8,74.6-72.9c13.2,9.3,27.1,31.4,27.1,31.4
					l-71.5,77.8L199.1,421.1z"/>
			</g>
		</g>
		<g>
			<g>
				<circle id="SVGID_00000077286872000364044800000006542729200888387483_" class="st0" cx="231.1" cy="63.9" r="42.1"/>
			</g>
			<g>
				<defs>
					<circle id="SVGID_00000018916274648903539410000001722071657151097247_" cx="231.1" cy="63.9" r="42.1"/>
				</defs>
				<clipPath id="SVGID_00000112591872522706211960000018095559755141356221_">
					<use xlink:href="#SVGID_00000018916274648903539410000001722071657151097247_"  style="overflow:visible;"/>
				</clipPath>
				
					<circle style="opacity:0.5;clip-path:url(#SVGID_00000112591872522706211960000018095559755141356221_);fill:#73A533;enable-background:new    ;" cx="231.1" cy="85.1" r="42.1"/>
			</g>
			<g>
				<defs>
					<circle id="SVGID_00000034805176392648080520000001603235488284085944_" cx="231.1" cy="63.9" r="42.1"/>
				</defs>
				<clipPath id="SVGID_00000067198975212849078290000014165484793082747832_">
					<use xlink:href="#SVGID_00000034805176392648080520000001603235488284085944_"  style="overflow:visible;"/>
				</clipPath>
				
					<circle style="opacity:0.5;clip-path:url(#SVGID_00000067198975212849078290000014165484793082747832_);fill:#73A533;enable-background:new    ;" cx="231.1" cy="105.9" r="42.1"/>
			</g>
		</g>
	</g>
</g>
</svg>
