<?xml version="1.0" encoding="utf-8"?>
<!-- Generator: Adobe Illustrator 26.2.1, SVG Export Plug-In . SVG Version: 6.00 Build 0)  -->
<svg version="1.1" id="Layer_1" xmlns="http://www.w3.org/2000/svg" xmlns:xlink="http://www.w3.org/1999/xlink" x="0px" y="0px"
	 viewBox="0 0 331.2 334.8" style="enable-background:new 0 0 331.2 334.8;" xml:space="preserve">
<style type="text/css">
	.st0{fill:url(#SVGID_1_);}
	.st1{fill:url(#SVGID_00000023257633513965006270000013697874025169546661_);}
	.st2{opacity:0.5;clip-path:url(#SVGID_00000143574877156062078590000002147164422630913959_);fill:#73A533;}
	
		.st3{clip-path:url(#SVGID_00000112631006626468439640000016722203206055321508_);fill:url(#SVGID_00000088106209041910790570000010275982236963838117_);}
	
		.st4{clip-path:url(#SVGID_00000112631006626468439640000016722203206055321508_);fill:url(#SVGID_00000114036587477000293070000013243403629290437516_);}
	.st5{opacity:0.5;clip-path:url(#SVGID_00000173863935414044872790000017936829871968364945_);fill:#73A533;}
</style>
<g>
	<linearGradient id="SVGID_1_" gradientUnits="userSpaceOnUse" x1="173.1909" y1="188.667" x2="66.8586" y2="188.667">
		<stop  offset="0" style="stop-color:#4D186E"/>
		<stop  offset="0.5343" style="stop-color:#5B2481"/>
		<stop  offset="1" style="stop-color:#662D91"/>
	</linearGradient>
	<path class="st0" d="M149.53,276.25H66.86V101.09h106.17c0,0,1.04,1.4-2.12,6.53c-3.09,0-97.51,0-97.51,0v162.1h69.67
		L149.53,276.25z"/>
	
		<linearGradient id="SVGID_00000139286904413145389290000017282047912478994326_" gradientUnits="userSpaceOnUse" x1="262.058" y1="202.828" x2="167.2041" y2="202.828">
		<stop  offset="0" style="stop-color:#8DC63F"/>
		<stop  offset="0.2036" style="stop-color:#89C23D"/>
		<stop  offset="0.4202" style="stop-color:#83BA3B"/>
		<stop  offset="0.6422" style="stop-color:#79AD36"/>
		<stop  offset="0.7135" style="stop-color:#75A834"/>
		<stop  offset="1" style="stop-color:#73A533"/>
	</linearGradient>
	<path style="fill:url(#SVGID_00000139286904413145389290000017282047912478994326_);" d="M262.06,289.99l-94.7,0.09
		c0,0-1-1.27,2.07-6.45c2.37,0,86.27,0,86.27,0V147.15c0-13.9-11.31-25.21-25.21-25.21c0,0-43.52,0-46.27,0
		c-0.32-4.25-1.21-6.36-1.21-6.36h47.48c17.41,0,31.57,14.16,31.57,31.57V289.99z"/>
	<g>
		<defs>
			<path id="SVGID_00000001645506695369061640000003735367439150433443_" d="M237.12,178.54c0,0-49.81-49.81-53.08-53.08
				c-0.72,10.99-8.71,17.51-13.58,22.39c2.71,2.71,39.88,39.88,39.88,39.88c5.01,5.01,5.01,13.14,0,18.15l-46.52,44.51
				c-9.39,9.39-9.89,24.28-1.53,34.27c2.72,3.48,5.08,5.42,5.08,5.42s-3.09-4.16,18.96-26.21c0,0-0.01-0.01-0.01-0.01l50.8-48.79
				C247.2,204.98,247.2,188.63,237.12,178.54z"/>
		</defs>
		<use xlink:href="#SVGID_00000001645506695369061640000003735367439150433443_"  style="overflow:visible;fill:#8DC63F;"/>
		<clipPath id="SVGID_00000107582088690899733760000005829887022156261526_">
			<use xlink:href="#SVGID_00000001645506695369061640000003735367439150433443_"  style="overflow:visible;"/>
		</clipPath>
		<path style="opacity:0.5;clip-path:url(#SVGID_00000107582088690899733760000005829887022156261526_);fill:#73A533;" d="
			M222.72,172.96c-15.05-15.05-53.53-52.87-53.53-52.87s-23.75-9.19-29.14-4.74c-0.07,0.06-0.14,0.12-0.22,0.18l56.11,68.67
			c5.01,6.13,5.01,16.08,0,22.21l-46.52,54.47c-9.39,11.49-9.89,29.72-1.53,41.95c2.72,4.26,5.08,6.63,5.08,6.63
			s0.6-19.38,13.74-20.7c4.86-23.16,38.73-53.81,56.02-71.1S240.26,190.5,222.72,172.96z"/>
		<path style="opacity:0.5;clip-path:url(#SVGID_00000107582088690899733760000005829887022156261526_);fill:#73A533;" d="
			M207.87,172.51c-11.68-11.68-46.7-47.62-46.7-47.62s-3.3,2.55-8.69,7c-0.07,0.06,59.51,65.8,59.51,65.8L142.79,256
			c0,0-4.38,24.63,23.91,32.77c-7.96-26.21,28.09-54.85,47.45-73.9S219.55,184.19,207.87,172.51z"/>
	</g>
	<g>
		<defs>
			<path id="SVGID_00000019680601217893336800000009200246044333584285_" d="M199.29,189.58l-18.46-18.46
				c0,0-38.74,38.75-43.29,43.29c-4.54,4.54-4.26,8.7-4.26,8.7l-9.66-9.66c-5.14-5.14-5.14-13.48,0-18.62l53-53
				c9.28-9.28,10.08-23.81,2.45-34.03c0-0.01,0.01-0.02,0.01-0.03c-3.13-4.29-6.07-6.68-6.07-6.68s3.17,4.27-19.46,26.89l0,0
				l-57.41,57.41c-10.35,10.35-10.35,27.13,0,37.48l53.37,53.37v-32.49c0-2.82,1.12-5.53,3.12-7.52L199.29,189.58z"/>
		</defs>
		<use xlink:href="#SVGID_00000019680601217893336800000009200246044333584285_"  style="overflow:visible;fill:#662D91;"/>
		<clipPath id="SVGID_00000097479423395656610980000004657559264012431011_">
			<use xlink:href="#SVGID_00000019680601217893336800000009200246044333584285_"  style="overflow:visible;"/>
		</clipPath>
		
			<linearGradient id="SVGID_00000142872012809179149530000013563004611670810815_" gradientUnits="userSpaceOnUse" x1="117.9447" y1="154.5197" x2="202.2861" y2="154.5197">
			<stop  offset="0" style="stop-color:#4D186E"/>
			<stop  offset="0.5343" style="stop-color:#5B2481"/>
			<stop  offset="1" style="stop-color:#662D91"/>
		</linearGradient>
		
			<path style="clip-path:url(#SVGID_00000097479423395656610980000004657559264012431011_);fill:url(#SVGID_00000142872012809179149530000013563004611670810815_);" d="
			M173.88,97.43c0,0,0.8,18.14-14.54,37.76c-15.62,19.99-54.03,50.59-37.24,76.4c15.62-19,80.18-81.5,80.18-81.5L173.88,97.43z"/>
		
			<linearGradient id="SVGID_00000047057966940127910740000018265982496532576933_" gradientUnits="userSpaceOnUse" x1="139.4268" y1="231.5793" x2="206.4445" y2="231.5793">
			<stop  offset="0" style="stop-color:#4D186E"/>
			<stop  offset="0.5343" style="stop-color:#5B2481"/>
			<stop  offset="1" style="stop-color:#662D91"/>
		</linearGradient>
		
			<path style="clip-path:url(#SVGID_00000097479423395656610980000004657559264012431011_);fill:url(#SVGID_00000047057966940127910740000018265982496532576933_);" d="
			M153.15,286.18c0,0-13.72-33.54-13.72-49.11c0-4.17,0.35-10.88,5.49-16.02c5.15-5.15,38.45-37.4,45.11-44.07
			c8,5.61,16.41,19.01,16.41,19.01l-43.21,47.03L153.15,286.18z"/>
	</g>
	<g>
		<defs>
			<circle id="SVGID_00000077286872000364044800000006542729200888387483_" cx="172.52" cy="70.16" r="25.44"/>
		</defs>
		<use xlink:href="#SVGID_00000077286872000364044800000006542729200888387483_"  style="overflow:visible;fill:#8DC63F;"/>
		<clipPath id="SVGID_00000098198561394930851520000002877030481322731943_">
			<use xlink:href="#SVGID_00000077286872000364044800000006542729200888387483_"  style="overflow:visible;"/>
		</clipPath>
		
			<circle style="opacity:0.5;clip-path:url(#SVGID_00000098198561394930851520000002877030481322731943_);fill:#73A533;" cx="172.52" cy="82.98" r="25.44"/>
		
			<circle style="opacity:0.5;clip-path:url(#SVGID_00000098198561394930851520000002877030481322731943_);fill:#73A533;" cx="172.52" cy="95.59" r="25.44"/>
	</g>
</g>
</svg>
