<?xml version="1.0" encoding="utf-8"?>
<!-- Generator: Adobe Illustrator 26.2.1, SVG Export Plug-In . SVG Version: 6.00 Build 0)  -->
<svg version="1.1" id="Layer_1" xmlns="http://www.w3.org/2000/svg" xmlns:xlink="http://www.w3.org/1999/xlink" x="0px" y="0px"
	 viewBox="0 0 435.6 334.8" style="enable-background:new 0 0 435.6 334.8;" xml:space="preserve">
<style type="text/css">
	.st0{fill:#8DC63F;}
	.st1{fill:#662D91;}
</style>
<g>
	<g>
		<g>
			<circle class="st0" cx="82.64" cy="88.73" r="10.04"/>
			<circle class="st0" cx="322.82" cy="88.73" r="10.04"/>
			<g>
				<path class="st1" d="M225.91,159.92c0.9-1.94,1.34-3.98,1.34-6.13v-33c0-2.15-0.41-4.18-1.22-6.1c-0.81-1.92-2.01-3.6-3.59-5.05
					c-1.58-1.45-3.47-2.63-5.66-3.54c-2.2-0.91-4.4-1.37-6.62-1.37h-31.83c-1.21,0-2.33,0.09-3.37,0.27
					c-1.04,0.18-2.1,0.5-3.17,0.95c-2.02,0.81-3.89,1.99-5.61,3.51c-1.46,1.37-2.65,3.07-3.56,5.1c-0.91,2.03-1.37,4.11-1.37,6.22
					v33c0,0.91-0.19,1.79-0.56,2.64c-0.37,0.85-0.87,1.59-1.49,2.25c-1.24,1.17-2.75,1.77-4.54,1.81h-1.41v0.04
					c-3.09-0.03-5.01-0.17-5.71-0.43c-0.78-0.29-1.48-0.76-2.1-1.42c-1.4-1.37-2.1-2.96-2.1-4.78v-49.36h-10.4v49.36
					c0,1.79-0.68,3.34-2.03,4.66c-1.24,1.21-3.9,1.86-7.93,1.96v-0.08h-1.41c-0.36,0-0.72-0.02-1.08-0.05
					c-0.33-0.06-0.76-0.2-1.32-0.39c-0.78-0.29-1.48-0.76-2.1-1.42c-1.4-1.33-2.1-2.93-2.1-4.78v-49.45h-10.45v49.45
					c0,0.94-0.17,1.82-0.51,2.64c-0.34,0.81-0.82,1.51-1.44,2.07c-0.62,0.57-1.38,1.03-2.29,1.39c-0.2,0.1-0.54,0.21-1.03,0.34
					c-0.49,0.13-0.99,0.2-1.51,0.2H65.76c-0.81,0-1.66-0.16-2.54-0.49c-0.68-0.29-1.42-0.76-2.2-1.42c-1.37-1.3-2.05-2.88-2.05-4.74
					v-33.2c0-0.65,0.03-1.16,0.1-1.51c0.07-0.36,0.2-0.76,0.39-1.22c0.36-0.65,0.89-1.35,1.61-2.1c1.3-1.24,2.86-1.86,4.69-1.86
					h9.23v-0.01h2.9c4.68,0,8.55-3.46,9.2-7.96c0,0,0.01,0,0.01,0c0.29-1.87,0.15-3.22,0.15-3.22s-0.28,1.88-11.69,1.88h-0.57v-0.1
					h-9.23c-2.44,0-4.67,0.41-6.69,1.24c-2.02,0.83-3.82,1.98-5.42,3.44c-1.59,1.46-2.85,3.21-3.76,5.25
					c-0.91,2.03-1.37,4.09-1.37,6.18v33.2c0,2.15,0.42,4.2,1.27,6.15s2.1,3.68,3.76,5.18c1.5,1.4,3.31,2.55,5.44,3.44
					c2.13,0.89,4.39,1.34,6.76,1.34h31.98c1.43,0,2.57-0.11,3.42-0.34c1.01-0.13,2.08-0.42,3.22-0.88c1.14-0.46,2.15-0.98,3.03-1.56
					c0.78-0.52,1.56-1.14,2.34-1.85c0,0,0.01,0,0.01,0c1.5,1.33,3.25,2.44,5.27,3.32c0,0,0,0,0,0c0.98,0.36,2.05,0.65,3.22,0.88
					c1.14,0.29,2.25,0.44,3.32,0.44h0.34v0.05c5.17,0,8.84-0.44,10.98-1.32c2.02-0.81,3.78-1.92,5.27-3.32
					c1.43,1.33,3.12,2.44,5.08,3.32c0,0,0,0,0,0c1.99,0.75,4.85,1.19,8.59,1.32h2.44v-0.05h0.39c2.38,0,4.52-0.41,6.44-1.22
					c1.14-0.42,2.12-0.93,2.93-1.51c0.39-0.23,0.83-0.52,1.32-0.88l1.16-0.98c1.5,1.34,3.23,2.41,5.18,3.23
					c2.08,0.88,4.3,1.32,6.64,1.32h31.83c2.47,0,4.71-0.42,6.71-1.27c2-0.85,3.78-2.02,5.35-3.51
					C223.79,163.58,225.02,161.86,225.91,159.92z M216.91,153.8c0,1.95-0.7,3.53-2.1,4.74c-0.59,0.62-1.3,1.09-2.15,1.42
					c-0.81,0.29-1.64,0.44-2.49,0.44h-31.83c-1.76,0-3.32-0.62-4.69-1.86c-0.59-0.49-1.06-1.14-1.42-1.95
					c-0.36-0.88-0.54-1.81-0.54-2.78v-33c0-1.92,0.67-3.5,2-4.74c0.55-0.55,1.29-1.04,2.2-1.46c0.75-0.29,1.56-0.44,2.44-0.44h31.83
					c0.88,0,1.68,0.18,2.39,0.54c0.71,0.26,1.48,0.72,2.29,1.37c1.37,1.3,2.05,2.88,2.05,4.74V153.8z"/>
				<path class="st0" d="M369.99,114.64c-0.88-1.92-2.1-3.62-3.66-5.1c-1.56-1.48-3.4-2.67-5.52-3.56
					c-2.12-0.89-4.35-1.34-6.69-1.34h-62.57c-2.41,0-4.66,0.45-6.76,1.34c-2.1,0.9-3.93,2.08-5.49,3.56
					c-1.56,1.48-2.78,3.18-3.64,5.1c-0.86,1.92-1.29,3.97-1.29,6.15v12.5c0,2.15,0.45,4.19,1.34,6.13c0.89,1.94,2.11,3.65,3.64,5.13
					c1.53,1.48,3.34,2.66,5.44,3.54c2.1,0.88,4.35,1.32,6.76,1.32h62.57c1.63,0,3.17-0.18,4.61-0.54l2.12-0.53h0v5.55
					c0,1.79-0.67,3.37-2,4.74c-1.27,1.27-2.85,1.9-4.74,1.9h-90.27h-1.42c-0.72,0-1.48-0.16-2.29-0.49c-0.85-0.33-1.58-0.8-2.2-1.42
					c-1.4-1.24-2.1-2.78-2.1-4.64v-49.45h-10.4v65.27c0,0.88-0.2,1.72-0.59,2.54c-0.39,0.85-0.87,1.55-1.44,2.1
					c-0.57,0.55-1.33,1.03-2.27,1.42c-0.36,0.13-0.78,0.26-1.27,0.39c-0.17,0.05-0.5,0.08-0.89,0.11l-7,0
					c-4.68,0-8.55,3.46-9.2,7.96c0,0-0.01,0-0.01,0c-0.29,1.87-0.15,3.22-0.15,3.22s0.28-1.88,11.69-1.88l4.86,0
					c0.62,0.02,1.23,0.04,1.9,0h0.14c0,0,0,0,0-0.01c1.09-0.08,2.34-0.34,4.09-1.12c2.1-0.93,3.99-1.95,5.54-3.42
					c1.55-1.46,2.77-3.18,3.66-5.15c0.89-1.97,1.34-4.03,1.34-6.18v-0.98c1.33,0.75,4,1.12,8.01,1.12v-0.09l90.27,0.14
					c2.41,0,4.67-0.44,6.79-1.32c2.12-0.88,3.94-2.06,5.47-3.54c1.53-1.48,2.73-3.19,3.61-5.13c0.88-1.94,1.32-3.98,1.32-6.13v-33.1
					C371.31,118.62,370.87,116.57,369.99,114.64z M360.86,133.29c0,1.79-0.67,3.37-2,4.74c-1.27,1.27-2.85,1.9-4.74,1.9h-62.57
					c-1.79,0-3.37-0.62-4.74-1.85c-0.65-0.55-1.16-1.25-1.51-2.1c-0.36-0.85-0.54-1.74-0.54-2.68v-12.5c0-1.95,0.68-3.56,2.05-4.83
					c1.3-1.24,2.88-1.85,4.74-1.85h62.57c1.86,0,3.44,0.64,4.76,1.93c1.32,1.29,1.98,2.87,1.98,4.76V133.29z"/>
				<rect x="108.54" y="178.19" class="st1" width="32.29" height="9.09"/>
			</g>
		</g>
		<path class="st1" d="M54.5,87.39"/>
	</g>
	<g>
		<g>
			<path class="st1" d="M370.04,222.53c-0.85-1.95-2.1-3.68-3.76-5.18c-1.5-1.4-3.31-2.55-5.44-3.44c-2.13-0.89-4.39-1.34-6.76-1.34
				H322.1c-1.43,0-2.57,0.11-3.42,0.34c-1.01,0.13-2.08,0.42-3.22,0.88c-1.14,0.46-2.15,0.98-3.03,1.56
				c-0.78,0.52-1.56,1.14-2.34,1.85c0,0-0.01,0-0.01,0c-1.5-1.33-3.25-2.44-5.27-3.32c0,0,0,0,0,0c-0.98-0.36-2.05-0.65-3.22-0.88
				c-1.12-0.29-2.22-0.43-3.28-0.44v9.47c0.35,0,0.69,0.02,1.04,0.05c0.33,0.06,0.76,0.2,1.32,0.39c0.78,0.29,1.48,0.76,2.1,1.42
				c1.4,1.33,2.1,2.93,2.1,4.78v49.45h10.45v-49.45c0-0.94,0.17-1.82,0.51-2.64c0.34-0.81,0.82-1.51,1.44-2.07
				c0.62-0.57,1.38-1.03,2.29-1.39c0.2-0.1,0.54-0.21,1.03-0.34c0.49-0.13,0.99-0.2,1.51-0.2h31.98c0.81,0,1.66,0.16,2.54,0.49
				c0.68,0.29,1.42,0.76,2.2,1.42c1.37,1.3,2.05,2.88,2.05,4.74v33.2c0,0.65-0.03,1.16-0.1,1.51c-0.07,0.36-0.2,0.76-0.39,1.22
				c-0.36,0.65-0.89,1.35-1.61,2.1c-1.3,1.24-2.86,1.86-4.69,1.86h-9.23v0.01h-2.9c-4.68,0-8.55,3.46-9.2,7.96c0,0-0.01,0-0.01,0
				c-0.29,1.87-0.15,3.22-0.15,3.22s0.28-1.88,11.69-1.88h0.57v0.1h9.23c2.44,0,4.67-0.41,6.69-1.24c2.02-0.83,3.82-1.98,5.42-3.44
				c1.59-1.46,2.85-3.21,3.76-5.25c0.91-2.03,1.37-4.09,1.37-6.18v-33.2C371.31,226.53,370.89,224.48,370.04,222.53z"/>
			<path class="st0" d="M150.34,217.39c-1.53-1.48-3.35-2.66-5.47-3.54c-2.12-0.88-4.38-1.32-6.79-1.32l-29.79,0.13V222h29.79
				c1.89,0,3.47,0.63,4.74,1.9c1.33,1.37,2,2.95,2,4.74v5.55h0l-2.12-0.53c-1.45-0.36-2.99-0.54-4.61-0.54h-31.93
				c-2.41,0-4.66,0.44-6.76,1.32s-3.91,2.06-5.44,3.54c-1.53,1.48-2.74,3.19-3.64,5.13c-0.9,1.94-1.34,3.98-1.34,6.13v12.5
				c0,2.18,0.43,4.23,1.29,6.15c0.86,1.92,2.07,3.62,3.64,5.1c1.56,1.48,3.39,2.67,5.49,3.56c2.1,0.89,4.35,1.34,6.76,1.34h31.93
				c2.34,0,4.57-0.45,6.69-1.34c2.12-0.9,3.95-2.08,5.52-3.56c1.56-1.48,2.78-3.18,3.66-5.1c0.88-1.92,1.32-3.97,1.32-6.15v-33.1
				c0-2.15-0.44-4.19-1.32-6.13C153.07,220.58,151.87,218.87,150.34,217.39z M144.82,261.74c0,1.89-0.66,3.47-1.98,4.76
				c-1.32,1.29-2.9,1.93-4.76,1.93h-31.93c-1.86,0-3.43-0.62-4.74-1.85c-1.37-1.27-2.05-2.88-2.05-4.83v-12.5
				c0-0.94,0.18-1.84,0.54-2.68c0.36-0.85,0.86-1.55,1.51-2.1c1.37-1.24,2.94-1.85,4.74-1.85h31.93c1.89,0,3.47,0.63,4.74,1.9
				c1.33,1.37,2,2.95,2,4.74V261.74z"/>
			<path class="st1" d="M256.74,217.22l-1.16-0.98c-0.49-0.36-0.93-0.65-1.32-0.88c-0.81-0.59-1.79-1.09-2.93-1.51
				c-1.92-0.81-4.07-1.22-6.44-1.22h-0.39v-0.05h-2.44c-3.74,0.13-6.61,0.57-8.59,1.32c0,0,0,0,0,0c-1.95,0.88-3.64,1.99-5.08,3.32
				c-1.5-1.4-3.26-2.51-5.27-3.32c-2.15-0.88-5.81-1.32-10.98-1.32v0.05h-0.34c-1.07,0-2.18,0.15-3.32,0.44
				c-1.17,0.23-2.24,0.52-3.22,0.88c0,0,0,0,0,0c-2.02,0.88-10.5,5.67-10.5,14.79c0,6.77,0,49.45,0,49.45h10.45v-49.45
				c0-1.86,0.7-3.45,2.1-4.78c0.62-0.65,1.32-1.12,2.1-1.42c0.55-0.2,0.99-0.33,1.32-0.39c0.36-0.03,0.72-0.05,1.08-0.05h1.41v-0.08
				c4.04,0.1,6.69,0.75,7.93,1.96c1.35,1.32,2.03,2.87,2.03,4.66v49.36h10.4v-49.36c0-1.82,0.7-3.42,2.1-4.78
				c0.62-0.65,1.32-1.12,2.1-1.42c0.71-0.26,2.62-0.41,5.71-0.43v0.04h1.41c1.79,0.03,3.3,0.63,4.54,1.81
				c0.62,0.65,1.11,1.4,1.49,2.25c0.37,0.85,0.56,1.72,0.56,2.64v49.26h10.45v-49.26c0-0.98,0.18-1.9,0.54-2.78
				c0.36-0.81,0.83-1.46,1.42-1.95c1.11-1.01,2.36-1.6,3.73-1.78v-9.5c-1.99,0.1-3.89,0.52-5.68,1.27
				C259.97,214.8,258.24,215.88,256.74,217.22z"/>
			<path class="st0" d="M60.98,223.9c1.27-1.27,2.85-1.9,4.74-1.9h17.46v-0.01l6.8,0c4.59,0,8.39-3.4,9.03-7.81c0,0,0.01,0,0.01,0
				c0.29-1.84,0.15-3.16,0.15-3.16s-0.27,1.84-11.47,1.84l-4.52,0v-0.28c-0.14,0-0.27-0.01-0.41-0.01v0.09l-17.05-0.14
				c-2.41,0-4.67,0.44-6.79,1.32c-2.12,0.88-3.94,2.06-5.47,3.54c-1.53,1.48-2.73,3.19-3.61,5.13c-0.88,1.94-1.32,3.98-1.32,6.13
				v48.29c0,0.33,0.03,0.66,0.05,0.99l10.4-10.4v-18.27c0-1.79,0.67-3.37,2-4.74c1.27-1.27,2.85-1.9,4.74-1.9h16.25v-9.47H65.71
				c-1.63,0-3.17,0.18-4.61,0.54l-2.12,0.53h0v-5.55C58.97,226.84,59.64,225.26,60.98,223.9z"/>
			<path class="st0" d="M198.98,198.2c0,0,0.01,0,0.01,0c0.29-1.87,0.15-3.22,0.15-3.22s-0.28,1.88-11.69,1.88l-4.86,0
				c-0.62-0.02-1.23-0.04-1.9,0h-0.14c0,0,0,0,0,0.01c-1.09,0.08-2.34,0.34-4.09,1.12c-2.1,0.93-3.99,1.95-5.54,3.42
				c-1.55,1.46-2.77,3.18-3.66,5.15c-0.89,1.97-1.34,4.03-1.34,6.18v0.98c-1.17-0.66-3.37-1.02-6.59-1.11v9.4
				c0.72,0,1.48,0.16,2.29,0.49c0.85,0.33,1.58,0.8,2.2,1.42c1.4,1.24,2.1,2.78,2.1,4.64v49.45h10.4v-65.27
				c0-0.88,0.2-1.72,0.59-2.54c0.39-0.85,0.87-1.55,1.44-2.1c0.57-0.55,1.33-1.03,2.27-1.42c0.36-0.13,0.78-0.26,1.27-0.39
				c0.17-0.05,0.5-0.08,0.89-0.11l7,0C194.46,206.16,198.33,202.7,198.98,198.2z"/>
			<rect x="277.76" y="222.38" class="st1" width="10.4" height="55.7"/>
		</g>
		<circle class="st0" cx="282.96" cy="202.53" r="10.04"/>
	</g>
</g>
</svg>
