<?xml version="1.0" encoding="utf-8"?>
<!-- Generator: Adobe Illustrator 27.0.1, SVG Export Plug-In . SVG Version: 6.00 Build 0)  -->
<svg version="1.1" id="Layer_1" xmlns="http://www.w3.org/2000/svg" xmlns:xlink="http://www.w3.org/1999/xlink" x="0px" y="0px"
	 viewBox="0 0 2967.4 886.5" style="enable-background:new 0 0 2967.4 886.5;" xml:space="preserve">
<style type="text/css">
	.st0{fill:#E6E6E7;}
	.st1{fill-rule:evenodd;clip-rule:evenodd;fill:#5C328A;}
</style>
<polygon class="st0" points="2967.4,111.5 2954.6,115.5 2928.8,123.8 2890.7,133.1 2842.3,143.2 2802.6,145.5 2769.7,141.4 
	2702.2,143 2648.3,153.8 2604.4,166.7 2563.9,178.9 2538.5,186.5 2515.2,193.4 2491.5,200.6 2467,207.8 2442.1,215.2 2418.5,222.3 
	2392.9,230 2359.5,240.2 2325.8,250 2283,262.3 2262.2,268 2250.6,272.7 2213,283 2193.8,293 2162.9,316.5 2151.4,320 2085.2,332.7 
	2040.4,344.4 2002.1,365.3 1956.1,389.8 1933.1,397.1 1904.6,399.5 1867.5,399 1828.7,402.7 1774.3,415 1738.3,425.3 1687.9,435.5 
	1650.6,450.1 1600.6,474.1 1517.2,509.7 1469.7,525.4 1429.7,530.2 1389.3,531 1351.3,536 1305.4,549.3 1249.1,572.5 1164.3,606.3 
	1155.4,606.1 1058.6,626.6 1009.1,631.5 963.1,629.8 939.3,634.5 905.7,649.5 855.4,673.5 814.3,682.4 753.7,691.9 737.1,702.3 
	715.7,717.1 692.7,723.1 555.1,759.4 468,782.1 410.2,797 344.4,814 298.1,823.9 250.2,826.7 188.9,820.3 156.1,821.7 106.2,830.6 
	36.3,848.8 0,859.4 0,0 2967.4,0 "/>
<path class="st1" d="M1372.1,531c-32,3.8-62.3,14.1-91.9,26.2c-33.3,13.7-66.6,27.5-99.9,41.2c-6.1,2.5-12.5,4.1-18.7,6.1
	c-0.2-0.5-0.3-0.9-0.5-1.3c1-0.6,2-1.1,3-1.5c29.9-9.8,57.8-24.8,82.5-44.3c45.1-35.2,77.5-79.5,96.8-133.5
	c25.2-70.3,22.2-147.6-8.2-215.8c-13.1-29.7-31.2-57-53.5-80.6c-29.3-31.3-65.1-55.8-104.9-71.9c-28.6-11.8-58.8-18.9-89.6-21
	c-2-0.1-4.1-0.2-6.1-0.3c-162-7.5-299.4,117.8-306.8,279.8c-0.3,5.3-0.4,10.8,3.1,14.2c-0.6,3.2-1.3,5.6-1.5,8.1
	c-1.1,14.3-1.7,28.7-3.2,42.9c-0.8,7.7-10,15.2-17.7,16.4c-6.3,0.9-12.6,2.1-18.8,3.7c-18.4,5-36.9,9.3-56,10.7
	c-2.1,0.2-4.2,1.6-6.3,1.6c-5.1,0-10.2-0.3-15.4-0.2c-3.1,0.1-6.4-2.8-9.3-4.2c0.5-1.4,0.8-2.9,1-4.4c0.4-4.5,1.4-5.5,5.7-4.5
	c4.5,1,9.2-0.2,12.6-3.3c7.4-6,10.4-14.1,11.4-23.2c0.2-1.6-0.8-3.3-1.3-5c-1.3,1.2-3.2,2.2-3.9,3.8c-2.8,5.7-5,11.8-8,17.4
	c-0.4,0.8-0.8,1.4-1.4,2.1c-3.7,4.4-10.2,4.9-14.5,1.2c-5.3-5-10.2-10.2-14.9-15.7c-0.6-1.1-0.5-2.5,0.1-3.6
	c2.8-3.2,3.1-6.7,2.4-10.6c-0.6-2.7-0.9-5.4-0.8-8.2c0.1-1.5,2-2.8,3-4.1c1.1,1.4,2.8,2.6,3.2,4.2c0.5,2.5-0.3,5.3,0.2,7.8
	c0.3,1.8,1.4,3.3,2.9,4.2c0.9,0.4,3.3-1,4.1-2.2c4.9-7.7,9.4-15.6,14.2-23.2c1-1.6,2.9-3.9,4.2-3.7c4.3,0.3,8.4,1.4,12.2,3.3
	c0.9,0.5-0.8,5.8-1.4,9c0,0.1-0.2,0.2-0.2,0.4c0,1-0.1,1.9-0.1,2.8c1,0,2.4,0.5,3.1,0c2.5-1.7,5.3-3.3,7-5.6
	c5.9-8,4.1-20.1-3.9-27.7c-7.4-6.8-16.2-11.9-25.8-15c-7.8-2.7-15.2-1.6-21.4,4.4c-1.2,1-2.7,1.7-4.2,1.9c-17.7,3.9-29.2,21.2-26,39
	c1.8,10.1,3.2,20.3,4.5,30.5c0.8,5.8,0.5,5.8-5.3,5.8c-17.8,0-32.1,6.4-41.7,22.2c-13,21.4-30.4,39.1-48.2,56.4
	c-13.5,13.2-27.2,26.2-40.6,39.5c-6.5,6.4-6.2,6.6-0.6,13.6c-6.6,8.6-10.2,19.1-10.2,29.9c0.1,11-3.2,20.9-7.3,30.6
	c-7.4,17.2-15.2,34.2-23.1,51.2c-1.5,3.2-4.2,5.8-6.5,8.6c-1.9,2.3-4.6,4.1-6.1,6.7c-5.6,9.5-10.9,19.2-16.3,28.8
	c-8.5,15.2-17.4,30.1-29.8,42.7c-7.1,7.2-13.4,15.3-19.8,23.2c-3.2,4-2.8,6,0.9,9.3c1.4,1.2,3,2.2,4.8,3c4.8,2.3,9.8,4.5,14.6,6.8
	c1.9,0.9,3.8,1.8,2.6,4.5c-0.1,0.2-0.1,0.4-0.2,0.6c-1,1.9-3.2,2.6-5.1,1.7c-1.8-0.6-3.5-1.4-5.1-2.5c-4.8-3.2-9.4-6.7-14.2-10
	c-3.8-2.6-5.8-2.3-7.6,1.9c-2.5,5.7-4.6,11.6-6.3,17.6c-2.3,9.1,0.4,13.9,9.1,17.5c1.6,0.7,3.3,1.2,5,1.4
	c9.4,0.9,15.3,8.5,23.5,11.9c-1.6,0.8-3.3,1.5-5.1,1.9c-11.7,3-23.4,5.9-35,9.1c-44.4,12.2-91,14.6-136.5,6.8
	c-10.9-1.7-22-2.1-33-1.3c-29.2,1.9-57.8,8.1-86.1,15.5c-27.8,7.3-56,14.7-84,23v3.7c1.9-0.5,3.8-1.1,5.7-1.6
	c17.6-5,35.3-10,53-14.8c31-8.5,62.2-16.1,94.1-20.3c17.6-2.4,35.1-3.3,52.9-0.2c41.2,7.2,83.6,5.7,124.2-4.6
	c29.7-7.5,59.3-15.2,89-22.9c41.1-10.6,82.1-21.3,123.2-32c40.9-10.7,81.8-21.3,122.6-31.9c12.4-3.2,24.8-6.2,37.2-9.5
	c6-1.6,12.4-2.8,17.6-5.9c9.1-5.4,17.5-12,26-18.3c4.4-3.3,9.5-5.5,15-6.4c16.7-2.6,33.2-5.4,49.9-8c19.5-3.1,39.3-5.5,57.4-14
	c14.8-7,29.5-14.5,43.9-22.3c22.8-12.3,46.5-18.5,72.8-16.2c30.2,2.6,60.4-0.2,90.2-6.3c26.6-5.4,52.4-14.1,79.6-16.6
	c20.1-1.9,38.1-11,56.5-18.5c30.9-12.6,61.5-26.2,92.7-38.1c38.2-14.6,77.8-22.6,119.1-19.5l0.4-3.8
	C1406,529.5,1388.9,529,1372.1,531z M767.8,393c5.9-4,9.4-10.6,9.6-17.7c0.8-13,1.5-26,2.2-39c0-1,0.2-2,0.3-3h1.3
	c0.3,0.9,0.6,1.8,0.7,2.8c-0.7,14.5-1.5,28.9-2.1,43.4c-0.4,9-6.7,12.8-14.1,15.7C766.4,394.3,767.1,393.7,767.8,393z M885,362.2
	c16.7,3.7,28.2,13.5,35.6,28.7c28.4,58.7,75.1,91.8,140.2,95.4c50.8,2.8,94-16.3,127.8-54.5c27.8-31.3,41.8-68.4,39.8-110.3
	c-3-62.2-32-109.6-87.6-138.4c-50.7-26.3-102.4-24.3-152.1,3.1c-43,23.8-69,61.2-79,109.4c-0.1,0.5-0.3,1.1-0.7,2.2
	c-18.9-9.5-38.5-13.2-59.8-12.3c0.7-3.6,1.1-6.8,1.8-9.8c18-70.8,59.5-122.8,126.4-152.6c60.5-27,121.9-26,182.3,1
	c47.3,21.2,82.7,55.5,106.4,101.5c28.3,56,31.6,121.3,9.1,179.8c-20.1,50.9-54,89.9-102.2,116.2c-52.1,28.1-113.2,34.2-169.8,16.8
	c-52.6-16.2-93.7-47.4-123.3-93.6c-6.8-11-12.7-22.5-17.7-34.4c-8.4-19.6-22.1-32.9-42.8-38.3c-9.8-2.6-17.2-7.6-21.5-16.8
	c-1.4-3.3-2.4-6.8-3-10.3c-0.7-3.5-0.7-7.2-1.4-10.8c-1.5-7.4-4.5-9.3-11.3-7.5c-3.9-7.8-0.3-13.3,5.7-17.8
	c11.8-9,25.6-13.6,39.9-16.7c5.2-1.1,10.5-1.7,16.4-2.7c-0.6,5-1.1,9.3-1.5,13.6C839.6,331.4,857.2,356,885,362.2z M1026.2,351.5
	c18.7,28.2,55.2,31.3,78.1,6.6c21.2-22.9,13.3-61.7-14.7-75.6c-0.8-0.4-1.7-0.8-2.6-1.2c-25.2-10.5-54.2,1.4-64.7,26.6
	c-3.9,9.2-4,18.9-2.1,28.7c0.2,0.8,0.3,1.6,0.3,1.7c-6.8-2.2-13.3-4.6-20-6.2c-20.1-4.8-31.2-28.7-21.8-47.5
	c12-24,30.1-41.2,55.5-50.6c38-14.1,83.4-2.1,109,29.6c23.7,29.5,29.1,62.7,15.8,97.9c-20,52.7-79.6,76.7-131.4,53.8
	c-20.4-8.7-37-24.4-47-44.2c-7.4-14.5-18.8-23.5-34.8-27c-18.4-4.2-31.8-20.2-32.6-39c2.8,1.9,5.3,3.3,7.5,5.2
	c17,14.2,36.4,25.2,57.3,32.5c11,3.7,22.1,6.4,33.8,5.5c1.6-0.1,3.4,0.1,4.7-0.6C1021.6,344.7,1023.8,348,1026.2,351.5z
	 M1023.6,317.6c0-0.1,0-0.2,0.1-0.3c4.8-24.3,28.5-40.1,52.8-35.2c24.3,4.8,40.1,28.5,35.2,52.8c-4.8,24.3-28.5,40.1-52.8,35.2
	C1034.3,364.7,1018.9,344,1023.6,317.6z M946.5,348.2c12.9,2.5,23.9,10.9,29.8,22.7c13.7,26.1,34.3,43.9,62.6,52.7
	c40.6,12.6,88.4-3.9,112.1-39.3c22.9-34.3,25.6-70.6,5.7-106.7c-19.7-35.7-51.3-54.2-92.6-52.7c-40.2,1.5-69.6,21.4-87.9,56.9
	c-10.2,19.8-2.3,42.6,17.2,51.6c4,1.9,8.7,2.4,12.9,3.9c3.9,1.4,7.6,3.2,11.4,4.8c-0.2,0.5-0.3,0.9-0.5,1.4
	c-10.9,2.6-21.6,0.6-32.1-2.5c-23.4-6.8-44.1-18.6-62.8-34c-0.4-0.4-0.9-0.8-1.4-1c-7.8-3.4-8.2-8.9-6.2-16.5
	c15.5-57.5,51.2-96.3,108.3-113.8c64.7-19.7,134.8,4.6,173.4,60.3c18.8,27.1,28.8,57.3,28.1,90.4c-1.3,61.9-29.4,108.4-83.3,138.3
	c-33.2,18.4-69.2,23-106.5,14.7c-51.2-11.5-87.9-41.2-110.4-88.5c-8.4-17.6-21.4-28.6-40.7-32.8c-23.5-5.1-39.8-27.8-37.6-51.7
	c0.4-4.5,1.2-8.9,1.6-13.4c0.2-2.5,1.1-3.5,3.8-3.6c18.5-0.9,37,2.9,53.7,11c1.9,1,3.3,2.8,3.9,5
	C911.2,326.8,925.2,343.4,946.5,348.2z M763.4,401.2c3.2-2,6.6-3.7,10-5.3c6.9-3.4,9.9-9.2,10.3-16.4c0.7-15,1.2-30.1,1.8-45.1
	c0-1,0.1-2,0.1-3.1l0.9-0.2c0.5,0.6,0.9,1.3,1.1,2c3,12.5,6,25,8.8,37.6c1.6,7.5,1.8,14.8-2,22c-3.2,6.1-8.8,9.1-14.2,12.4
	c-5.1,3.1-10.7,5.6-16.4,8.6c-1-3.1-1.7-6.3-2.3-9.5C761.6,403,762.3,401.8,763.4,401.2z M612.4,345.4c-1.3-14.9,7.4-29.4,24.8-32.3
	c1.7-0.3,3.2-1.1,4.4-2.4c3.5-4.1,9-5.9,14.2-4.6c11,2.4,21.1,7.9,29.1,15.8c4.8,4.7,7.7,14.7,2.3,21.8l0,0l0,0l0,0
	c-0.7-7.3-4.2-10.4-12.6-11.5c-7.1-1-10.3,1.3-13.4,7.6c-3.5,6.9-7.8,13.3-11.8,19.9l-1.2-0.4c0-1,0-2.1-0.1-3.1
	c-0.4-2.4-0.4-5.1-1.7-7c-1.2-1.8-4-4-5.7-3.7c-2.6,0.7-4.7,2.4-6,4.7c-1.1,2.1-0.7,5-0.6,7.6c0.1,2.1,0.9,4.3,1,6.4
	c0.2,3.4-1.1,5.5-5,6.3c-3.2,0.8-6.2,2.3-8.8,4.3c-1,0.7-0.8,3-1.2,4.5c1.4,0.2,3,1,4.2,0.6c2.4-1,4.7-2.2,6.9-3.6
	c5.8,6.3,11.5,12.5,17.4,18.9c-0.5,2.2-1.2,4.3-2.2,6.4c-0.9,1.2-2.4,1.8-3.9,1.7c-2.1-1-3.9-2.4-5.5-4.1
	c-3.9-3.9-7.5-8.1-11.6-11.8c-2.3-1.8-4.7-3.4-7.3-4.8C616.3,370.8,613.5,358.2,612.4,345.4z M636.3,403.2
	c-6.9-0.2-14.5-6.8-17.5-15.4C626,391.1,630.2,397.8,636.3,403.2z M477.1,511.1c-0.3-0.6-0.6-1.3-0.8-2c11.2-10.8,22.2-22.3,34-32.8
	c17.6-15.6,33-33,48.3-50.8c5.1-5.9,8.9-12.9,13.2-19.4c9.5-14.5,23.9-17.8,40-17.1c1.8,0.1,3.5,2.2,5.2,3.4l-0.7,1.1
	c-1.8-0.3-3.5-0.8-5.3-1c-8.6-0.8-18.4,5.6-21.1,13.8c-0.1,1.1,0,2.1,0.3,3.2c1.1-0.2,2.2-0.5,3.2-1.1c1.5-1.1,2.6-2.7,4-4
	c5.3-4.9,11.4-6.7,18.5-4.1c5.2,1.9,10.3,4,15.5,5.8c6.2,2.1,12.5,3.8,18.7,5.8c1.8,0.4,3.6,1.1,5.2,2c3.1,2,6.1,3.5,9.5,0.8
	c0.5-0.3,1.1-0.5,1.6-0.3c5.3,4.6,10-0.5,15-0.8c5.4-0.2,10.7-0.9,16-1.8c13.8-2.9,27.5-6.3,41.2-9.4c5-1.1,10-2.1,15-2.8
	c1.4,0.1,2.6,0.9,3.3,2.1c1.6,5,2.8,10.1,4.1,15.1c1,3.7,0.1,6.1-4,7.1c-16,3.8-31.9,7.7-47.8,11.6c-5.4,1.3-10.7,3-16.1,3.8
	c-6.4,1-12.9,1.5-19.4,1.9c-6.9,0.6-13.8,0.8-20.7,0.6c-5.3-0.3-10.5-2.1-15.8-2.8c-7.3-1.1-14.7-2.8-22-2.4
	c-8.3,0.4-13.4-3.2-17.8-9.3c-1.1-1.1-2.4-2-3.8-2.7c-0.3,1.4-0.5,2.9-0.6,4.4c0.1,1.3,0.3,2.6,0.6,3.9c1.8,8.4,4,10.4,12.7,11
	c-2.5,6.4-4.9,12.7-7.3,19c-7.7,20.1-15.4,40.1-23.1,60.2c-3.4,8.8-6.5,17.7-10.3,26.4c-2.5,5.8-8.2,7.6-14.1,7.7
	c-10,0.3-18.6-4.3-26.9-9.1C506.8,538,491.6,525,477.1,511.1z M606.6,542.1c-0.1,1.8-0.8,3.5-1.8,5c-0.3,0.4-2.7-0.6-4-1.2
	c-2-1.1-4-2.4-5.9-3.7c-6.8-4.3-6.7-4.3-4.6-12.2c4.5-16.6,13-31.2,21.8-45.7c3.7-6.1,7.7-12.1,11.6-18.2l1.2,0.7
	c-3,6.1-5.7,12.3-9,18.2c-7.3,13.1-8.9,27.5-9.5,42C606.2,532,606.7,537.1,606.6,542.1z M587.8,542.2l14.7,9.2l-3.6,5.6
	c-3.9-2.5-7.9-4.4-11-7.2c-1.4-1.3-1.1-4.5-1.6-6.9C586.8,542.7,587.3,542.4,587.8,542.2z M584.7,535.8l-7.5-5.1l14.1-17.7
	c0.2,0.1,0.3,0.2,0.5,0.4L584.7,535.8z M610.4,479.3c-6.5,10.1-13.6,19.8-20.5,29.6c-0.8,1-1.7,1.8-2.7,2.6l-0.6-0.5
	c2.9-5,5.6-10,8.6-14.9c10.7-17.2,21.5-34.4,32.3-51.6c0.9-0.9,2-1.7,3.2-2.2c0.1,1.2,0,2.5-0.4,3.7
	C623.7,457.2,617.4,468.4,610.4,479.3z M590.6,494c0.6-1.7,1.1-3.5,1.8-5.2c5.1-13.1,10.5-26.1,15.3-39.3c1.8-4.9,5-6.8,9.8-6.8
	c1.8,0,3.7-0.2,6.6-0.4l-32.7,52.1C591.2,494.3,590.9,494.1,590.6,494z M362,745.3c-3-1.5-2.2-3.7-0.5-5.7
	c5.9-7,11.4-14.3,17.9-20.8c14.4-14.4,24.3-31.7,34-49.2c3.7-6.6,7.2-13.3,11.2-19.7c2.4-3.9,5.9-7,8.6-10.8
	c3.1-4.3,5.9-8.8,8.4-13.5c5.3-10.5,10.3-21.1,15.1-31.9c4.2-9.1,7.9-18.4,11.1-27.9c1.7-5.8,2.5-11.9,2.6-17.9
	c0.4-9,3-17.8,7.5-25.6c5.2,4.3,10.1,8.3,15,12.2c13,10.2,26.5,19.5,42.1,25.1c5.2,1.9,10.5,3.2,16,4c6.4,1,11.5-1.6,15-7.4
	c4-6.7,8.1-13.2,12.3-19.9c5.4,2.1,5.8,2.6,4.1,8.8c-1,2.7,0,5.7,2.5,7.2c4.2,2.9,8.5,5.6,12.9,8c1,0.5,3.4-0.5,4.5-1.5
	c1.4-1.6,2.6-3.4,3.6-5.3c12.1,7,23.8,13.6,35.3,20.6c5.5,3.4,6.4,9.2,5.6,15c-2.8,20.4-5.7,40.8-8.7,61.2c-2,13.5-4.1,27-6.4,40.4
	c-0.4,1.4-1.4,2.4-2.8,2.9c-9.4,0.1-18.9,0-28.3-0.1c-3.4,0-4.8-1.3-4.6-5c0.8-26.5,5.9-52.2,13.5-77.4c0.8-2.7,1.8-3.8,4.6-2.2
	c1,0.5,2.2,0.7,3.3,0.5c1-0.2,1.8-0.8,2.2-1.7c0.1-1-0.3-1.9-1-2.6c-0.8-0.7-1.8-1.4-2.8-1.9c0-0.4,0.1-0.7,0.1-1.1
	c2.4-0.1,4.8-0.5,7.1-1c1.4-0.4,3.7-2,3.6-2.8c-0.4-3-1.3-5.8-2.8-8.4c-0.4-0.8-3.2-0.8-4.6-0.3c-1.8,0.7-3.4,1.7-4.7,3.1
	c-3.6,3.5-8.9,4.8-13.8,3.4c-11.5-3.2-22.9-6.5-34.1-10.4c-9.6-3.3-18.9-7.5-28.3-11.3c-6.6-2.7-8.8-2.5-13.1,3.3
	c-4.7,6.2-8.7,13-12.9,19.6c-8.3,12.8-17.5,24.9-27.5,36.4c-9.9,11.3-17.6,24.4-26.4,36.7c-8.6,12-17.3,24-26.3,35.7
	c-8.7,11.3-17.9,22.1-26.7,33.3c-1.7,2.4-3,5-3.9,7.7c-1.8,4.8-5,6.7-10.1,7.6C379.9,757.1,371.3,750.1,362,745.3z M614.8,704.8
	c-2.4,6.7-13.6,14.4-20.8,14.6c-3.3,0.1-4.2-1-3.3-4c0.6-2.1,0.8-4.3,1.2-6.4h0.2l0,0c0.2-0.7,0.3-1.4,0.5-2.1
	c2.3-9.4,2.3-9.4,12.2-8.9c2,0.1,4,0.3,6.1,0.5C614.3,698.8,615.9,701.4,614.8,704.8z M614.4,597.8l7.3-5.4c0.6,1.9,1.1,3.3,1.7,5
	l-8.5,1.2C614.7,598.3,614.5,598.1,614.4,597.8z M421.1,788c-1.8,2.2-4.1,4.6-6.6,5.4c-7,2.3-14.2,4.1-21.4,5.5
	c-8.4,1.6-15.6-2-22.4-6.6c-4.2-2.9-8.3-5.5-13.8-5.9c-3-0.2-6-2.1-8.6-3.8c-1.6-1.2-2.6-3-2.7-5c0.3-8.2,3.1-15.8,7-23.3
	c6.4,4.3,12,8.6,18,12c7.2,4,10,3.2,15-3.2c2.5,3.1,4.8,6.1,7.3,9.1c4.6,5.3,10.1,8.5,17.5,7.9c2.9-0.1,5.8,0.2,8.6,1.1
	C422.8,782.2,423.7,784.8,421.1,788z M424.4,791.2c3.3-9.7,1.1-13.2-8.2-14.7c-1.6-0.4-3.2-0.5-4.8-0.4c-8.4,1.5-13.8-3.1-18.3-9.2
	c-1.8-2.7-3.4-5.4-4.9-8.2c0.7-0.1,1.3-0.2,2-0.2c6.3,0.3,11.7-2.2,13.8-8c4.1-11,12.3-18.9,19.2-27.8c8.9-11.3,18.7-21.9,27.1-33.5
	c9.5-13,17.6-26.9,27-40c5.4-7.6,12.5-14.1,18-21.7c10.2-14.2,19.8-29,29.7-43.5c0.8-1.2,1.8-2.3,2.6-3.5c2.7-3.7,5.5-4.3,10-2.4
	c15.7,6.5,31.6,12.7,47.6,18.2c7.3,2.5,15.3,3,23.6,4.6c0.2,1,0.1,2.1-0.1,3.1c-8.7,19.2-11.4,39.8-14.5,60.3
	c-1.3,8.4-1.2,17-1.9,25.6c-0.4,3-0.9,5.9-1.5,8.9c-1.4,7.6-2.1,15.6-4.5,22.9c-2.2,6.4-1.2,12.2,0,18.3c0.8,2.9,1.9,5.7,3.1,8.4
	L424.4,791.2z M667.7,722.1c-2.4,4.4-5.9,7.8-10.9,8.7c-8.4,1.6-16.8,3-25.3,3.8c-6.3,0.6-12.6,2.2-18.4,4.8
	c-6.2,2.7-12.8,4.2-19.4,6.2c-1.5-1.9-2.8-2.8-3.1-4c-0.9-2.9-1.5-5.9-1.9-8.9c-1-7.3,0.1-8.9,7.4-9.4c8.3-0.5,14.9-3.3,19.1-10.9
	c1.2-2.2,2.7-3,5.7-1.4c5.9,3.1,12,5.8,18.3,8.1c5.5,2.2,11.1,1.2,16.6-0.7c2.6-1,5.2-1.8,8-2.2
	C667.6,715.7,669.5,718.7,667.7,722.1z M1072.3,622c-31.8,6.8-64,8.1-96.3,5.8c-19.7-1.4-37.8,3.4-55.1,11.8
	c-13.5,6.5-26.7,13.5-39.9,20.7c-19.5,10.5-40.4,15.8-62.1,19.1c-21.7,3.3-43.3,6.9-64.8,10.9c-4.4,0.8-8.5,4.2-12.4,6.8
	c-6.3,4.2-12.4,8.6-18.4,13.3c-5.1,3.8-11,6.4-17.3,7.7c-12.2,2.8-24.3,6.2-36.5,9.4c-0.2-0.3-0.3-0.6-0.5-0.9c0.5-0.7,1-1.3,1.5-2
	c2.1-2.6,2.2-6.2,0.5-9c-1.6-2.9-5.1-4.3-8.3-3.2c-1.1,0.2-2.3,0.5-3.3,1c-11.2,5.6-21.5,2.2-31.7-2.9c-0.7-0.5-1.5-0.9-2.3-1.2
	c-5.5-1.6-7.4-5.5-6.9-11.4c4-0.1,8-0.3,12-0.1c3.1,0.2,4.4-0.9,4.9-4c4.8-31.9,9.6-63.8,14.4-95.6c0.4-2.7,0.5-5.5,0.8-8.2
	c1.3-10.3-3.2-17.2-12.2-21.9c-8.5-4.5-16.7-9.4-25-14.2c-1.7-1-3.3-2.3-4.9-3.4l1.4-0.3c0.1-5.5,0.5-11,0.4-16.5
	c-0.1-14.3,0.6-28.5,6.7-41.8c3.8-8.5,8.2-16.6,12.3-25c2.8-5.8,5.3-11.6,7.8-17.5c0.6-1.9,0.9-3.8,1.1-5.8c2.7,0.5,5.9,1.2,9.1,1.7
	c2,0.4,4,0.6,6,0.6c5.6-0.2,11.2-1.1,16.8-0.8c9.1,0.6,18.3-0.3,27.1-2.6c19.1-5,38.4-9.2,57.6-13.9c5-1.2,10.6-2,10.6-9.3
	c0-0.8,1.8-1.7,2.9-2.3c5.9-3,11.9-5.9,18.5-9.1C806.6,473.3,844.3,526.7,901,566c56.8,39.3,119.9,56.2,188.9,52.3
	C1084.1,619.5,1078.2,620.8,1072.3,622z M1127.5,608.6c-43.7,9.4-89,8.3-132.2-3.1c-55.6-14.8-103.1-43.2-141.9-85.9
	c-29.6-32.6-51.3-71.6-63.3-114c-0.3-1-0.1-2.1,0.5-2.9c11.4-8.9,12-20.7,9.3-33.5c-0.2-1-0.3-2.1-0.4-3.2
	c6.8,7.5,16.2,8.7,24.9,11.8c16.3,5.9,27.4,17.3,34,33.5c16,39.7,43.2,74,78.2,98.7c34.3,24.6,72.6,39,114.5,41.4
	c79.9,4.6,145.5-24.8,195.4-87.4c29.6-36.8,46.2-82.4,47.2-129.6c1.9-66.9-21.6-124.2-69.8-171c-21.8-21.1-47.7-37.5-76.1-48.2
	c-50.3-19-101.1-19.6-152.1-2.8c-34.3,11.2-65.3,30.7-90.2,56.7c-29.9,30.5-50.3,69-58.9,110.8c-1,4.7-2.6,6.6-7.6,7.2
	c-19.8,2.5-38.7,8.1-54.7,20.7c-2.2,2-4.2,4.1-6.1,6.3c0.3-2.9,0.5-4.9,0.6-6.9c2.3-39.3,13-77.6,31.2-112.5
	c32.3-62.4,81-107.4,145.7-134.6c67-28.1,135.4-29.9,204.1-6.9c50.4,16.7,95.2,47.1,129.2,87.9c37,43.9,58.7,94.5,65.6,151.2
	c5.4,43.3,0.6,87.2-14,128.3c-23.5,66.1-65.3,117.3-125.4,153.7C1188.1,590.6,1158.5,602.2,1127.5,608.6z"/>
<path class="st1" d="M2967.4,109.2v4.3c-12.7,3.9-25.3,7.7-38,11.5c-32.4,9.7-65.2,18.1-99,21.5c-12.7,1.4-25.5,1.4-38.2-0.1
	c-52.9-7.1-106.8-2.5-157.7,13.6c-13.3,4.2-26.8,8-40.1,12c-1.1,0.3-2.2,0.7-3.3,1.2c-0.6,0.1-1.2,0.2-1.7,0.5
	c-3.9,1.8-8,2.5-11.7,4.5c-1.4,0.1-2.7,0.3-4,0.6c-8.1,1.8-16.1,4.2-23.9,7c-1.2-0.2-2.5,0-3.7,0.5c-2.9,1.3-8.6,3.1-8.4,2.7
	l-188.9,56.5c-0.6,0-1.1,0-1.7,0.1c-15.7,2.6-29,12-44.6,14.6c-4,0.8-7.9,2-11.7,3.6c-10.5,1.8-28.7,1.8-37.4,10.2
	c-12.9,3.9-25.7,8-38.7,11.5c-7.2,1.8-13.9,5.1-19.7,9.7c-6.7,5.6-13.6,11-20.7,16.1c-4.4,3.2-9,7.3-14.1,8.4
	c-24.8,5.6-49.7,10.7-74.6,15.4c-25,4.7-49.1,11.8-71.2,24.8c-14.9,8.8-30,17.5-45.3,25.6c-19.7,10.5-40.5,16.8-63.3,16
	c-37.5-1.3-74.7,1.5-111.2,10.8c-5.7,1.5-11.4,2.9-17.1,4.3c-6.1,0-11.6,2.2-17.1,5.2c-0.2,0.1-0.4,0.2-0.6,0.3
	c-4.7,1.1-9.5,1.8-14.2,3.1c-6.4,1.8-12.5,4.1-18.9,5.7c-11.4,3-23.5,2.3-34.7,5.8l-0.1-0.3c-7.2,2.6-14.5,4.7-21.4,7.8
	c-38,17.2-75.7,35.3-114,51.9c-102.2,44.4-133.9,36.9-133.9,36.9l-0.1-3.8c0,0,39.5,2.3,107.2-26.3c35.7-15.1,70.5-32.1,105.8-48
	c21-9.4,41.5-20.8,64.7-23.8c31.4-4.1,61-15.2,91.5-22.6c34.2-8.3,69-12.8,104.1-11.1c30.6,1.5,57.8-6.6,83.6-21.8
	c16.4-9.7,33-19,49.9-27.7c20.6-10.6,43.4-14.3,65.9-18.6c19.1-3.7,38.2-7.7,57.4-11.4c6.3-1.2,12.1-4,17.1-8.1
	c9.6-7.7,19.1-15.7,29.4-22.3c5.9-3.8,13.3-5.4,20.2-7.5c14.1-4.4,28.4-8.4,42.6-12.6c46.9-14.1,93.8-28.1,140.7-42.2
	c47.1-14.1,94.2-28.2,141.3-42.2c34-10.1,68-20.4,102.1-30.3c46.6-13.6,95.5-17.2,143.6-10.6c20.8,2.8,41,1,61.3-2.5
	c36.8-6.3,72.6-16.4,108.1-27.5C2961.6,111,2964.5,110.1,2967.4,109.2z"/>
</svg>
