<?xml version="1.0" encoding="utf-8"?>
<!-- Generator: Adobe Illustrator 27.0.1, SVG Export Plug-In . SVG Version: 6.00 Build 0)  -->
<svg version="1.1" id="Layer_1" xmlns="http://www.w3.org/2000/svg" xmlns:xlink="http://www.w3.org/1999/xlink" x="0px" y="0px"
	 viewBox="0 0 1578.7 913" style="enable-background:new 0 0 1578.7 913;" xml:space="preserve">
<style type="text/css">
	.st0{fill-rule:evenodd;clip-rule:evenodd;fill:#C7C5C6;}
</style>
<path class="st0" d="M391.5,765.1c-1.5-16.8-3.6-33.2-4.3-49.7c-0.5-11.6,0.9-23.4,1.6-35c1.2-18.5,2.5-37.1,3.8-55.6
	c0-0.2,0-0.4-0.1-0.6c-3.6-0.4-7.2-1.1-10.7-2c-4.8-1.7-6-4.8-2.7-8.6c2.9-3.1,6.2-5.7,10-7.6c1.9-1.1,2.8-1.7,2.9-4
	c2.2-33.3,4.4-66.7,6.8-100c0.7-10.2,0.3-20.8,2.9-30.5c2.3-8.5-0.8-15-2.9-22.1c-2.5-8.5-5.5-16.8-8.6-25.2
	c-0.5-1.3-2.2-2.2-3.4-3.2c-1-0.7-1.8-1.5-2.6-2.4c-19.6-30.9-39.5-61.6-58.5-92.8c-13.2-21.8-23.7-45-31.2-69.3
	c-8.4-26.1-11.7-53.5-9.8-80.9c3.1-41,20.2-75.1,51.5-101.9c20.8-17.9,44.7-30.1,70.5-38.8c21.4-7.2,43.4-12.7,65.8-14.6
	c15.9-1.3,32.2-0.5,48.2,0.8c13.7,1.3,27.4,3.4,40.9,6.5c16,3.4,30,11.5,43.2,20.9c19.8,14,36.4,31,48.6,52
	c12.5,21.3,18.5,44.2,16.8,69.1c-1.5,21.5-6.6,42.1-11.2,63c-7.1,32.1-21.6,61-37.6,89.2c-17.3,30.4-35.2,60.5-52.7,90.7
	c-2,3.4-6.5,4.6-7,9.3c-0.4,2.7-1.2,5.2-2.3,7.7c-4.1,10.8-8.2,21.6-12.4,32.4c-0.9,2.3-2.1,4.6,1.1,6.1c0.5,0.5,0.7,1.1,0.7,1.8
	c-0.4,4.4,1.8,4.6,5.2,3.4c4.4-1.7,8.9-3,13.4-4.1c3-0.6,6.1-0.5,9.1,0.2c6.8,1.6,10.3,7.5,9.2,14.4c-0.2,1.4-0.5,2.8-0.9,4.9
	c3.8,0,7,0.2,10.1-0.1c1.1-0.3,2.1-1,2.7-2c4-5.1,11.9-7.3,17.7-1.7c1.4,1.4,5.5,0.3,8.2-0.1c1.8-0.3,3.5-2,5.2-2
	c12.4-0.2,24.7-0.2,37.1-0.3c6.3,0,9.9,3,10.2,8.8c0.4,6.1-3.7,11.9-9.3,12.3c-6.3,0.4-12.6,0.3-18.9,0.4c-7,0-14,0.1-21-0.2
	c-1.5-0.1-3-1.5-4.5-2.2c-1-0.5-2.1-0.8-2.9-1.1c2.1,10.1,4.2,19.8,6.2,29.5c0.4,2,0.5,4,0.3,6c-0.3,5.7-3.4,9.2-8.9,8.5
	c-10.9-1.4-21.6-3.5-32.4-5.4c-3.3-0.6-6.5-1.5-9.8-2.2c-1.5-0.5-3.1,0.2-3.7,1.7c-0.1,0.4-0.2,0.8-0.2,1.2
	c-1.6,16.2-7,32.2-2.3,48.7c0.3,0.9-1.1,2.8-2.1,3.4c-1.4,0.6-2.8,0.8-4.3,0.7c-1.5,0-3-0.2-4.5-0.4v14.4c5.7,0.7,11.4,0.8,12.4,7.7
	c0.7,4.6-4.1,9.1-11.5,11.5c0.2,2.4,0.7,4.9,0.7,7.4c0.2,5.2,0,10.4-0.3,15.6c-0.4,4.7-3.5,7.1-8.2,7.2c-28.3,0.6-56.7,1.3-85,1.6
	c-20.4,0.2-40.8-0.1-61.3-0.2c-1.6,0-3.5-0.3-4.8,0.3c-2.4,1.2-5.3,2.5-6.4,4.7c-1.6,3-0.1,6.3,2.7,8.6c4.2,3.4,9.3,3.5,14.2,3.4
	c36.7-0.7,73.3-1.5,110-2.2c8.6-0.2,17.2-0.2,25.8-0.1c7.7,0.1,12.3,4.8,12.2,12.5c-0.1,5.9-0.8,11.8-1.2,17.7
	c-0.2,3.1-1.7,4.5-4.8,4.7c-11.7,0.6-23.3,1.7-35,2c-36,1.2-72,1.5-107.9-1.1c-5.1-0.1-10.1,0.4-15.1,1.5c-1.7,0.6-2.9,2-3.4,3.7
	c-0.6,2.5-0.8,5.8,2.4,7c3.7,1.4,7.7,2.9,11.5,3c47.4,0.9,94.8,1.5,142.2,2.2c6,0.1,5.9,0,5.2,6.1c-0.5,4.4-0.8,8.9-1.2,13.3
	c-0.9,11.1-6.8,17.7-17.8,18c-22.7,0.6-45.4,0.4-68,0.8c-14.5,0.2-29,0.8-43.5,1.5c-3,0.1-6.8-0.9-8.3,3.2c-0.9,2.6,2.2,9,5,10.9
	c16.3,11.3,17,11.6,36.8,11.9c18,0.2,36,0.5,53.9,0.1c8.6-0.2,17.1-1.8,24.2-7.4c5-4,8.8-8.6,9.1-15.5c0-1,1.2-2,1.9-3
	c0.5,1.1,1.5,2.2,1.4,3.3c-0.4,8.9-4.7,17.1-11.8,22.4c-0.5,0.4-1,0.8-2.2,1.8c6.3,2.9,11.9,6.2,18,8.1
	c20.7,6.6,41.3,13.6,62.3,18.9c20,5.1,40.4,8.8,60.7,12.4c22.7,4,45.5,7.4,68.4,10.7c14.7,2.1,29.6,3.6,44.4,5
	c27.9,2.7,55.9,5.3,83.8,7.8c11.6,1,23.3,1.8,35,2.3c37.2,1.6,74.3,3.2,111.5,4.4c16.6,0.5,33.3,0.2,49.9,0.1
	c21.3-0.1,42.7,0,64-0.5c24.4-0.6,48.9-1.5,73.3-2.9c24.3-1.4,48.5-3.4,72.7-5.6c22.6-2.1,45.2-4.3,67.7-7.3
	c22.2-2.9,44.3-6.6,66.4-10.5c16.2-2.8,32.5-5.9,48.4-9.9c21-5.3,42-10.8,62.6-17.6c18.4-6,36.3-13.8,54.5-20.7
	c1.1-0.1,2.1-0.1,3.2,0.2c-0.8,1-1.4,2.6-2.5,3.1c-10.4,4.4-20.6,9.3-31.3,12.8c-21.4,7.1-42.8,14.1-64.6,19.9
	c-20.4,5.5-41.2,9.8-62,13.7c-25.6,4.8-51.3,8.9-77,12.6c-21.4,3-42.9,5-64.4,6.9c-25.7,2.3-51.4,4.5-77.1,5.7
	c-33.1,1.6-66.3,3.1-99.5,3.2c-47.7,0.1-95.4-0.9-143-2c-24.6-0.6-49.1-2.1-73.6-3.8c-24.2-1.6-48.5-3.8-72.7-6.1
	c-21-2-41.9-4.1-62.8-6.8c-21.2-2.7-42.2-6.1-63.3-9.5c-14.4-2.3-28.9-4.7-43.2-7.7c-34.2-7.1-68.2-14.9-100.3-29.1
	c-3.8-1.7-7.5-3.6-11.2-5.6c-1.5-1-2.8-2.2-4-3.5c-17.7,5.4-36.3,2.3-54.8,2.7c-7.2,0.2-14.6-0.9-21.7,0
	c-10.1,1.4-19.8-0.2-29.4-2.6c-11.1-2.8-20.1-8.7-25.2-19.6c-0.8-1.3-2-2.4-3.5-2.9c-22.2-9.4-45.4-16.5-69.2-21.1
	c-15-2.9-30.1-5.8-45.2-7.6c-27.1-3.4-54.4-4.6-81.6-3.7c-17.8,0.7-35.7,1.4-53.4,3.6C104,745.2,66.8,753.6,32.5,772
	c-11,5.7-21.2,12.9-30.3,21.2c-1.1,0.7-2.4,1.2-3.7,1.5c0.6-1.3,0.8-2.9,1.8-3.8c20.5-18.4,44.6-30,70.5-38.4
	c26.4-8.6,53.5-13.6,81.1-16.5c36-3.6,72.2-3.9,108.2-0.7c22.9,1.9,45.6,5.5,68,10.5c21.1,4.7,41.8,11,61.8,18.9
	C390.4,764.9,390.9,765.1,391.5,765.1z M499.2,413.2c1.1,0.1,1.7,0.2,2.3,0.2c20.1-0.1,40.3-0.1,60.4-0.4c1.7-0.2,3.3-1.2,4.2-2.7
	c16.9-28.6,33.8-57.2,50.3-86c15.6-27.2,30.2-54.9,37.7-85.7c5.9-24.3,12-48.6,12.8-73.8c0.6-17.4-2.8-34.8-10.1-50.6
	c-12.5-27.2-32.1-48.2-56.4-65c-12.3-8.5-25.5-16-40.3-18.7c-17.9-3.4-36-5.8-54.2-7.2c-13.8-1-27.7-0.5-41.4,1.3
	c-21,2.8-41.7,7.8-61.7,15c-20.4,7.2-39.5,16.7-56.8,29.8c-35.7,27.1-55.3,63-58.3,107.8c-1.9,28.7,2.4,56.6,11.4,83.9
	c6.4,19.4,14.7,38.2,24.8,56c10.9,19,22.5,37.6,34.2,56.2c8.9,14.1,18.2,28,27.4,41.8c0.9,1.3,2.4,2.1,4,2.2
	c16.2-1.1,32.4-2.6,48.5-3.8c4-0.3,7.9,0,11.7,0c-3.9-57.9-7.8-115.2-11.7-172.6c-3.2-0.2-6.3-0.2-9.3-0.6
	c-8.1-1-14.6-4.5-17.9-12.4c-2.4-5.6-1.5-10.1,2.5-14c3.8-3.6,9.5-4.4,14.2-2.1c9.8,4.3,12.6,13,13.7,22.6c0.3,2.8,1.2,3.6,3.9,3.6
	c17.2-0.2,34.4-0.4,51.6-0.4c3.2,0,4.1-1,4.7-4.2c1.6-9.3,4.9-17.7,14.6-21.6c6.5-2.7,14.8-0.5,18.3,5c3.3,5.1,1.7,12.4-3.7,17.4
	c-4.2,3.9-9.6,6.1-15.3,6.2c-3.7,0.2-7.4,0-11.5,0C502.4,298.1,500.8,355.5,499.2,413.2z M463.5,580.9c-6.4,4.2-13,3.1-18.8-3.2
	c-1.7-1.8-2.4-3.3,0.6-4.5c4-1.5,8-3.1,11.9-4.7c1.1-0.3,2.2-0.9,3.1-1.6c3.2-3.6,6.4-7.2,9.5-11c6.4-7.9,12.2-16.5,19.4-23.7
	c5.1-5.2,8.2-9.6,7.6-17.4c-1.1-13.2-0.6-26.6-0.5-40c0-4.2-1.4-5.3-5.3-5.1c-11,0.7-21.9,1.4-32.9,1.5c-17.8,0.2-35.6,0.1-53.7,0.1
	c-3.1,44.7-6.1,88.9-9.2,133.8h92.5c-1.7-9.1,0.8-16.9,6.1-24.2c-0.7-0.6-1.2-1.1-1.9-1.6c-4.2-3.2-4.6-3.6-0.4-6.8
	c7.5-5.7,3.9-13.2,5-20.1c-5.5,5.3-11.2,9.8-15.7,15.2c-4.3,5.2-10.4,9.8-8.5,18.4c0.6,2.8-2.9,4.1-4.9,1.8
	C465.8,586.1,465,583.7,463.5,580.9z M441.9,240.6c3.2,58,6.7,115.7,11.8,173c13.1,0,25.6-0.1,38.1,0.1c2.9,0,3.9-0.7,4-3.8
	c1.5-54.3,3-108.5,4.6-162.8c0.1-2.1,0-4.2,0-6.4L441.9,240.6L441.9,240.6z M549.5,728.9c-1.6-0.1-2.5-0.1-3.4-0.2
	c-43.2-0.7-86.4-1.4-129.7-2.2c-8.4-0.2-17.1,1.1-25.9-4.2c1.4,13.2,2.5,25.4,4,37.5c0.4,2.9,1.3,6.7,3.4,8.2
	c3.8,2.9,8.6,4.4,13.2,6.6c-1.1-10.9-0.8-12,10-12.7c15.2-1.1,30.5-1.4,45.8-1.7c22.8-0.4,45.6-0.5,68.4-1
	c6.7-0.2,10.6-4.1,11.7-10.7C548.1,742.3,548.6,735.9,549.5,728.9z M392.5,671.7c-0.6,12.3-1.2,23.7-1.7,34.2
	c6.2-0.5,11.7-1.4,17.3-1.3c30.1,0.4,60.1,1.3,90.2,1.3c17.3,0,34.6-1.4,51.9-2.1c2.6-0.1,3.5-1,3.7-3.5c0.3-4.6,1.1-9.1,1.3-13.6
	c0.2-8.9-2.2-11.5-10.9-11.5c-14.6,0-29.3,0.2-43.9,0.5c-30.5,0.6-61,1.3-91.5,1.8C403.1,677.7,397.6,676.7,392.5,671.7z
	 M458.6,466.5c1,0.1,1.8,0.2,2.6,0.2c10.5-0.1,20.9-0.5,31.4-0.4c3.1,0,4-0.6,4-3.6c0.1-13.5,0.3-26.9,0.6-40.4
	c0.3-1.1,0.8-2.2,1.5-3.1c0.8,0.9,1.4,1.9,1.7,3.1c0.3,3.8,0.3,7.5,0.3,11.3c0,10.9,0,21.7,0,33.1h41.4c6-16.2,12.2-32.5,18.4-49.1
	H453.6C455.3,434.1,456.9,450.1,458.6,466.5z M393.6,655.3c5.1-0.5,9.4-1.3,13.8-1.3c21.5,0,43,0.4,64.5,0.2
	c26-0.3,52.1-0.9,78.1-1.6c1.9-0.1,5.2-1.4,5.5-2.7c1.6-7.3,1.6-14.8-0.1-22.1c-12.5,0-24.3,0.1-36.1-0.1c-4.4-0.1-8.8-0.7-13.2-1.2
	c-3.3-0.3-6.6-1.1-9.9-1.1c-16.6-0.1-33.3-0.1-49.9-0.1c-15.7,0-31.4,0-47.1,0.1c-1.3,0.1-2.4,0.9-3,2
	C395.1,636.8,394.4,646.1,393.6,655.3L393.6,655.3z M392.8,420.3c0,0.5,0,1,0,1.5c4.6,14.5,9.3,28.9,13.8,43.4
	c0.7,2.3,2,2.3,3.9,2.3c13.4-0.3,26.8-0.6,40.3-0.9c1,0,2-0.2,3.6-0.4c-1.3-16.3-2.5-32.3-3.8-48.8L392.8,420.3z M548.8,512.4
	c-0.8-8.7-1.5-16.2-2.2-23.5l-24.4,20.4c3,0,5.9-0.2,8.9-0.7c0.9-0.1,2,1.1,2.9,1.8c-0.9,0.6-1.8,1.2-2.8,1.6
	c-4.5,1.6-9.3,2.5-13.5,4.6c-5.6,2.8-10.8,6.5-16.1,9.9c-0.8,0.4-1.4,1.1-1.7,2c-0.1,5.1-0.1,10.1-0.1,16.1c6-3,11.4-5.6,16.6-8.5
	c3-1.7,5.8-3.9,8.8-5.7c0.9-0.3,1.9-0.4,2.8-0.3c-0.2,1-0.6,1.9-1.1,2.7c-1,0.9-2.1,1.6-3.3,2.3c-5.1,3.3-9.6,6.8-12.2,12.9
	c-2.8,6.5-7.6,12.1-10.5,18.5c-1.6,3.7-1.1,8.3-1.5,12.5c0.1,0.4,0.4,0.7,0.8,0.8c6.2,1.7,12.4,3.4,18.3,5
	c0.9-6.2,1.2-11.6,2.6-16.7c2.2-7.8,5.4-15.1,13.4-19.3c2.2-1.5,3.7-3.9,4-6.6c0.9-7.8,3-15.3,6.3-22.4c0.2-1.4-0.2-2.9-1.2-3.9
	c-1.5-1.4-3.7-2.1-5.4-3.4c-0.8-0.9-1.4-2-1.8-3.1c1.1-0.1,2.1-0.1,3.2,0.1C542.4,510.2,545.1,511.2,548.8,512.4L548.8,512.4z
	 M499.9,524.2c7-5.1,14.7-7.2,19.1-14.7c2.3-3.9,6.3-6.8,9.8-10c4.8-4.4,10-8.4,14.6-13.1c3.9-3.9,4-9.4,1-13.9
	c-0.8-1.1-2-1.9-3.4-2c-13-0.3-26-0.4-39.1-0.5c-0.7,0.1-1.4,0.2-2.1,0.4V524.2L499.9,524.2z M493.6,609.2c-0.6,0-1.8,0-3,0
	c-28-0.3-56.1-0.6-84.1-0.9c-3.8,0-9.1-1.2-11.2,0.8c-2.1,2-1.2,7.3-1.5,11.2c0,0.5,0.1,1,0.2,1.5h102.7L493.6,609.2z M554.8,605.1
	c-0.4-4.3-0.6-8.2-1.2-12c-0.2-1-0.9-1.8-1.8-2.2c-4.9-1.6-9.8-3.2-15.2-2.7c-6.1,0.5-12.2,0.5-18.3-0.1c-6.3-0.7-12.4-2.5-19.4-3.9
	c0,6.3-0.1,12.3,0.1,18.3c0.4,1.1,1.4,2,2.6,2.2c8.6,0.3,17.2,0.4,25.7,0.5C536.4,605.1,545.3,605.1,554.8,605.1L554.8,605.1z
	 M549.1,521.9l-2.2-0.2c-1.5,6.1-3.3,12.3-4.5,18.5c-1,5.3-2.9,9.7-7.9,12.3c-2,1.1-3.7,2.6-5,4.5c-5.1,7.4-7.4,16.3-6.5,25.2
	c0.3,1.3,1.3,2.4,2.6,2.8c4.8,0.2,9.6,0,14.5-0.2c1-0.1,1.8-0.8,2.2-1.6c1.2-8.5,2.5-17,3.3-25.5c0.2-2.3,0.9-3.2,2.8-3.5
	c1-0.2,2-0.4,2.9-0.5C550.5,542.8,549.8,532.3,549.1,521.9L549.1,521.9z M531,610.1c0-0.3,0-0.5,0-0.8c-9.8,0-19.6,0.1-29.4-0.1
	c-3.3-0.1-4.4,1.4-4.3,4.3c0.4,4.9,4.4,8.6,9.3,8.7c8.9,0,17.7,0.1,26.6,0c8.8-0.1,17.7-0.1,26.5-0.6c3.8,0,6.9-3,6.9-6.8
	c0-0.2,0-0.4,0-0.6c-0.5-4.5-4.2-4-7.1-4.1C550.1,610,540.6,610.1,531,610.1z M572.2,532.5c5.5,1.4,10.6,2.9,15.8,3.8
	c9.3,1.7,18.7,3.3,28.1,4.5c5.5,0.7,6.7-0.8,6.5-6.5c-0.1-4.2-0.6-8.3-1.5-12.4c-1.6-7.2-3.6-14.2-5.5-21.8
	c-2.6,1.5-4.5,2.4-6.2,3.6c-0.7,0.5-1.1,1.3-1.1,2.2c0.7,8.3,1.6,16.6,2.4,24.8c-0.1,0.7-0.3,1.5-0.6,2.1c-0.8-0.2-1.6-0.5-2.4-0.9
	c-2.4-2-4.5-4.2-6.9-6.1c-5.1-4-10.4-7.8-15.5-11.7l-1,0.9c1.2,1.8,2.4,3.7,3.6,5.5c3.2,4.4,2.1,8.1-3.4,9c-4,0.6-8.1,0.1-12.4,0.1
	L572.2,532.5L572.2,532.5z M504,238c7.3-1.1,13.9-1.3,20-3.2c3.2-1,6.2-4.6,8-7.8c2.4-4,1.2-9.2-2.8-11.6c-0.4-0.2-0.8-0.4-1.2-0.6
	c-4.7-1.9-10-1.4-14.3,1.3C506.3,220.9,505.8,228.9,504,238L504,238z M662.1,486c-11.4,0-22.5-0.1-33.6,0.1
	c-1.4,0.4-2.5,1.5-2.9,2.9c-0.2,3.7-0.3,7.3-0.1,11h35.4C657.9,494.8,659.4,490.3,662.1,486L662.1,486z M496.8,530.1l-1.5-0.5
	l-30,36.3l7.9,5.5c7.6-8,15.2-16,22.7-24c0.6-0.7,0.9-1.6,0.9-2.6C496.8,539.9,496.8,535,496.8,530.1z M438.4,237.6
	c-0.7-4.1-0.9-7.6-1.8-10.9c-2.6-9.7-9.7-14.5-17.9-12.5c-3,0.6-5.2,3.1-5.5,6.1c-0.8,5.8,2,11.4,7.1,14.2
	C425.8,237.2,431.8,237.7,438.4,237.6z M607.2,526.5c-0.7-7.1-1.1-13.1-2.1-19.1c-0.7-4.5-8.2-10.1-12.7-10.1c-8.9,0-8.9,0-8.2,9
	c0.1,1.8,0.4,4.2,1.6,5.1C592.4,516.4,599.2,521,607.2,526.5L607.2,526.5z M577.8,482.2c-5.8-9.4-17.4-10.5-24.5-2.3
	c-1.4,1.6-3.3,3.7-3.2,5.6c0.1,7.1,0.9,14.2,1.5,21.3c0.1,1.1,0.2,2.2,0.4,3.6c4.6-3.4,6-9.1,3.7-13.4c-1.3-2.4-1.7-4.8,0-7.2
	c1.5-2.2,4.4-3,6.8-1.9c6.3,2.6,11.3,1.4,14.8-4.7C577.4,482.9,577.6,482.5,577.8,482.2L577.8,482.2z M579.4,486
	c-0.8,0.5-1.5,1.1-2.1,1.8c-3.2,6.4-9,4.9-14.2,4.5c-1.7-0.1-3.6-2.9-4.9-0.1c-0.5,1.3,1.1,3.4,1.7,5.2c0.4,1.2,1.2,2.6,0.9,3.5
	c-1.7,4.3-3.7,8.5-5.6,12.7c4.2,1.3,5.8,0.3,8.3-6c2.5,0.9,4.9,1.9,7.2,3.1c3.5,2,5.2,0,6.7-2.6c0.7-1.2,1.1-2.5,1.2-3.8
	C579,498.6,579.1,492.8,579.4,486z M568.8,521.9l-1.4,0.1c-1.5,2.9-2.8,6-4,9.1c-1.2,3.6-2.1,7.4-2.5,11.2
	c-0.5,4.8-0.9,9.4-4.9,12.8c-0.7,0.6-1.2,1.4-1.3,2.3c0.4,5.7,1.1,11.4,1.7,17.8c5.1-3.8,6.8-8.6,7.7-14c1.2-6.9,2.7-13.7,3.6-20.6
	C568.4,534.3,568.4,528.1,568.8,521.9L568.8,521.9z M572.8,525.9l1.5-1.1c1.6,0.2,3.2,0.6,4.8,1.1c2.3,1.2,5.1,1,7.2-0.6l-6.9-13.7
	c-1.3,1.2-2.7,2.2-4.3,2.9c-1.7,0.5-3.7-0.1-6.4-0.3C570.2,518.3,571.5,522.1,572.8,525.9L572.8,525.9z M554.5,551.3l1.1,0.2
	c2.9-8.4,0.3-18.4,5.2-23.3l-3.4-7.5c-1.7,2.5-4.4,4.6-4.4,6.6C553,535.3,553.9,543.3,554.5,551.3L554.5,551.3z M424.9,789.6
	c-8.1-7.2-15.8-13.7-26.2-17.1C404.6,782.8,413.9,786.7,424.9,789.6L424.9,789.6z M563.7,573.4l-1-0.7c-1.2,1.4-2.1,3.5-3.6,4.1
	c-3.2,1.3-3.1,3.4-2.6,6.1c0.3,1.3,0.1,2.7,0.4,4c0.2,0.8,0.8,1.5,1.6,1.8c2.3,0.2,4.5,0.1,6.9,0.1c-0.4-3.2-0.8-5.5-1.1-7.9
	C564.1,578.4,563.9,575.9,563.7,573.4L563.7,573.4z M469.3,577.3c1-3.3-3.1-8.5-6.1-7.7c-3.5,0.9-6.8,2.6-11.4,4.4l6.6,3.1v1.9
	C462.6,580.1,464.7,573.1,469.3,577.3L469.3,577.3z M499.6,561.2l1.3,0.4l9.7-18.6c-2.6,0.9-5.1,2-7.6,3.3c-1.3,0.8-3.1,2.2-3.2,3.5
	C499.5,553.6,499.5,557.4,499.6,561.2L499.6,561.2z M391.5,608.2c-3.1,1.5-5.5,2.1-7.2,3.5c-1.6,1.4-2.3,3.7-3.4,5.6
	c1.8,1.1,3.8,2,5.8,2.7c1.1,0.2,3.4-0.7,3.6-1.5C390.9,615.1,391.3,611.6,391.5,608.2L391.5,608.2z M495.3,585.1
	c-3.7,4.9-5.3,11-4.6,17c0.1,1,1.5,1.8,2.3,2.6c0.8-0.7,2.2-1.4,2.2-2.1C495.4,596.8,495.3,590.9,495.3,585.1L495.3,585.1z
	 M547.4,573.7c-0.6,4.2-1.8,7.8-1.3,11.2c0.2,1.2,4.3,1.9,6.9,2.9C553.3,579.3,553.3,579.3,547.4,573.7L547.4,573.7z M669.7,494.2
	l0.7-0.7c-1.4-1.9-2.7-5.1-4.2-5.3c-3.3-0.3-3,3.3-3.6,5.7c-0.2,1.1,0,2.1,0.5,3.1c0.7,1.1,1.8,2.8,2.7,2.7c1.3-0.4,2.5-1.3,3.2-2.5
	C669.5,496.2,669.7,495.2,669.7,494.2L669.7,494.2z M552.7,574c-0.5-6-0.9-11.3-1.4-16.7H550c-0.7,2.9-1.2,5.8-2,8.7
	C547.1,570,549.5,571.8,552.7,574L552.7,574z M611.8,485.9c-4.5-1.8-7.6-1.1-10.3,1.2c-0.8,1-1.4,2.1-1.7,3.2c1.3,0.3,3,1.3,3.9,0.9
	C606.5,489.6,609.2,487.8,611.8,485.9L611.8,485.9z M611.7,490.1c3-0.1,5.5,0.1,5.6,3.7c0.1,3.7,2.2,3.6,4.8,2.5v-7
	C618.7,490.9,615.6,485.3,611.7,490.1L611.7,490.1z M571.5,471.9c3.5,2.9,7,5.9,10.5,8.8C582.7,475.1,577.6,471.1,571.5,471.9z
	 M614.1,496.6c-0.1-0.9-0.4-1.8-0.7-2.7c-2.7,0.1-5.4,0.4-8.1,0.6c0.1,0.4,0.1,0.8,0.1,1.1L614.1,496.6z M600.2,494.9
	c3,5.7,5.1,6.8,7.5,5.3L600.2,494.9z M562.2,521.6c1.1-3.2,1.7-5,2.4-6.8l-0.8-0.4l-5,3.7C559.9,519.3,560.7,520.1,562.2,521.6
	L562.2,521.6z"/>
</svg>
