<?xml version="1.0" encoding="utf-8"?>
<!-- Generator: Adobe Illustrator 27.0.1, SVG Export Plug-In . SVG Version: 6.00 Build 0)  -->
<svg version="1.1" id="Layer_1" xmlns="http://www.w3.org/2000/svg" xmlns:xlink="http://www.w3.org/1999/xlink" x="0px" y="0px"
	 viewBox="0 0 1241.6 1060.1" style="enable-background:new 0 0 1241.6 1060.1;" xml:space="preserve">
<style type="text/css">
	.st0{fill-rule:evenodd;clip-rule:evenodd;fill:#5B318B;}
</style>
<path class="st0" d="M966.3,902.1c-1.7,2.1-3,3.7-4.2,5.3c2.1,1.5,4.1,4,6.3,4.3c10.2,1.5,20.5,2.4,30.8,2.6
	c10.6,0.1,21.2-1.1,31.8-2.2c6.3-0.6,11.6,0.8,15.5,5.7c6.5,8.1,13.6,16,18.8,24.9c5.1,8.7,12.4,13.3,21.7,15.9
	c4.6,1.3,9.3,2.4,14,3.5c8.1,1.9,14.6,6.3,17.4,13.8c5.1,13.4,15.6,18.9,28.8,22.8c17.5,5.3,34.5,12.3,51.7,18.7
	c6.2,2.3,9.8,7.4,13.1,12.6c3.9,6.2,7.3,12.7,11.1,19c0.8,1.2,2.5,1.9,3.8,2.9c0-1.5,0.6-3.3,0-4.4c-5.1-8.6-10-17.3-15.9-25.3
	c-3-3.7-6.8-6.6-11.1-8.6c-17.3-8.8-35.8-14.4-54.4-19.7c-10-2.9-18.5-6.9-21.9-17.3c-0.5-1.1-1.1-2.2-1.8-3.3
	c-3.8-7.5-10.7-12.9-18.9-14.7c-7.3-1.8-14.5-3.9-21.5-6.2c-5.1-1.7-8.4-5.5-11.4-10c-6.1-9.1-12.7-17.9-19.6-26.4
	c-6.1-7.6-14.5-9-24.1-7.5c-15.8,2.5-32,2.9-47.9,1.1c-3.2-0.3-6.4-1.2-9.4-2.5c3.6-1.4,7.1-2.7,10.7-4.2
	c7.9-3.1,12.1-8.8,12.3-17.1c0-2.1,0.7-2.9,2.8-3.1c7.2-0.6,14.4-1.5,21.6-1.9c1.6,0.3,2.9,1.4,3.6,2.9c0.8,3.5,1.3,7,1.7,10.6
	c0.2,1.9,0.6,3.8,1.3,5.6c0.6,1.2,2.3,2,3.5,2.9c0.8-1.3,2.1-2.6,2.2-4c0.2-1.9,0-3.9-0.8-5.7c-4.1-9-4.9-18.7-6-28.2
	c-2.7-24.1-10.3-46.7-19.7-68.9c-6.8-16-13.4-32.2-18.6-48.7c-2.9-9.2-3-19.3-4-29c-2.1-21.4-3.9-42.8-6-64.1
	c-0.3-3.3,0.8-4.2,3.9-4.9c6.2-1.3,12.3-3.2,18.2-5.4c7.2-2.9,8.4-5.8,6.4-13.1c-0.5-1.8-0.1-3.7,1.2-5.1c1.5-2.1,2.9-5.1,2.6-7.5
	c-1.4-10.1-2.4-20.4-5.6-29.9c-1.9-5.6-7.7-9.9-11.9-14.7c-1.5-1.7-3-1-4,0.9c-2.8,5.6-4.4,11-1.4,17.3c4.7,10.1,8.8,20.5,12.3,31.1
	c-3.7-1.2-6.7-3.9-8.2-7.5c-2.4-5.1-4.2-10.5-6.3-15.7c-0.5-1.3-0.9-2.6-1.4-3.9c-3.3-8.3-9.1-11.4-18-9.2c-2.5,0.6-3.4-0.3-4.3-2
	c-6.1-11.3-12.2-22.7-18.2-34.1c-0.9-1.8-3.9-4.3-0.9-6.1c2.3-1.3,6.1-2.2,8.2-1.3c4.7,2.2,9,5,12.9,8.4c4.5,3.8,8.2,8.4,12.5,12.4
	c4.7,4.4,8.8,4.9,11.5,2c2.7-2.9,1.8-6.9-3-11c-8.7-7.4-18.9-12.9-29.9-16.1c-7.1-2.2-14.2-4.4-21.4-6.4c-2.4-0.8-5-1.1-7.5-0.7
	c-5.3,1.1-10.2,0.9-15.2-2.4c3.4-4.8,6.9-9.8,10.6-14.8c11.6-16,6.4-34.4-12-42.4c-3.7-1.6-7.6-2.9-11.5-4.2
	c-3.5-1.1-6.9-1.9-9.2-5.2c-1-1.4-4-2.2-6-2.1c-9,0.4-15.2,10.8-11,18.5c1.3,2.4,0.8,3.9-0.2,6c-3.6,7.9-7.5,15.8-10.1,24
	c-4.3,13.5-0.1,20.6,13.7,25.5c1.6,0.6,3.7,0.5,4.8,1.5c1.5,1.8,2.7,3.7,3.7,5.8c-1.6,0.6-3.4,1.9-4.8,1.6
	c-11.9-2.3-24.2-3.9-35.6-7.7c-6.7-2.2-12.5-7.7-18.2-12.3c-7.4-6-14.3-12.6-21.4-18.8c-7.7-6.7-15.8-11.5-25.4-3.3l-8.7-6.3
	c3.2-2.8,6.2-5.3,9.5-8.1c1.3,2.3,2.7,4.5,4.3,6.6c0.7,0.9,2.3,1,3.5,1.5c0.4-1.2,1.4-2.6,1.1-3.5c-1.3-3.2-3.1-6.3-4.6-9.5
	c-0.7-1.6-1.3-3.3-1.8-5c-1.1-4-1.9-8.1-3.3-11.9c-0.6-1.6-2.7-2.7-4.1-4c-1.2,1.5-2.9,2.9-3.5,4.6c-0.7,2-0.4,4.3-0.6,7
	c-5.6-2.5-10.5-6.1-14.6-10.7c-1.5-2-3.3-3.8-5.2-5.4c-1.3-0.9-3.8-1.8-4.9-1.2c-1.6,1-2.6,2.7-2.6,4.6c0.8,5,2.2,9.9,4.1,14.6
	c3.8,8.7,8.7,16.7,17.2,22c1.4,0.9,2,3.1,3.5,4c9.3,5.6,12.6,15.5,18.4,23.6c14.5,20.3,33.3,35.5,55.9,46.6
	c9.5,4.7,19,9.2,28.6,13.6c2.2,0.8,4.5,1.5,6.9,1.9l-16.4,12.5c-12-2.6-28.3-5.9-44.5-9.9c-5.8-1.4-11.2-4.4-16.6-7.1
	c-6.7-3.4-13.7-3.7-20.7-2.5c-2.1,0.3-3.9,2.7-5.8,4.1c1.6,1.6,3.1,3.3,4.8,4.7c2.4,1.9,5.3,3.4,7.5,5.5c6.6,6.2,14.6,9.8,23.2,12.5
	c0.9,0.1,1.9-0.2,2.5-0.8c0.3-0.8,0.3-1.7,0-2.5c-0.9-3.6-1.8-7.2-3-11.5c4.6,0.8,6.6,2.9,5.9,5.9c-2.8,12.2,3.7,18.8,14.4,22.6
	c11.1,4.1,22.3,7.9,33.6,11.5c4.7,1.5,9.7,0.9,14-1.5c5.4-2.9,11-5.4,16.7-8.2l13.7,38.1c-9.1,1.9-17.6,3.4-25.9,5.4
	c-18.3,4.3-36.7,8.1-53.8,16.2c-5.6,2.6-8.7,6.3-7.7,12.7c1.8,12.1,2.9,24.4,5.4,36.3c4.5,21.4,9.7,42.7,14.9,63.9
	c1.7,7.2,3.5,8.2,11,8c1.1,0,2.1,0,3.9,0l-24.9,11.5c-3.7-12.8-14.4-21.5-24.4-30.5c-4.9-4.2-8.4-9.9-10-16.2
	c-5.5-22.6-11.3-45.2-16.6-67.9c-2-8.7-2.9-17.7-4.2-26.5c-1.3-8.2,0.9-15.8,4.9-23c3.3-5.9,6.8-11.8,9.7-17.9c4.1-8.6,3-14-4-20.4
	c-4.2-3.9-8.6-7.6-13.2-11.1c-8.5-6.3-16.3-13.2-22.5-21.8c-5.1-7-13.3-9.6-21.1-12.5c-7.5-2.8-15.2-5.2-22.9-7.7
	c-11.9-3.8-15.8-9.3-14.9-21.6c0.2-2.8,0.7-5.5,1.6-8.1c2.1-6.2,0.6-11.3-4.6-15.1c-8.9-6.5-17.6-13.6-27.4-18.8
	c-6.7-3.6-15-5-22.7-6.2c-11.5-1.8-23.1-2.1-34.6-3.8c-7-1.1-13.8-2.7-20.5-5c-5.1-1.7-8.6-8.9-7.7-14c0.5-2.9,1.8-4.7,5.5-4.1
	c6.4,1,12.9,1.7,19.4,2.6c4.8,0.4,9.1,3.1,11.7,7.1c4,6.3,10.8,10.3,18.2,10.8c1.3,0.1,2.7-0.9,4.1-1.4c-0.6-1.3-0.8-3-1.9-3.7
	c-4.8-3.5-9.8-6.6-15-9.4c-3.9-2-5.7-4.9-5.1-8.6c1-6.2,1.8-12.7,4.4-18.3c7.4-15.6,16.1-30.6,23.7-46.1c4.1-8.4,7.7-17.1,10.9-25.9
	c2.9-7.8,0.1-14.3-6.1-19.6c-17.3-14.5-37.2-25.6-58.6-32.7c-10.9-3.8-22.8-4.7-33.6-8.5c-10.3-3.7-19.7-9.5-29.5-14.5
	c-0.8-0.7-1.5-1.5-2.1-2.3c7.1,2.3,13.1,4.3,19.1,6c5.2,1.4,10.4,2.5,15.7,3.7c0.4,0.2,0.8,0.2,1.2,0.1c5.3-3.8,9,1.4,13.4,2.3
	c1.9,0.4,4.3,1.1,5.8,0.4c1.1-0.5,1-3.2,1.6-5.3c1.2,1.4,2.7,3.1,4.1,4.8c1,1.1,2.2,2.2,3.1,3.4c3.2,3.9,6.9,4.9,11.6,2.5
	c1.5-0.9,3-1.5,4.7-2c2.7-0.5,5.4-0.9,8.1-1.2c3.8-0.4,7.6-0.5,11.4-1.1c2.7-0.5,4.8-0.6,6.8,1.6c1,1.1,2.9,1.6,4.6,2.5
	c0.1,13.7,9.6,23.7,16.5,34.7c7.6,11.9,15.9,23.4,24.6,34.6c4.6,5.9,10.8,10.8,16.2,16.2c0.8,0.8,1.6,1.8,2.3,2.8
	c1.3,1.9,2,4.7,3.8,5.8c4.2,2.8,7.5,6.7,9.6,11.3c4.8,9.4,12.6,16.2,21.7,21.5c2.6,1.4,5.4,2.3,8.4,2.6c1.7,0,3.4-0.8,4.5-2.2
	c0.5-0.8-0.5-3.2-1.6-4.1c-5.2-4.3-9-10-11-16.4c-0.4-1.5-0.8-3-1.3-5c2.2,0.3,3.9,1,5.2,0.5c2.1-0.5,3.9-1.7,5.3-3.4
	c0.5-0.8-0.9-3.7-2.2-4.7c-3-2-6.2-3.9-9.4-5.6c-3.8-2.3-8.9-3.8-7.8-9.9c0.1-0.5-1.4-1.2-2.2-1.9c-0.9,0.9-1.8,1.9-2.4,3
	c-1.3,3.3-2,6.8-3.5,10c-1.1,1.7-2.4,3.3-3.9,4.7c-4.2-4.4-4.3-4.9-0.8-9c5.9-7,5.8-15.1,0-22c-8.5-10.1-17.7-19.8-25.3-30.6
	c-4.4-6.2-6.8-13.8-9.1-21.1c-3.7-11.7-6.7-23.6-9.7-35.5c-0.3-1.8,0.2-3.6,1.3-5c5.1-5.7,5.2-5.6,1.6-12.1c5.9,1.8,9.7-1.4,13.1-5
	c8.5-9,15.5-19.3,20.7-30.5c0.5-1,1.4-1.8,2.5-2.2c5.6-1.2,8.2-4.4,7.2-10.4c-1.6-10-7.3-17.5-16.1-22.7c-4.8-2.9-10-5.3-16-2.3
	c-0.6,0.3-1.8-0.4-2.6-0.8c-1.9-1.2-3.9-2.3-5.9-3.3c-10-4-18.1-1-22.1,8.8c-2.7,6.6-4.2,13.7-6.2,20.5c-0.3,1-0.5,2-1,4.2
	c-0.9-1.1-1.8-2.3-2.5-3.5c-5.2-12.3-15.3-21.8-27.9-26.2c-1.5-0.7-3.2-1-4.9-0.8c-2.1,0.5-5.1,1.6-5.6,3.2
	c-0.6,1.7,1.2,4.1,2.1,6.6c-3.8,1.7-2,4.3,0.1,6.9c0.5,0.6,1.1,1.3,1.6,1.9c5,6,5.4,9.1,1,15.6c-10.7,15.6-26.1,24.9-44.3,30.1
	c-1.3,0.4-2.8,0.3-4-0.3c-3.9-2.4-7.5-5.1-11.8-8c2.4-1.6,4.8-3.5,7.5-5c8.3-4.5,8.6-4.9,7.4-13.4c4.8-1.5,9.7-2.7,14.4-4.6
	c8.8-3.5,16.7-8.2,21.9-16.3c3.3-5.1,2.2-9.7-3.6-11.7c-5.9-2-11.9-3.5-18.1-4.4c-29.1-4.6-58.2-9.1-87.3-13.5
	c-4.2-0.4-8.2-2.4-11-5.6c-1-1.2-2.9-1.5-4.5-2.2c-0.3,1.8-1.1,3.8-0.8,5.5c0.5,3,1.9,5.8,2.4,8.8c0.3,1.8,2.3,4.6-1.5,5.3
	c-3.3,0.6-7.1-1.5-7.7-4.4c-0.5-2.3-0.8-4.6-0.7-7c0.5-8.1-2.9-14.5-9-19.6c-4-3.3-8-6.5-12.2-9.6c-0.9-0.7-3.2-1.1-3.7-0.6
	c-1.1,1.1-1.7,2.7-1.6,4.2c1.1,3.9,2.4,7.6,3.9,11.3c0.8,2,1.3,3.4-0.4,5.5c-1,2.1-0.9,4.5,0.4,6.5c4.4,4.3,9.2,8.1,14.3,11.4
	c7,4.4,7.6,4.3,3.2,11.2c-4.2,6.4-8.8,12.5-13.7,18.4c-2.4,2.9-2,4.4,0.6,6.8c8.2,7.7,15.4,16.5,21.4,26c7.4,11.8,6.8,23.1,1.1,35.3
	c-4.6,9.4-8.3,19.2-10.9,29.4c-3.4,14.1,1.5,27.6,7.5,40.3c7.4,15.7,15.6,31.1,23.4,46.7c2,3.9,3.8,7.8,5.9,12.2
	c-7.5-0.8-14.4-2.9-19.5-8c-23.4-23.4-47.4-46.2-66.8-73.1c-2.4-3.4-4.5-7-6.2-10.8c-2.4-4.9-1.5-7.7,3.6-10.1
	c5.5-2.6,11.3-4.3,16.9-6.8c5.1-2.1,9.9-4.6,14.4-7.7c7.2-5.4,8.9-13.2,5.7-21.5c-5.4-13.9-14.9-25.2-24.5-36.4
	c-6.5-7.6-13.3-15-19.3-23c-4.3-5.8-2.5-10.7,4.3-13.5c3.4-1.3,7-2.3,10.6-2.7c4.3-0.6,8.8-0.5,13.1-0.9c6.5-0.7,9.7-4.6,7.5-10.6
	c-2.4-6.6-5.4-13-9.1-19c-4-6.3-9.1-11.9-13.7-17.9c-3.9-5.1-2.5-8.2,4.1-8.6c3.7-0.1,7.4,0.1,11,0.5c2.5,0.4,5,0.7,7.6,0.8
	c1.8-0.1,4.3-0.8,5-2.1c0.6-1.1-0.2-3.7-1.3-5c-7.8-9.2-17-17.1-27.4-23.2c-14.1-8.6-29.4-15.2-45.3-19.5c-5.9-1.4-10.9-5.5-13.5-11
	c-0.6-1.2-1.4-2.4-2-3.6c-5.2-10.3-13.7-16.2-25.4-17.8c-12.2-1.7-24.4-3.8-36.6-4.5c-6.1-0.4-12.7,1.3-18.6,3.1
	c-9.1,2.9-19,2.4-27.8-1.2c-11.2-4.3-22.5-8.4-33.6-12.8c-11.7-4.6-23.5-4.2-35.6-2.1c-10.4,1.9-20.8,4.6-31.3,5.5
	c-15.5,1.5-30.3-2.8-45-7.2c-12.7-3.8-25.2-8.4-38.1-11.7c-9-2.3-18.5-2.9-26.9-7.4c-5.3-2.8-10.5-6-15.9-8.8
	c-1.3-0.4-2.7-0.6-4-0.5c0.6,1.3,0.9,3.2,1.9,3.8c12.2,7.9,25.8,13.4,40,16.3c13.4,2.5,26.2,7.8,39.5,11.2
	c12.7,3.4,25.5,6.2,38.5,8.3c12.7,1.9,25.1-1.9,37.3-4.8c15.6-3.6,30.5-2.8,45.3,3.4c10.9,4.6,22.1,8.4,33.3,12.4
	c7.3,2.5,15.3,2.3,22.5-0.6c8.5-3.2,17.7-4.1,26.7-2.7c10.5,1.4,21,3.3,31.5,5c11.1,1.7,16.1,9.9,20.7,18.5
	c3,6.1,8.4,10.7,14.9,12.6c2.3,0.7,4.6,1.2,6.9,2c22.7,7.4,43.6,17.7,60.5,34.7c1.3,1.3,2.5,2.6,3.7,4c0.2,0.5,0.3,0.9,0.3,1.4
	c-2.7-0.3-5.3-0.7-7.9-0.8c-4.6-0.1-9.4-0.7-13.9,0.1c-7.9,1.5-9.9,7.2-5.2,13.5c5.5,7.5,11.5,14.7,16.6,22.4
	c2.8,4.3,4.4,9.5,6.2,14.4c1.3,3.3-0.6,5-3.9,5.3c-4.4,0.4-8.9,0.1-13.1,1c-4.8,0.8-9.5,2.3-14,4.5c-7.5,3.8-9.3,10.1-4.8,17
	c3.7,5.7,8.4,10.7,12.7,16c9.1,11.4,18.1,22.8,27,34.4c1.7,2.4,3,5,4,7.7c4.1,10.2,0.7,18-10.2,22.8c-5.7,2.5-11.5,4.6-17.4,6.7
	c-15.5,5.5-18.4,11.6-8.9,24.8c10.2,13.9,21.1,27.3,32.7,40.1c10.8,12.2,22.8,23.4,34,35.2c7.5,7.9,17,11.7,27.7,13.1
	c5.5,0.8,5.6,1,3.7,6.2c-0.7,1.8-0.4,3.9-0.6,5.9c-0.1,1.4-0.4,2.8-1,4.1c-5,9.7-5,11.2,2.6,19.3c7.3,7.8,15.5,14.6,25.4,19.1
	c4.8,2.2,10.2,4.2,14.6-0.3c4.1-4.1,1.9-9.1-0.1-13.5c-2-3.8-3.7-7.7-5.1-11.8c3.2,2,6.4,4.2,9.8,6.1c5.7,3.3,11.6,6.4,17.4,9.5
	c3.1,1.6,5.3,1.3,8-1.5c5.3-5.3,11.5-9.7,17.1-14.8c1.9-1.6,3.3-3.8,3.9-6.3c4-21.6,10.6-42.2,23.3-60.6c1.7-2.5,1.5-4.1-1.7-4.7
	c-20.3-3.6-33.8-17.2-46.9-31c-4.3-4.5-6.9-10.4-10.6-15.4c-0.9-1.2-2.8-1.6-4.3-2.4c-0.1,1.8-0.8,4,0,5.5c1.4,2.8,3.3,5.5,5.5,7.8
	c9.5,10.3,15.1,22.8,21.2,35.1c2.9,5.9,1.4,11.3-2,16c-6.5,8.9-13.5,17.7-20.9,26c-5.2,5.8-11.3,10.8-17.1,16.1
	c-4.1,3.7-7.6,4.4-12.3,1.3c-5.8-3.7-11.1-8-16.5-12.1c-2.2-1.7-1.6-3.5,0.8-3.7c14.1-1.7,22.7-11.2,31.3-20.5
	c6.5-7,12.3-14.8,18.4-22.1c2.4-2.9,2.4-5.9-0.4-8.1c-6-4.7-12.3-9.2-18.8-13.4c-8.5-5.5-17.4-10.7-23.1-19.2
	c-9.6-14.4-10.8-30.1-6.9-46.4c0.5-1.5,1.1-2.9,1.8-4.3c6.4,4.3,12.4,8.5,18.7,12.4c15.3,9.7,32.5,16.1,50.5,18.7
	c10.3,1.5,19.5,5.7,28.6,10.2c12.2,5.7,23.8,12.8,34.5,21.1c7.6,6,10.9,13,6.6,22.1c-5.5,11.8-11.2,23.4-16.8,35.1
	c-6.5,13.6-13.4,27-19.5,40.7c-1.9,4.2-1.7,9.3-2.4,13.8c-8.7-1.2-17.6-2.4-26.5-3.7c-5.7-0.8-9.6,2.2-9.9,7.8
	c-0.6,10.4,5.6,18.5,17.7,20.9c11.6,2.3,23.5,3.3,35.3,4.9c8.7,1.2,17.5,1.9,26.1,3.7c4.5,1.1,8.8,3,12.6,5.5
	c6.9,4.3,13.5,9.2,20.1,13.9c7,5,7.6,7.1,5.2,15.1c-2,6.8-1.7,14.1,0.8,20.7c2,5.7,6.6,8.7,12.2,10.7c11.1,3.9,22.1,7.6,33.1,11.6
	c5.8,1.9,10.8,5.6,14.2,10.6c7,10.3,17.7,17,27.2,24.7c2.7,2.2,5.2,4.7,7.8,7c4.3,3.3,5.5,9.2,2.9,13.9c-2.9,6.2-6.4,12.3-9.8,18.3
	c-4.9,8.8-7.7,18.1-5.7,28.2c4.6,22.2,9,44.5,14,66.7c2.5,11.1,5.8,22.1,9.2,33c1.2,3,3.1,5.8,5.5,8c6.6,7,13.7,13.6,20.2,20.7
	c2.3,2.9,4.2,6.2,5.4,9.7c1.4,3.3,0.8,7.1-1.6,9.7c-1.7,2.1-2.8,4.4-0.9,7.2c0.6,0.8,0.1,2.4-0.1,3.6c-1.4,8.6,2.2,13.4,11.2,14.5
	c6.2,0.8,12.4,1.2,18.6,1.8c12.9,1,25.1,5.9,35.1,14.2c12.3,10.1,25.2,19.6,40.1,26.2c13.1,5.8,27,9.6,41.2,11.3
	C964.1,901.7,965.1,901.9,966.3,902.1z M868.3,833.1c0.8-4,2.1-6.9,1.9-9.7c-0.5-6.2-1.5-12.3-3-18.3c-0.8-2.9-3.3-5.4-4.9-8.2
	c-0.5-0.8-0.7-1.7-0.8-2.6c-1-8.3-1.8-16.7-2.9-25c-1.7-13.9-3.6-27.8-5.4-41.8c-0.4-2.8,0.3-3.5,3.5-3.8c12.3-1,24.6-2.1,36.7-4.1
	c9.3-1.5,18.3-4.3,26.5-6.3c3.1,7.9,5.5,16.2,9.5,23.8c18.4,35,34.6,71,50.6,107.2c3.3,7.4,7.1,14.7,11,21.9c0.7,1.4,2.9,2,4.4,3
	c0.5-1.7,1.5-3.5,1.4-5.2c-0.3-2.9-0.9-5.7-1.8-8.5c-6.2-21-12.3-42.1-18.9-63c-5.6-17.9-10.1-35.9-9-54.7c1-16.6,2.5-33.2,3.8-49.8
	c0.2-1.1,0.4-2.2,0.8-3.3c0.9,1.1,1.4,2.5,1.4,3.9c0.8,11.5,1.5,23.1,2.5,34.6c1,11.2,2,22.5,6.3,33.1c7.8,19.3,15.2,38.8,23.2,58
	c7.5,17.9,10.7,36.7,13.1,55.7c0.7,5.7,0.5,5.7-5.4,6.3c-6.6,0.6-13.3,1.3-19.9,2c-3.8,0.4-5.7,2.2-5.5,6.3c0,2.7-0.5,5.4-1.7,7.9
	c-1.8,4.1-7.7,7.2-10.9,6.3c-12.3-3.2-24.8-5.9-36.9-9.6c-8.4-2.7-16.6-6-24.6-9.9c-4.3-2-6.3-6-6-11c0.8-15.7-1-18.1-16.3-23.7
	C882.7,841.8,874.5,838.2,868.3,833.1z M549.8,261.8c0.3,6,3.8,5.3,7.1,4.3c11.4-3.4,21.1-9.9,30.6-16.7c4.8-3.4,9.3-7.2,14.5-9.9
	c8.6-4.5,17.7-8.3,26.6-12.4c0.6-0.1,1.1,0,1.7,0.2c-6.8,8.6-6.4,15,1.2,23.2c1.2,1.2,2.4,2.3,3.8,3.3c4.6,3.5,3.7,9.5,6.8,13.7
	c0.3,0.4-0.4,1.8-1,2.6c-5.7,7.8-12.1,15-21.8,18.4c-6.5,2.3-13,4.7-19.5,7c-2.6,0.9-5.3,1.8-4,5.5c0,0.7-0.2,1.3-0.7,1.7
	c-3.5,3.8-9.3,4-13.1,0.5c-0.4-0.4-0.7-0.8-1.1-1.2c-6.4-7.7-12.5-15.7-19-23.3c-1.6-1.9-5.5-4.6-6.2-4.1c-3.2,2.3-0.6,5.2,0.7,7.6
	c3,5.5,6.4,10.9,9.9,16.8c-0.8-0.2-1.6-0.4-2.3-0.7c-5.8-2.6-11.5-5.3-17.3-7.9c-4-1.8-8-3.6-12.1-5.1c-1.2-0.4-2.8,0.3-4.2,0.5
	c0.4,1.3,1,2.5,1.7,3.5c1.4,1.2,2.8,2.2,4.4,3.2c-0.6,0.2-1.3,0.3-1.9,0.4c-10.8-4-21.8-7.5-32.3-12.2c-4.3-1.9-6-0.1-7.4,2.4
	c-10.3,18.6-13.4,37.8-3.7,57.7c8.1,16.6,21.5,28,37.1,37.6c1.8,1.1,3.5,2.5,5.4,3.8c-0.8,0.9-1.1,1.3-1.5,1.7
	c-11.3,10.2-22.7,20.4-33.8,30.7c-4.3,3.9-7.6,4.3-10.8-0.5c-3.1-4.9-5.8-10-8.2-15.3c-8-16.1-16.3-32-23.8-48.3
	c-5.3-11.5-8-23.8-4.2-36.2c3-9.2,6.6-18.1,10.8-26.8c5.4-11.7,6.2-23.2-1-34.3c-5.1-7.9-11-15.3-16.7-22.8
	c-1.9-2.5-5.7-4.7-5.9-7.2c-0.2-2.4,3.2-5.1,5-7.7c4.4-6.5,8.7-13.1,13.1-19.7c3.5,0.7,8.4,3.4,10.4-1.8c1.3-3.5,0.3-7.9,0.3-11.5
	c4.3,1,8.6,2.3,13,3c29.4,4.6,58.8,9.1,88.2,13.7c4,0.7,8,1.6,11.9,2.9c3.5,1.1,4.1,3.6,2.2,6.5c-0.8,1.3-1.8,2.5-2.8,3.6
	c-8.2,8.5-18.8,12.6-30.3,14.6c-2,0.1-4-0.5-5.7-1.7c-4.6-2.8-8.6-6.6-13.4-8.6c-16.6-6.9-33.9-11.9-51.6-14.8
	c-1.5-0.3-3.2,1-4.9,1.5c0.7,1.3,1.1,3.3,2.3,3.9c6.1,3.5,12.3,6.7,18.6,9.9c3.2,1.6,6.7,2.7,10.8,4.4c-9,1.7-13.9,7.4-19.2,12.4
	c-5.1,4.8-4.7,10.2-1.9,15.9c0.8,1.2,1.4,2.7,1.6,4.1c-0.4,7.1,2.8,12.5,7.8,17.1c6.8,6.2,10.9,6.2,18.2,0.8c1.1-0.8,3.1-1.8,4-1.3
	c11.7,5.6,21,1.5,29.5-6.5C546.8,263.1,548.3,262.3,549.8,261.8z M879.8,585.7c5.3-5.2,7.1-11.2,4.3-16.1c-0.7-1.1-1.8-1.9-3.1-2.2
	c-0.7-0.1-1.9,1.4-2.4,2.3c-1.5,3.1-2.8,6.3-4,9.5c-1,2.9-2.7,3.6-5.4,2.3c-10.2-4.7-20.6-9.1-30.6-14.3
	c-13.6-7.1-26.9-14.7-37.7-25.8c-9.8-10.2-19.2-20.6-25.3-33.4c-1.1-2.4-0.8-3.6,1.5-5c4.3-2.6,8.5-3,12.6,0.1
	c4,2.9,7.9,5.9,11.6,9.1c6.7,5.8,13.2,11.7,19.7,17.7c5.9,5.7,13.2,9.7,21.3,11.4c10.9,2.1,21.9,4.3,32.9,6.1
	c2.3,0.4,4.8-0.6,7.2-0.8c2.2-0.2,4.6,0.3,6.7-0.2c6.8-1.9,13.5-4.1,20.1-6.3c2.3-1.1,4.9-0.1,6,2.2c0.1,0.2,0.1,0.3,0.2,0.5
	c2.5,5.2,5.6,10.3,7.4,15.7c3.8,11.7,6.8,23.5,10.2,35.3c2.2,7.4,4.7,14.7,7.1,22c1.2,3.8-0.3,5.2-4.1,4.7c-8-0.9-16-2-24-2.8
	c-6.5-0.6-13.1-2.6-19.7,0.3C887.5,607.6,887.4,595.4,879.8,585.7L879.8,585.7z M968.1,675.8c-5.1-5.6-4.8-5.4-8.6,0.5
	c-9.2,14.2-21.2,25.7-37.6,31.4c-12.3,4.2-24.9,7.4-37.7,9.6c-9.8,1.8-20,1.8-30,2.2c-4.3,0.1-5.2,0.4-5.3,4.7c0,1.4,0,2.8,0.2,4.1
	c2.3,16.9,4.6,33.8,6.8,50.7c0.7,5,1,10.1,1.3,15.2c-0.1,1.1-0.6,2-1.4,2.8c-0.8,0-1.5-0.3-2.1-0.8c-4.5-4.8-8.5-9.6-9.7-16.5
	c-2.1-12.6-5.2-25.1-7.6-37.6c-2.8-14.6-5.1-29.3-7.7-43.9c-0.8-3,0.9-6,3.8-6.9c5.4-2.3,10.8-4.9,16.4-6.7
	c16.4-5.1,33-9.8,49.5-14.9c1.9-0.6,4.5-1.6,5.2-3.1c1.8-3.8,4.8-3.8,8.1-3.5c2.3,0.2,4.5,0.4,6.8,0.6c13.4,1.5,26.9,2.5,39.9-2.3
	c3.2-1.2,6.2-2.9,9.6-4.5L968.1,675.8L968.1,675.8z M599.3,381.8c-0.4,0.9-0.8,1.8-1.3,2.6c-11.2,17.9-17.7,37.4-21.1,58
	c-0.5,1.8-1.6,3.4-3.1,4.5c-5.5,4.8-11,9.5-16.7,14c-1.3,1-3,1.3-4.6,0.9c-6.1-3.1-12.2-6.5-18.1-10c-4.1-2.5-8-5.4-11.7-7.9
	c4.3-3.4,8.2-6.4,11.9-9.5c2.8-2.3,5.4-4.9,8-7.4c10-9.9,19.8-20,26.7-32.4c4.1-7.3,4.3-14.3,0.1-21.6c-1.9-3.3-3.3-6.8-4.9-10.3
	l0.9-0.7C574.6,372,586.1,378,599.3,381.8z M990.2,853.9l-0.8,0.3c-0.7-0.8-1.3-1.6-1.9-2.6c-5.9-13.2-11.7-26.5-17.7-39.7
	c-6.9-15.2-13.9-30.4-21.1-45.5c-6.6-13.7-13.9-27.1-20.1-40.9c-5.6-12.6-4.3-14.1,8.7-19.6c7.8-3.5,15.4-7.4,22.8-11.7
	c2.4-1.4,4.1-3.9,6.4-6.1c0.1,0.6,0.2,1.2,0.3,1.8c-1.3,14.8-3.1,29.6-3.7,44.4c-0.4,10.7-0.5,21.7,2,32c5.6,23.2,13,46.1,19.6,69.1
	C986.5,841.6,988.4,847.8,990.2,853.9z M649.9,285.8c0.3,0.9,0.6,1.6,0.9,2.4c2.8,9.8,5.6,19.6,8.3,29.4c3.5,13,8,25.4,17.7,35.6
	c6.7,7.1,12.8,14.7,19.1,22.1c3.9,5,3.6,12.1-0.6,16.8c-1.6,1.6-3.4,2.8-5.5,1.1c-5.4-4.6-11.3-8.8-16-14c-4.8-5.4-9.1-11.2-13-17.3
	c-9-13.4-17.9-26.7-26.3-40.4c-2.1-3.5-2.4-8.3-2.7-12.5c-0.2-2.9-1-4.3-3.9-4.8c-1.5-0.4-2.9-1-4.2-1.6L649.9,285.8z M678.6,220.6
	c2.2,2,4.4,4,6.8,5.8c2.4,1.6,3,3.3,1.7,5.9c-5.2,10.8-12,20.7-20.4,29.3c-4.2,4.2-7.6,4.2-12.3,0.4c-1.7-1.3-3.1-2.8-4.3-4.5
	c-6-9.7-11.7-19.6-17.1-28.5c1.2-2,2.2-4.2,3.1-6.4c2.1-7,3.4-14.2,6-21c3.1-8.2,9.2-10.1,17.5-6.5c1.8,0.7,3.5,1.8,5,3
	c2.4,2.3,4.6,3.7,7.3,0.4c0.8-0.6,1.8-0.8,2.8-0.7c10.4,0.4,23.2,14.8,22,24.9c-0.4,1.4-1,2.7-1.7,3.9l-1.4-0.2
	c-0.4-1.2-0.7-2.5-1.1-3.7c-2-7.2-6.1-12-13.9-14.1c-8.4-2.3-17.2-2.5-25.7-0.7c-10,2.1-15.2,9.3-14.1,18.6c0.1,1.3,1.4,2.4,2.2,3.6
	c1.1-0.6,2.2-1.4,3.1-2.3c1.3-2.1,2.5-4.2,3.6-6.4c0.7,1.7,1.6,3.3,2.6,4.8c1.2,0,2.3-0.4,3.1-1.3c3-4.4,6.3-4,10.1-1.1
	c0.8,0.5,1.7,1,2.6,1.4c3.8,2,7.1,1.2,10-1.7C676.9,222.5,677.7,221.6,678.6,220.6z M871,477c-2.4-4.3-1.3-8.1,3-11.1
	c3.4-2.4,5.7-1.9,8.2,1.2c1.1,1.2,2.4,2.2,4,2.7c6.2,2.4,12.6,4.2,18.6,6.9c11.4,4.8,16.7,17.8,11.9,29.2c-0.5,1.1-1,2.2-1.7,3.2
	c-2.4,3.9-5.1,7.6-7.7,11.3c-2.5,3.6-4.5,7.9-7.8,10.6c-5,4.1-11,7-16.4,10.3c-2-7.5-2-7.5-11-10.3c-11.5-3.6-15.3-9.8-11.8-21.1
	c2.4-7,5.2-13.9,8.3-20.7c0.8-1.6,1.8-3,2.8-4.4c3.9,2.3,7.4,4.1,10.7,6.2c0.9,0.6,1.6,1.5,1.9,2.6c0.6,5.4,0.9,10.9,1.6,16.3
	c0.1,1.2,1.3,2.2,2,3.3c1.2-0.6,2.3-1.4,3.3-2.2c1.4-1.3,2.7-2.8,4.5-4.8c1,4.6-2.1,5.6-4.2,7.2c-4.4,3.3-4.9,7.2-1.3,11.3
	c2.8,3.2,6.6,3.2,10.4-0.3c5.9-5.4,10.3-12,11.4-19.8c0.6-4.3,0.5-9.4-1.3-13.2c-4.6-9.6-13.1-16.8-23.4-19.6
	c-5.6-1.7-10.7-0.8-14.5,4C872,476.2,871.5,476.6,871,477z M872.5,592.2c3,6.7,5.6,13,8.6,19.2c3.4,7,3.5,7-3.4,10.7
	c-6.7,3.5-13.4,7.5-21.6,4.8c-2-0.7-4.2-0.9-6.1-1.6c-10.8-4.3-21.7-8.6-32.3-13.4c-2.3-1.4-4-3.7-4.5-6.4
	c-0.6-3.5,0.3-7.2,0.6-10.8c13.2,2.5,25.8,4.9,38.5,7.2c4.3,0.8,7.8,1.9,7.6,7.4c0,1.3,2.1,2.7,3.2,4.1c0.6-1.7,1.9-3.4,1.6-4.9
	c-0.8-4.4-1.2-8.5,2.6-11.8C868.9,595.1,870.7,593.8,872.5,592.2L872.5,592.2z M897.8,621.5c0.1-0.3,0.3-0.6,0.5-0.9
	c1-0.1,2.1-0.1,3.1,0c11.1,1.4,22.2,3,33.3,4.1c9.1,0.9,12-2.9,9.2-11.4c-3.3-10.2-6.8-20.4-10-30.6c-2.8-9.2-5-18.6-8-27.7
	c-1.5-4.7-4-9.1-6.2-13.9c4.2,1.5,7.1,4.4,9,9.7c2.8,8.2,4.9,16.6,7.9,24.8c7.1,20.2,15.8,39.8,25.9,58.6c2,3.6,3,7.8,4.9,13
	c-5.7-0.5-10.1-0.6-14.3-1.4c-4.4-0.8-6.3-3.8-6.1-8.1c0.2-2.6,0.1-5.2-0.4-7.8c-0.2-1.3-1.7-2.3-2.6-3.4c-0.6,1.3-1.1,2.7-1.4,4.2
	c-0.2,3.1,0.1,6.3-0.1,9.4c-0.2,2.8-1.8,3.6-4.7,2.7c-12.7-3.6-23.9-9.8-34.7-17.1C901.3,624.4,899.6,622.9,897.8,621.5L897.8,621.5
	z M960.9,591.3c7.8-2.5,11.8-0.9,14.4,5.8c1.9,4.9,3.4,9.9,5.3,14.8c2.6,6.5,5.8,12.9,13.2,15.1c4.4,1.4,4.2,4.7,4.2,7.5
	c-0.2,2.2-1.5,4.2-3.5,5.2c-6.6,2.3-13.5,4-20.3,5.7c-2.4,0.6-3.7-0.8-4.4-3.2c-1.2-3.9-2.7-7.8-4.5-11.5
	c-7.7-17.5-15.8-34.9-23.2-52.5c-3.4-8.2-5.5-16.9-8.1-25.4c5.3,8,10.1,16.3,14.5,24.8c2.5,4.7,6.3,9.3,7.1,14.4
	c1.9,10.6,5.3,20.8,9.9,30.5c0.9,1.9,2,3.6,3.5,5.1c2,2,4.4,1.4,5.2-1.2c0.4-1.4,0.4-3,0-4.4c-2.1-5.7-4.3-11.3-6.7-16.9
	C965.5,600.3,963.1,595.8,960.9,591.3z M903.6,875.1c-0.7-0.3-1.4-0.7-2-1.1c-7.4-5.5-14.8-11-22.2-16.7c-8.1-6-17.6-9.7-27.6-10.7
	c-8.2-1-16.3-1.8-24.4-3c-1.9-0.3-4.7-1.3-5.3-2.8c-1-2.3-0.8-5.2-0.7-7.8c0.7-0.7,1.7-1.1,2.7-1.1c11.7,0.3,23.5,0.6,35.2,1.1
	c1.2,0,2.5,0.3,3.5,1c9.3,7.5,20,12.4,31.4,16.1c7.1,2.3,9.4,5.6,9.5,12.9C903.7,866.8,903.6,870.6,903.6,875.1z M965.9,650.8
	l0.7,1.4c-2.4,1.7-4.9,3.3-7.5,4.6c-8.2,3.6-17,4.2-25.8,3.7c-8.6-0.4-17.2-0.9-25.8-1.6c-1.2-0.5-2.1-1.4-2.5-2.6
	c-2-4.7-3.9-9.4-5.6-14.2c-2.1-5.8-3.9-11.6-6.3-18.5c1,0.5,2,1,3,1.6c11.1,9.1,23.9,16,37.7,20.1c7.5,2.1,15.6,3.2,23.3,5.3
	C959.8,651.4,962.9,650.8,965.9,650.8z M848.9,797.8c-8.2,1.1-9.5,0.3-11.4-6.6c-1.5-5.4-3-10.9-4.3-16.4c-6.1-26-12.2-52-14.7-78.6
	c-0.8-8.3-0.3-9.3,7.5-12.6c19.8-8.2,40.7-12.4,61.5-17.1c3.5-0.8,7-1.4,10.5-2.1c0.1,0.3,0.2,0.7,0.3,1c-0.6,0.4-1.3,0.8-2,1.1
	c-15.5,4.5-31,8.6-46.4,13.4c-7,2.4-13.9,5.3-20.7,8.5c-4.4,2-6,5.5-5,10.2c1,4.7,1.4,9.5,2.3,14.3c3.2,17.3,6.3,34.6,10,51.9
	C839,776.1,839.5,788.3,848.9,797.8L848.9,797.8z M494,298.2c0,1.6,0.1,3.2,0,4.8c-0.9,9.6,0.6,19.4,4.3,28.3
	c5.2,12.5,15.3,20.5,26.6,27.5c6.4,4,12.7,8.2,18.9,12.5c2,1.4,3.1,3.3,1.3,5.6c-10,13-20.2,25.8-33.8,35.7
	c-2.1,1.3-4.3,2.4-6.6,3.4c-0.2-0.4-0.5-0.8-0.7-1.1c2.7-2.5,5.4-5.1,8.2-7.6c8.1-7.3,16.2-14.6,24.3-21.9c2.8-2.5,2.3-4.8-0.6-6.8
	c-2.2-1.5-4.5-2.9-6.7-4.3c-16.2-10.1-29.8-22.4-36.3-40.6C488.4,322.1,488.9,309.4,494,298.2z M511.3,224.2
	c0.4-0.2,0.7-0.3,1.1-0.4c9.8,2.4,19.7,4.7,29.4,7.5c1.8,0.8,3.3,2.3,3.9,4.2c0.3,1.1-1.2,3.2-2.4,4.1c-3.1,2.3-6.9,4-9.8,6.5
	c-2.5,2.5-6.3,3.3-9.6,2.1c-1.9-0.4-3.8-0.1-5.4,0.9c-0.7,0.5-0.1,3.2,0.4,4.7c1.7,4.3-0.3,7.9-6.2,9.3c0.9-2.4,1.8-4.3,2.3-6.3
	c0.4-1.8,0.8-3.7,1-5.6c-2-0.2-3.9-0.2-5.9,0c-4.4,1-8.7,2.6-13.1,3.4c-1.6,0.3-3.6-1-5.1-2.1c0-1.4,0.6-2.7,1.5-3.7
	c6.1-5.7,12.4-11.1,18.7-16.7c1.5-1.3,3.1-2.6,5-4.2L511.3,224.2z M491.4,439.6c5.4,2.2,10.4,4.4,15.5,6.3c3.3,1.2,8.2,1,9.8,3.1
	c4.3,6.4,8,13.1,11,20.2c1.4,3.1-1.2,5.1-4.4,4.7c-3.2-0.3-6.3-1.3-9.1-3c-7.4-5.2-14.5-10.8-21.3-16.8
	C486.7,448.4,486.9,446.6,491.4,439.6z M889.6,505.7l-1.6-0.4c0.3-4-0.3-8.3,1.2-11.8c1.3-3.1,0.6-3.7-1.8-4.8
	c-3.2-1.4-6.3-2.9-9.4-4.7c-4.7-2.9-4.4-6.1,0.9-8.2c1.8-0.7,3.8-0.8,5.7-0.4c8.8,1.8,14.9,7.4,20,14.2c3.5,4.6,4.7,10.1,2.6,15.2
	c-2.3,5.6-6,10.7-9.5,15.8c-0.7,1-4,1.6-4.8,1c-2.2-1.9-1-3.7,1.1-5.4c2.1-1.6,3.9-3.4,5.4-5.6c1.6-2.3,1.1-5.4-1.1-7
	c-0.2-0.2-0.5-0.3-0.8-0.5c-1.5-0.8-4.2,0.6-6.3,1.1C890.8,504.7,890.1,505.1,889.6,505.7L889.6,505.7z M857.7,828l-0.5,1.5
	c-10.7-0.4-21.4-0.8-32-1.4c-1-0.6-1.7-1.7-1.8-2.8c0.1-3.7,2.3-7.1,5.6-8.6c8-4.1,16.3-7.9,24.5-11.8
	C858.7,812.6,854.2,820.9,857.7,828z M760.3,492.6c-9.7-6.7-20.4-26.3-17.6-32.7c0.5,0.2,1,0.5,1.3,0.9c4.7,7.4,12.2,11.7,19.4,16.3
	c3.4,2.1,5.3,1.3,5.7-2.6c0.1-1.4,0.2-2.9,0.2-4.4l1.1-0.1c0.7,3.3,1.2,6.6,2.2,9.8c0.8,1.8,0,3.9-1.8,4.8
	C767.3,487,764,489.7,760.3,492.6z M728.5,433.3c-0.5,0.2-0.9,0.3-1.4,0.4c-0.4,0-0.8,0-1.2-0.2c-10.5-5.6-19.1-13.2-24-24.1
	c-0.4-1-0.3-2,0.2-2.9c2.5-3.2,5.3-6.3,8.1-9.5l16.1,9l-0.4,1.1c-1,0-2-0.1-3-0.3c-5.2-1.5-7.8,0.5-6.3,5.6
	c2.1,7,3.8,14.4,10.6,19.1C727.6,432,728.1,432.6,728.5,433.3L728.5,433.3z M651.5,265.7c-4.3,2.5-4.3,6.6-3.1,10.7
	c1.1,2.7-0.1,5.7-2.7,6.9c-6.5,4.1-12.9,8.5-19.5,12.4c-5.3,3.2-5.4,3-9.8-1.8c0.1-0.2,0.3-0.4,0.5-0.6
	c12.2-3.2,20.4-11.2,27.3-20.9c2.5-3.4,3-6.8,0-10.6c-1.4-1.8-1.7-4.5-2.5-6.7l1.2-0.5L651.5,265.7z M985.8,578.7
	c11,5.9,19.7,35.8,14.2,43.2c-4.5-10.9-9-21.7-13.5-32.6c-0.3-0.6-0.6-1.3-0.7-1.9C985.7,584.5,985.8,581.6,985.8,578.7z
	 M431.4,157.3c10.9,2.8,19.8,18.5,17.5,30.4c-6.2-2.9-12-5.9-15.7-12.4c4.9-0.8,4.8-2.9,2.9-6.3
	C434.2,165.6,433.1,161.7,431.4,157.3z M653.8,216.5c-0.2-0.7-0.7-2.5-1.2-4.4c9.1-2.5,18.7-2.1,27.5,1.1c4.1,1.4,6.3,4.8,7.8,9.3
	c-0.7-0.1-1.3-0.3-2-0.6c-1.3-1.3-2.5-2.6-3.8-3.9c-4-4.3-4-4.3-7.4,0.4c-3.2,4.4-4.2,4.7-9,2.1c-1.3-0.8-2.6-1.6-4.1-2.2
	C659.6,217.6,657.1,217.3,653.8,216.5L653.8,216.5z M537.5,226.4c-19.2-3.3-36.1-10.5-53.7-19C494,206.6,533,220.4,537.5,226.4z
	 M491.1,257.5c6.8,3.5,12.9-0.9,18.9-1.8c-0.2,3-0.8,5.8-0.3,8.4c0.8,3.3-1.3,6.6-4.6,7.4c-0.8,0.2-1.6,0.2-2.4,0.1
	C498.1,270.7,490.6,263.8,491.1,257.5L491.1,257.5z M488.3,247.4c-2.6-4.8-2.4-7.5,1.3-11.1c3-2.9,6.4-5.3,9.5-8.1
	c3.6-3.2,6.8-1.8,10.2,0.2L488.3,247.4z M623,219.6c-0.3,0.3-0.5,0.6-0.8,0.9l-27.9-21.8C605.1,198.4,619.3,209.5,623,219.6
	L623,219.6z M592.7,239.9l-1.2-1c1-1.1,1.9-2.1,2.9-3.2c8.5-9.2,9.3-14.5,3.9-24.8c0-0.1,0.1-0.3,0.1-0.4c7.2,1.1,11.8,7.3,9.1,13
	C604.3,230.3,598.5,235.2,592.7,239.9L592.7,239.9z M866.4,822.6l-0.3,0.1c0.1,0.7,0.1,1.4,0,2c-0.5,1.2-1.1,2.3-1.7,3.4
	c-1-0.8-2.5-1.5-2.8-2.5c-0.6-2.4-1-4.8-1.2-7.2c-0.6-4.6-1.2-9.2-1.8-13.7c-0.1-0.9,0-1.8,0.3-2.6c0.5-0.4,1.1-0.6,1.8-0.4
	c1,0.9,1.8,2,2.3,3.3C864.2,810.7,865.2,816.7,866.4,822.6z M517.9,266.5c3-3.5,5.3-7,10.8-3.8c2,1.2,5.2,0.4,7.9,0.5c1,0,2,0,3.7,0
	C533,269.3,524.6,270.5,517.9,266.5z M785.5,593.2c4.6-2.4,10.9,3.1,12.7-6c3.3,4.5,0.8,8.9,2.1,12.7c-0.3,0.3-0.7,0.6-1,0.8
	L785.5,593.2z M624.1,226l-15.2,4.8c1.6-4,3.1-7.9,4.6-11.7L624.1,226z M641.9,250.4l-1.2,1.3c-4.4-0.9-6.8-4.3-9.2-7.8
	c-2.1-2.9-2.4-6.6-0.9-9.8c2.1,3.2,3.8,5.8,5.6,8.4C638.1,245.1,640,247.8,641.9,250.4L641.9,250.4z M931.9,545.7l-10.9-9.9
	c0-0.3,0.1-0.6,0.1-0.8c5.1,1.1,10.2,2.3,15.4,3.4L931.9,545.7z M962.5,549.6c0.4-0.4,0.7-0.9,1.1-1.3c2.9,1.9,6,3.6,8.7,5.7
	c2.5,1.9,4.8,4.1,7,6.4c0.5,0.5,0.2,1.7,0.2,2.6c-0.7,0.2-1.5,0.2-2.3,0.1C972.3,558.6,967.4,554.1,962.5,549.6L962.5,549.6z
	 M513,443.1c-6.1-2.2-13.2-2.5-18.2-7.7C499.6,432.5,506.9,435.6,513,443.1z M947.9,696.7l15.6-17.6
	C964.6,685.7,956.3,694.9,947.9,696.7z M794.7,587c-6.6-1.7-13.9,0.4-20.1-3.3C781.4,581.9,788.7,583.1,794.7,587z M540,257.8
	c0,0.4,0,0.9,0,1.3l-13-0.7C530.5,253.2,533.4,253.3,540,257.8z M884.1,605.3c-0.6,0.1-1.2,0.3-1.8,0.4l-5.3-14.3
	c0.7-0.2,1.3-0.4,2-0.6L884.1,605.3z M892.1,541.1c5.8-5.8,8.3-6.6,10.4-3.7L892.1,541.1z"/>
</svg>
