<?xml version="1.0" encoding="utf-8"?>
<!-- Generator: Adobe Illustrator 27.0.1, SVG Export Plug-In . SVG Version: 6.00 Build 0)  -->
<svg version="1.1" id="Layer_1" xmlns="http://www.w3.org/2000/svg" xmlns:xlink="http://www.w3.org/1999/xlink" x="0px" y="0px"
	 viewBox="0 0 2967.4 1032.5" style="enable-background:new 0 0 2967.4 1032.5;" xml:space="preserve">
<style type="text/css">
	.st0{fill-rule:evenodd;clip-rule:evenodd;fill:#BEBEC0;}
</style>
<path class="st0" d="M468.9,919.8c-7.8,5.4-15.8,11.9-24.7,16.9c-18.5,10.3-38.1,13.3-58.6,6c-8.2-3-15.6-7.8-21.8-14.1
	c-0.7-0.7-1.5-1.4-2.3-2.1c-0.2,0.3-0.4,0.6-0.5,1c3,5.1-0.1,6.9-4.3,8.8c-18.6,8-36.5,6.7-53.9-3.5c-3.1-1.8-6.1-3.8-9.2-5.6
	c-6.9-4-13.7-4-20.4,0.5c-7.9,5.3-15.7,10.7-23.2,15.8c5.8-0.5,12.2-0.5,18.4-1.6c24.6-4.1,45.6,2.9,63.7,19.7
	c11,10.3,23.1,19.2,37,25.3c29.7,13,60.2,14.9,91.5,6.8c13.6-3.7,26.6-9.6,38.2-17.6c7.1-4.8,14.5-5.5,22.7-3
	c14.5,4.3,29,9.1,43.8,11.8c32.1,5.8,62.9,3.1,89.6-18.4c8.5-6.7,15.1-15.6,19-25.7c-5.7-3-11.1-5.8-16.4-8.6
	c-0.8-0.3-1.6-0.8-2.2-1.5c-0.5-0.8-0.8-1.7-1.1-2.6c0.9-0.3,1.9-0.4,2.8-0.3c8.2,3,16.2,6.4,24.4,9.1c17.3,5.9,35,9.6,53.5,6.9
	c9.7-1.4,19.2-3.9,27.3-9.8c3.5-2.5,6.2-6,9.3-9.1c0.8-0.7,1.8-1.1,2.9-1.1c-3.1,8.3-10.8,13-16.4,20.9c6.3,2.3,12.2,5.2,18.5,6.7
	c29.3,6.9,56.2,1.8,80.1-17.2c5.4-4.3,6.7-10.6,8.9-16.3c2.8-7.6,4.6-15.5,6.9-23.3c1.6-5.5-1-9.7-4.8-13.2
	c-8.1-7.4-17.7-11.9-28.8-11.9c-3.9,0-6-1.4-7.5-4.9c-2.4-5.7-5.2-11.1-7.7-16.8c-0.7-1.8-1.3-3.7-1.8-5.6l1.4-0.8
	c0.9,0.7,1.7,1.6,2.3,2.6c6.1,16.7,19.5,21.5,35.6,22.2c7,0.3,14.2,0.4,20.9,2.1c13.6,3.6,24,12.2,31.9,23.6
	c4.9,7.1,9.1,14.7,13.6,22.1c4.4-1.5,8.8-3.4,13.4-4.6c13.2-3.6,26.9,4.2,30.5,17.4c0.1,0.5,0.3,1,0.4,1.5c0.9,4.1,2.5,4.9,6.2,4.9
	c78-0.1,155.9-0.1,233.9,0c121.1,0,242.1,0.1,363.2,0.1c54.7,0,109.3,0.1,164,0.2c1.5,0.3,2.9,0.8,4.1,1.5c-1.5,0.7-3,2.1-4.6,2.1
	c-52,0-103.9-0.2-155.9-0.2c-69.4-0.1-138.8-0.1-208.2-0.1c-131.3,0-262.6-0.1-393.8-0.1c-9.7,0-9.6,0-12.6-9.2
	c-5-15.2-18.1-18.7-32.9-13.2c-1.9,0.6-3.6,1.6-5.1,2.7c-3.3,2.7-4.9,1.8-6.5-2c-5.2-12.6-12.3-24.1-22.7-33.2
	c-9-8.2-20.8-12.6-32.9-12.5h-11.7c3.4,2.3,6.3,4.2,9.1,6.1c1.6,1.1,3.1,2.4,4.5,3.7c5.5,4.8,7.6,10.8,5.3,17.8
	c-3.3,10.4-6.9,20.7-10.2,31.1c-1.9,5.9-6.8,9.2-11.4,12.3c-30,20.2-61.6,22.6-94.5,7.8c-5-2.2-4.9-2.4-5-5.5
	c-8.1,1.6-16.2,3.8-24.4,4.7c-16.6,1.8-32.5-2.4-48.2-7.4c-2.1-0.7-3.3-1.4-4.5,1.4c-8.1,19.6-23.1,32.2-42,40.5
	c-17.9,7.9-36.7,9.6-56,7.9c-19.8-1.7-38.6-7.3-57.2-13.6c-7.7-2.9-16.4-1.7-23.1,3.1c-24.4,16.5-51.5,23.6-80.6,22.2
	c-30.5-1.2-59.6-12.9-82.3-33.2c-9-7.9-18-16-29.4-20.4c-13.4-5.2-27.2-4.1-41-2.8c-18.1,1.7-36.1,3.7-54.2,5.6
	c-12.7,1.3-25.4,2.8-38,4.1c-1.3-0.1-2.6-0.5-3.8-1.1c0.7-1.1,1.5-2,2.4-2.9c4.8-3.5,10.5-5.4,16.4-5.4c7.1,0,14.1,0.1,21.2,0.6
	c21.5,1.7,42.8-5.2,59.3-19.2c5.2-4.3,11.1-7.7,18.1-6c4.5,1.1,8.7,3.1,12.6,5.7c9.3,6.7,20.4,10.5,31.9,10.9
	c8.4,0.4,16.8-1.2,24.6-4.6c2.4-1.1,3-2.4,2.2-5.3c-1.9-6.8-5.8-12.1-10.4-17.2c-0.8-1.3-1.5-2.8-1.8-4.3c1.5,0.6,2.9,1.5,4.1,2.5
	c6.6,6.8,12.5,14.3,19.6,20.4c17.5,15.1,37.9,16.7,59.3,10.5c19.9-5.8,34.8-18.9,48.2-34.1c0.4-0.6,0.9-1.2,1.4-1.7
	c0.8-0.5,1.7-0.8,2.6-1.1c0.2,1,0.1,2.1-0.1,3.1c-3.4,6-6.7,12.1-10.5,17.9c-1.7,2.6-1.3,4.2,0.7,6.1c13.1,12.3,29.1,21,46.5,25.3
	c15,3.9,30.3,4.9,45.5,1.8c31.2-6.5,55.3-22.5,68.6-52.5c0.2-0.6,0.4-1.2,0.6-1.7c-7-3.9-13.9-7.4-20.4-11.5
	c-2.1-1.3-3.4-4.1-5.1-6.2c2.4,0.6,4.7,1.4,6.9,2.3c25,11.7,51.5,15.6,78.9,14.4c21.3-1,42.4-4.3,63-9.8c16.4-4.4,32-10.6,43.3-24.1
	c10.9-13,14.3-28.1,12-44.6c-4.8-34.7-40.9-57.2-72.8-53.6c-13.8,1.5-22.6,9.9-23.8,23.6c0.1,0.7,0,1.5-0.2,2.2
	c-0.6,0.7-1.3,1.4-2,1.9c-0.6-0.5-1.1-1.2-1.4-2c-0.1-2.5,0-5.1,0.5-7.6c2.7-9.7,0.4-20.2-6.2-27.9c-6-7.5-12.1-15.3-22-17.8
	c-5-1-10.1-1.3-15.2-0.9c-4.6,0.3-9.3,0.9-13.8,1.9c-4,0.6-7.7,2.5-10.5,5.5c-4.7,5.4-9.8,10.5-14.9,15.6c-0.9,0.6-1.8,1-2.9,1.3
	c0-1.1-0.5-2.5,0.1-3.2c4.3-5.5,8.6-11.1,13.3-16.2c1.9-2,1.9-3.2,0.8-5.3c-7.9-15.2-20.2-25.5-35.4-32.6
	c-12.7-5.9-26.7-8.7-40.7-8.1c-6,0.2-12,3-18,3.6c-16.9,1.5-31.2,8.8-44.9,18.2c-3.1,2.1-7.6,2.2-11.3,3.6c-2.5,0.8-4.8,2.1-6.8,3.8
	c-9.4,9.3-16.7,20.6-21.2,33.1c-0.1,0.7-0.4,1.4-0.7,2.1c-0.8,0.8-1.7,1.6-2.6,2.2c-0.2-1.1-0.9-2.3-0.6-3.2
	c2.7-6.8,5.8-13.5,9.2-19.9c2.9-5,7.1-9.2,10.8-13.8c0.6-0.8,1.2-1.6,2.3-3c-14.2-3.3-27.8-6.3-42-5.8c-1.9-0.2-3.7-0.7-5.5-1.4
	c1.8-0.9,3.7-1.5,5.6-2c3.1-0.3,6.2-0.1,9.6-1c-2-0.6-3.9-1.2-5.9-1.7c-6.9-1.6-7.5-2.4-7.7-9.3c-0.7-25.8,4.6-50.3,14.4-74.1
	c8.5-20.5,12.8-41.7,9.9-64.2c-2.1-15.8-2.8-31.7-4.2-47.5c-0.2-1.8-0.6-3.6-0.9-5.4l-1.2,0.1c0,10.6-0.9,21.2,0.2,31.7
	c2.2,22-0.8,43.2-6.7,64.5c-4.2,16.1-7.6,32.4-10.1,48.8c-3,18-5,36.2-7.3,54.4c-0.5,4-2,5.2-6,5.2c-47.2-0.1-87.1,16.1-117.9,52.6
	c-1.5,1.8-2.9,3.8-4.3,5.6c7.6,1.8,15.3,2.7,22.2,5.5c7.7,3.1,14.7,8,21.9,12.2c0.6,0.4,0.8,1.7,1.1,2.5c-1.1,0.1-2.4,0.5-3.1,0.1
	c-10.9-6.3-22.9-9.1-35.2-10.2c-38.8-3.6-77.4,14.6-94.9,53c-9,19.8-12.5,40.3-7.4,61.8c1.2,5,0.5,5.1-4.6,5.1
	c-10.6-0.3-21.3,0-31.9,0.7c-12.9,1.2-22.9,8.3-31.1,18.1c-2,2.4-4.3,4.6-6.2,7.2c-9.6,13.2-22.7,18.7-38.8,19.1
	c-29.4,0.7-58.8,1.9-88.2,2.9c-0.6,0.1-1.2,0.1-1.8,0c-1.1-0.5-2.2-1.1-3.2-1.7c1.1-0.6,2.2-1.7,3.4-1.8c12.3-0.3,24.6,0,36.9-0.6
	c21.3-1,42.6-2.4,63.8-3.6c9.3-0.5,15.9-5.7,21.8-12.2c4.3-4.6,8.4-9.4,12.6-14.1c10.5-11.8,24-17.2,39.4-18
	c7.8-0.4,15.6-0.1,24.1-0.1c-6.1-34.5,2.2-65.7,27.1-91.1c25-25.5,56.3-32.7,91-26.8l0.1-1.2l-25.4-4c5.3-6.6,9.6-12.7,14.7-18.1
	c19.9-21.1,45.7-35.8,74-42.2c12.3-2.9,25.2-3.2,37.9-4.3c3-0.3,4.2-1.1,4.6-4c2-16.1,3.9-32.2,6.3-48.2
	c3.6-23.9,8.8-47.5,15.5-70.7c3.8-13.3,2.6-27.1,2.4-40.7c-0.1-14.1,0-28.2,0.3-42.3c0.2-7.6-2.3-12.1-9.4-14.6
	c-6.1-2.2-12.2-4.3-18.2-6.5c-3.3-1.2-3.9-2.6-2.2-6.3c7.8-17.8,15.1-35.9,22.5-53.9c7.8-18.7,8.5-38.9,11.5-58.5
	c-0.2-0.6-0.4-1.1-0.7-1.6c-2.3,5.1-4.7,9.5-6.4,14.2c-5,14.3-9.5,28.7-14.4,43.1c-5.9,17.3-12.1,34.5-18.1,51.7
	c-0.3,1.1-0.3,2.3,0,3.4c2.5,8.6-0.2,17-7.7,21.6c-5.5,3.6-11.4,6.5-17.5,8.9c-4.6,1.6-9.8,1.4-14.7,2c-1.5,0.1-3,0.3-4.4,0.6
	c-4.2,1.4-6.8-0.8-5.9-5.2c0.2-1.5,0.9-2.9,2-4c5.6-5,7.8-11.9,10.4-18.6c2.4-6.3,5.5-12.3,7.5-18.7c2-6.4,2.7-13.1,4.3-19.6
	c7.9-31.1,15.9-62.2,28.7-91.8c4.7-10.4,9.9-20.5,15.7-30.3c7.6-13.2,20.4-19,34.4-22.5c5.8-1.5,11.8-2.1,18.1-3.2
	c0.5-2.1,1.9-4.7-2.2-5.9c-0.7-0.5-1.1-1.3-1.2-2.2c-1.5-8.8-7.3-14.9-13.1-21c-3.5-3.5-6.8-7.2-9.7-11.2
	c-5.4-8.3-6.7-16.9-0.5-25.6c0.9-1.2,1.4-2.6,1.4-4.1c-0.7-11.3,6.1-17.8,15.2-21.6c11.7-4.9,23.9-8.9,36-12.9
	c9.9-3.2,15.7,1.3,17,11.7c0.9,6.9,3.2,13.6,5.3,20.3c0.2,0.8,2.7,1.4,4,1.2c10.1-1.7,20.2-4.1,30.4-5.5c13.5-1.9,27.1-3.5,40.7-4.4
	c10-0.7,20.1-0.1,30.1-0.1l-0.4-1.6c2.6-1,5.2-2.7,7.9-3c23.5-2.3,46.9-4.2,70.4-6.4c7.1-0.7,14.3-1.6,21.4-2.5
	c4.5-0.6,7.4,2,10.2,4.8c12.2,12.3,12,35.4,5,47.2c-4.7,8.1-11.4,10.4-20.1,7.3c-1-0.3-2-0.5-3.1-0.5c-26.7-0.6-53.5-1.3-80.2-1.9
	c-5.7-0.1-10.6-1.7-13.5-7.3c-0.6-0.9-1.6-1.5-2.6-1.7c-3-0.1-5.9,0.3-9.2,0.5c-0.1,1.5-0.1,3,0,4.4c2.8,19.4,5.8,38.8,8.4,58.3
	c1,7.6,1.5,15.2,1.3,22.9c-0.2,8.4-3.7,11.9-12.1,13.8c-17.4,3.9-34.9,3.2-52.4,0.2c-1.2-0.2-2.3-0.4-4.3-0.7c0.6,6,1,11.6,1.7,17.2
	c3.6,26.7,10.8,52.5,18.5,78.3c2.2,7.5,2.5,15.6,3.1,23.5c0.3,4.6-1.8,6.2-6.5,5.7c-5.2-0.5-10.4-1.2-16.1-1.9
	c0.3,6,0.5,11.9,0.9,17.9c3,43.3,3.5,86.8,1.5,130.1c-0.8,19.8-2.3,39.6-3.6,59.3c-0.3,3.4-0.8,6.9-1.5,10.2
	c-0.7,3.4,0.1,4.3,3.8,4.4c24.6,0.4,46.2,8.5,63.6,26.3c5.6,5.7,9.8,12.7,14.2,18.5c9.2-1.3,18.4-2.7,27.5-3.7
	c8.3-0.9,16.7,1.9,22.8,7.6c7.8,6.9,15.2,14.1,18.8,24.2c0.8,2.4,1.3,4.8,2.1,7.9c1.7-1.4,3.2-2.7,4.8-3.9c10.1-8.2,22-8.8,33.8-6.8
	c22.1,3.8,40.1,14.7,51.9,34.5c17,28.1,8,64.7-20.1,81.7c-1.1,0.7-2.2,1.3-3.3,1.9c-13.1,7-27.2,11.1-41.6,14.1
	c-18.8,3.9-37.8,6.7-57.1,6.8c-15.7,0.2-31.3-1.8-46.4-5.8c-3.4,6.4-6.2,13.1-10.2,18.9c-22.7,32.1-54.2,45.9-93,42.8
	c-25.2-2-47.1-12.2-65.8-29.3c-3.6-3.3-4.9-6-1.3-9.9C468.2,921.5,468.7,920.7,468.9,919.8z M466.4,466c-2.1,8.1-3.9,16-6.1,23.8
	c-0.6,2.2-1.7,5-3.4,6c-4.9,2.7-4.1,6.1-2.7,10.3c1.6,4.2,2.7,8.5,3.3,12.9c1.5,13.7,2.3,27.5,3.9,41.2c2.8,24.3,0.7,47.8-9,70.6
	c-10.2,23.6-15.3,49.2-14.8,75c0.1,2.9,0.9,4.5,3.6,5.2c5.6,1.6,11.1,3.5,16.8,5c9.4,2.4,9.3,2.3,11.2-7c5-24.8,10.2-49.6,15.1-74.5
	c3-15.1,6.4-30.2,8.5-45.5c3.3-24.7,5.7-49.5,8.3-74.2c0.4-3.6,1.6-5.4,5-6.2c4.5-1,9-2.3,13.4-3.8c2.9-1.1,6.3-2.3,8.3-4.5
	c4.9-5.9,9.5-12,13.7-18.3c3.6-5.1,6.7-10.6,9.9-15.9c1.4-2.2,0.5-3.8-1.6-5.2c-7.2-5.2-15-5.5-22.7-2.1
	C507.8,467.3,487.8,469.5,466.4,466z M607.1,323.2c-24.9-12.2-51.6-20.2-79.1-23.5c0.1,0.4,0.2,0.8,0.5,1.2
	c12,13.1,17.1,28.9,18.4,46.3c0.9,12.1,1.8,24.2,3.3,36.2c1.5,12,3.9,24,5.6,36c1.1,8.1,1.8,16.2,2.7,24.4l4.5-0.2
	c0.8,8,1.8,15.7,2.3,23.4c0.2,2.6,1,3.9,3.4,4.3c3.9,0.6,7.7,1.1,11.5,1.9s5.4-0.2,5.4-4.5c-0.1-13.9-4.7-26.8-8.8-39.8
	c-7.5-25.1-12.6-51-15.1-77.1c-0.3-3.1,0.9-4.2,3.9-3.5c4,0.8,7.9,1.7,11.9,2.2c15.6,2,31.1,2,46.5-2c4-1.1,6.3-3.6,6.6-7.5
	c0.5-4.6,0.6-9.3,0.1-13.9c-2.4-16.9-5.3-33.8-7.8-50.7c-0.8-5.6-1.3-11.2-1.9-16.6l-23.7,3.7C600.5,282.6,603.7,302.4,607.1,323.2
	L607.1,323.2z M515.6,509.4c-3.1,0.9-5.5,1.7-7.9,2.3c-2.4,0.6-3.1,1.9-3.4,4.4c-2.1,21.3-3.9,42.7-6.9,64
	c-2.8,19.7-6.8,39.3-10.6,58.8c-4.7,24.1-9.9,48.2-14.8,72.3c-1.7,8.3-1.4,8.5,7,9.5c3.3,0.4,7.5,1.1,9.8-0.4
	c11.6-7.8,24.4-13.6,38-17.1c2.7-0.7,3.7-1.9,3.4-4.7c-0.7-8.1-1.5-16.2-1.6-24.2c-0.4-25.5-0.6-51-0.9-76.5
	c0.1-5.2-0.4-10.5-1.3-15.6c-3-13.9-7.2-27.5-9.6-41.5C514.9,530.6,512.5,520.4,515.6,509.4z M556.3,466.7
	c-7.1,9.3-14,18.3-20.8,27.4c-5.2,6.9-9.9,14.4-8.7,23.4c0.8,6.8,2.4,13.5,4.9,19.9c6.5,15.2,9.7,31.7,9.4,48.2
	c-0.9,34.9-0.5,69.6,5.6,104.1c1.7,9.7-0.7,8.2,9.8,7.4c2.6-0.2,3.6-1.4,3.8-3.9c0.8-8.7,2.2-17.3,2.5-26
	c1.3-35.1,3.1-70.2,3.2-105.3c0.1-27.1-2.1-54.3-2.8-81.4C563,474.2,560.7,469.8,556.3,466.7z M461.4,349.7
	c-1.9-9.8-6.8-18.6-17.3-23.4c-6.6-2.9-7.3-2.5-11,3.7c-9.1,15.2-16.3,31.5-21.6,48.4c-6.2,19.3-11.6,38.8-17.2,58.2
	c-2.4,8.4-4.6,16.8-6.5,25.3c-1.2,5.6,0,7.3,5.6,8.7c5.8,1.5,11.8,2.7,18.3,4.1c0.7-1.2,1.3-2.4,1.8-3.7c6-17.9,12.5-35.7,17.9-53.7
	c6.5-21.6,13.8-42.8,25.5-62.3C458.1,353.2,459.7,351.4,461.4,349.7z M729.3,209.6c-0.4-0.2-0.8-0.3-1.2-0.4
	c-27.5,2.5-55,5-82.4,7.6c-1.4,0.4-2.6,1.5-3,2.9c-0.7,4.7-1.7,9.6-1.1,14.3c0.5,4.7,0,7.6-5,8.1c1.1,12.8,4.2,15.8,16.3,16.1
	c11.7,0.3,23.4,0.8,35.1,1c13.4,0.2,26.9,0,40,0C718.9,241.1,720,225,729.3,209.6z M516.8,326.3c0.9,2.7,2.3,5.2,2.5,7.7
	c0.8,11.5,1.9,23.1,1.8,34.6c-0.2,27.9-2.2,55.6-8.2,83c0.2,0.2,0.4,0.4,0.7,0.5c13-0.4,26-2.5,38.5-6.4c1.2-0.8,1.9-2.1,1.9-3.4
	c-0.8-11.2-1.6-22.4-3-33.6c-2.1-16.8-4.9-33.5-7.1-50.3c-1.1-8.6-1.1-17.4-2.6-25.9c-1.9-10.1-6.5-19.6-13.3-27.4
	c0.4,3,0.7,6.1,0.8,9.1c-0.1,6.6-1.7,7.5-7.5,4.8c-0.9-0.4-1.8-0.7-2.8-1.1C517.2,321.1,521,325.3,516.8,326.3L516.8,326.3z
	 M518.9,296.3c4,0,7-0.1,10.1,0c2.4,0.2,4.8,0.6,7.1,1.2c13.5,3.3,27.1,6.2,40.5,10c8.7,2.5,17.1,6.1,25.8,9.4c0.1-1,0.1-2,0-3
	c-2.6-16.1-5.3-32.2-7.8-48.4c-0.5-3.5-1.3-6.3-5.3-7.5c-1.8-0.5-2.9-2.8-4.6-4.1c-1.1-0.9-2.5-1.5-3.9-1.7c-2.1,0-4.2,0.1-6.3,0.4
	c-5.5,0.5-10.1-0.6-12.9-6c-0.9-1.1-2.2-1.7-3.6-1.7c-6-0.2-12,0-18-0.3c-3.2-0.1-3.6,1-3.5,3.9c0.2,7.8,0,15.6-0.3,23.4
	c-0.2,6.1-3.5,10.4-8.9,13c-3.1,1.5-6.3,2.8-9.6,4.3L518.9,296.3z M449.8,493.8c0.3-0.4,0.6-0.9,0.8-1.4c2.3-13.3,4.6-26.6,7-39.9
	c1.5-8.2,1.8-8.4,9.7-6.3c2.1,0.6,3.5,0.6,3.8-2c1.7-14.7,4.3-29.4,4.9-44.2c0.5-12.4-1.4-24.8-2.4-37.2c-0.5-3,1-6.1,3.6-7.6
	c3.2-1.9,6.4-3.9,9.3-6.2c0.9-1.1,1.2-2.5,0.8-3.8c-4.3-5.9-8.8-11.7-13.5-17.3c-1.9-2.2-2.1-3.3-0.3-5.6c2.7-3.5,4.8-7.4,7.2-11.1
	c-10.4-6.5-25.2-2.4-39.2,10.3c2.6,1.1,5,2.4,7.4,3.8c11,7.7,17,18.6,16.7,31.8c-0.3,16-2.1,32-3.6,47.9c-1.8,18.6-6.9,36.5-13.5,54
	c-3.3,8.8-5.9,17.7-4.6,27.2C444.4,489.6,445,493.5,449.8,493.8z M491.3,265l-2.3,0.4c-0.7-1.4-1.5-2.7-2.4-4
	c-2-2.7-3.8-5.7-6.4-7.6c-1.2-0.9-4.5-0.3-5.9,0.8c-1.1,0.9-1.3,4-0.7,5.5c1.1,2.3,2.7,4.3,4.7,5.7c6,4.5,12,8.7,11.5,17.5
	c0,0.8,3.5,2.3,5.5,2.6c2.3,0.3,4.7-0.8,7-0.9c4.6-0.2,9.3,0.1,13.9-0.2c7.9-0.6,11.9-3.3,13.2-11.1c1.4-8.6,1.2-17.5,1.3-26.3
	c0-1.3-1.9-3.1-3.4-3.9c-3.5-1.9-6.8-4.4-6.3-8.5c0.3-2.5,2.9-4.7,4.5-7.1l1.4,0.5c-1-2.8-2-5.5-3-8.3c-1-2.9-3-3.9-6.2-3.8
	c-10.4,0.3-16.6,6.9-21.9,14.5c-0.5,0.7,0.1,2.2,0.1,3.4c0,3.7,1.5,8.3-0.2,11C492,251.3,488.4,257.1,491.3,265L491.3,265z
	 M525,506.3c-5.6,2.8-7.2,5.1-7.1,10.9c0.7,19.8,3.8,39.5,9.5,58.5c2.1,7.2,3.2,14.6,3.4,22c0.3,15.9-0.7,31.8-0.3,47.7
	c0.4,17.4,1.9,34.8,2.9,52.1c0.2,3.4,1.5,4.2,4.6,3c1-0.4,2-0.7,3.1-0.7c3.6,0,3.5-2,3.1-4.8c-2.2-17.7-5-35.4-6.2-53.1
	c-1.1-16.7-0.6-33.6-0.4-50.4c0.2-16.9-1-33.5-7.6-49.4C525.3,530.9,520,519.7,525,506.3z M582.6,248.5c-0.8-2.2-1.3-3.2-1.7-4.3
	c-1.3-4.2-0.3-7.8,2.7-8.4c4-0.8,5.6,2,6.6,5.2c0.1,0.6,0.3,1.2,0.5,1.7c1.3,2.8,3.4,4.2,6.5,3.2c1.7-0.5,3.4-1.2,5-1.9
	c5.8-2.6,12.7-0.6,16.1,4.8c0.5,0.7,1.1,1.4,2.2,2.8c0.1-1,0.1-2.1,0-3.1c-0.8-5.3-0.1-6.5,5.3-7.8c1.5-0.2,2.9-0.6,4.3-1.1
	c1.1-0.6,1.9-1.5,2.2-2.7c0.7-5.4,1.2-10.8,1.8-16.6c0.4,0.2,0.1-0.1-0.1,0c-21.6,1.8-43.3,3.6-64.9,5.5c-1.4,0.2-2.7,1-3.5,2.2
	c-1.1,4.4-2.3,9-2.1,13.4c0.1,3.1,1.6,7.2,5.9,7.5C573.8,249.1,578.2,248.9,582.6,248.5L582.6,248.5z M507.7,331.1
	c-8.4,1.1-8.4,1.1-8.8,8.3c0,1.5-0.2,3-0.4,4.5c-2.5,13.8-4.6,27.8-7.8,41.5c-4,17.1-8.9,33.9-13.5,50.8c-1,3.8-2,7.7-3.2,12l12,2.1
	c0.4-2.9-0.1-6,1.1-7.1c5.4-4.9,7.4-11.3,8.9-17.9c6.2-27.5,10.1-55.5,11.7-83.7C507.9,338.2,507.7,334.9,507.7,331.1L507.7,331.1z
	 M518.1,370.9c-0.8-12.3-1.6-24.5-2.5-36.8c-0.1-1.2-1.7-2.2-2.6-3.3c-0.6,1-1.7,2-1.7,2.9c-0.4,30.3-5.4,60-11.4,89.5
	c-1.5,7.3-3.6,14.5-9,20.3c-2.6,2.9-0.2,7.8,3.8,8.2c3,0.3,6,0.1,9,0.6c4.5,0.7,6.1-1.4,6.9-5.5
	C515.1,421.8,517.7,396.4,518.1,370.9L518.1,370.9z M441.7,492.2c-0.6-2.5-1.1-5.1-1.4-7.7c-0.5-8.4,1.5-16.4,4.3-24.2
	c5.4-14.8,10.5-29.7,12.5-45.4c2-15.9,3.8-31.9,5.5-47.8c0.2-4.3,0.3-8.6,0.1-13l-2.4-0.2c-6.1,21.8-4.7,45-12.2,66.5
	c-7.6,21.7-15.2,43.2-26,64.5L441.7,492.2z M462.7,235.1c8-1.4,15.6-2.7,23.2-4c4-0.7,7.7-1.8,10.4-5.5c6.9-9.7,16.2-14,28.5-12.1
	c-0.1-2.7-0.2-5.3-0.4-8c-0.4-6.2-3.3-8.8-9.5-7.7c-5,1.1-9.9,2.5-14.6,4.3c-9,3.2-18.1,6.3-26.9,10.1c-6.1,2.4-10.1,8.2-10.3,14.7
	C463.1,229.1,462.9,231.3,462.7,235.1z M479.2,413.4l0.9,0c0.4-0.8,0.7-1.6,1-2.4c3.8-15.4,8.2-30.7,11.1-46.3
	c2.2-11.7,2.4-23.8,3.2-35.7c-0.1-2.2-0.9-4.3-2.3-5.9c-3.9-5-7.3-10.2-7.8-16.9c-0.5-1.3-1.6-2.3-3-2.6c-2-0.1-4,0-5.9,0.4
	c0.5,0.9,1.3,1.6,2.3,1.9c5.8,2.1,6.6,4,3.4,9.3c-2,3.3-4.1,6.5-5.8,9.1c5.1,7.1,9.8,13.8,14.8,20.4c2.4,3.2,1.2,5.2-1.7,6.9
	c-3.1,1.8-6.2,3.6-9.3,5.5c-2.7,1.6-3.7,3.6-3,7.1c1.2,6.3,1.9,12.8,2.1,19.2C479.4,393.3,479.2,403.4,479.2,413.4z M367,509.6
	l0.8,0.6c0.9-0.4,1.6-1,2.3-1.7c2.6-3.8,5-7.8,7.6-11.6c1.1-1.2,2.2-2.3,3.5-3.3c-0.1,1.7,0.3,3.6-0.4,5c-1.8,3.4-4.1,6.6-6.1,9.9
	c1.2,0.1,2.5-0.3,3.3-1.2c1.9-2.3,3.6-4.8,5.5-7.1c1.1-0.9,2.3-1.7,3.5-2.4c-0.1,1.5-0.3,2.9-0.7,4.3c-0.5,1.2-1.2,2.4-1.9,3.6
	l1.3,0.8c2.2-2.7,4.4-5.5,6.7-8.2c0.8-0.7,1.8-1.2,2.8-1.5c0,1.2,0.5,2.6,0,3.5c-1.5,2.2-3.2,4.4-5,6.4c8.6-3.2,11.1-10.7,15.3-16.6
	l1.7,0.8c-0.9,2.6-1.8,5.3-2.7,7.9c5.5-3,8.7-11,6.5-16.4c-0.5-1.4-1.5-2.6-2.8-3.3c-3.9-1.5-7.9-2.7-12-3.8
	c-3.6-1-7.2-1.7-11.9-2.7c-2,5.6-4,12.5-7,18.9C374.5,497.8,370.5,503.6,367,509.6L367,509.6z M491.8,233.8c-1.2,0.6-2.5,1-3.8,1.4
	c-7.8,1-15.7,1.9-23.5,2.9c-1.8,0.2-3.8-3.2-5.4,0.1c-0.9,1.9-1.4,3.9-1.6,6c-0.3,6.1,1.9,11.3,5.7,16.1
	c7.4,9.4,18.3,16.1,21.1,29.5c3.8-7.8,1.5-14.4-5.3-19.7c-3.5-2.6-6.5-6-8.7-9.8c-2.6-5,1.5-10.7,7.2-10.3c2.9,0.2,5.8,1.8,8.8,2.8
	C492.4,248.2,495.2,242.1,491.8,233.8z M727.9,234.9l1.1,0.2c0,3-0.1,6,0,9c0.2,1.5,0.5,3,0.9,4.4c1.9,6.8,6,7.8,11,2.7
	c8.1-8.2,8.3-27.6,0.4-36.2c-4.2-4.5-8.2-3.8-9.8,2.1C729.9,222.9,729,228.9,727.9,234.9L727.9,234.9z M453.6,492.7l2,0.6
	c0.6-2,1.3-3.9,1.8-5.9c1.8-7.1,3.7-14.2,5.4-21.3c0.8-3.6,3-4,6-3.6c5.4,0.7,10.7,1.3,16.1,1.7c3.2,0,6.5-0.2,9.7-0.5
	c-1.9-6.1-4.3-10.2-10.9-10.2c-3.3,0-6.7-1.3-10.2-2.1c-2.9,2.6-0.4,8.5-6.3,10.5c0.1-1.7,0.3-3.4,0.6-5c2-6.8,2.1-6.7-6-8.4
	L453.6,492.7z M489.2,295.5l-1,0.4c0.9,2.1,1.3,5,2.9,6.1c4.2,2.5,8.7,4.7,13.3,6.4c1.3,0.4,2.7,0.2,3.8-0.6
	c2.6-3.1,4.8-6.5,6.6-10.1c2-4.3-0.9-7.8-5.5-7.8c-5.2,0.2-10.4-0.1-15.6-0.8c-3.7-0.6-4.7,0.4-4.5,3.7
	C489.3,293.7,489.2,294.6,489.2,295.5L489.2,295.5z M585.2,238.9l-1.4,0.7c-0.4,8.6,8.1,12.5,11.1,20.1c6.6-0.7,13.3-1.3,20-2.3
	c1.3-0.5,2.3-1.6,2.7-3c-0.8-5.6-7.1-9.3-12.7-7.7c-1.9,0.5-3.6,1.4-5.5,2c-6.2,2-9.6,0.3-11.9-5.8
	C586.8,241.5,586.1,240.2,585.2,238.9L585.2,238.9z M739.6,208c1.8,1.9,3.5,3.9,5,6c6.8,10.2,8.3,21.1,3.2,32.4
	c-1.5,3.3-3.7,6.2-6.5,8.4c-2.5,1.9-6.2,2.4-9.4,3.6c1.3,2.5,4.3,3.8,8,3.6c4.8-0.2,9.1-3.2,10.8-7.7c5.2-12.4,5.2-24.9-0.7-37
	C748,213.1,745.1,208.8,739.6,208L739.6,208z M536.3,240.9H559c0.4-4.3,0.7-7.9,1-12c-6,0.7-11.6,1.4-17.2,2
	C534.4,231.8,534.4,231.8,536.3,240.9L536.3,240.9z M505.9,312.8l-16.4-7.6c-0.7,6.4,1.5,11.5,6.8,15.9L505.9,312.8z M507.2,327.1
	c-0.3-1.1-0.6-2.3-0.7-3.4c-0.1-1.6,0.1-3.3,0.2-5c0.9,1.2,1.8,2.4,2.9,3.5c0.7,0.8,1.7,1.3,2.8,1.4c1-0.2,1.7-0.9,2-1.9
	c-0.1-2-0.1-5.1-1.2-5.7c-2.1-0.8-4.5-0.6-6.5,0.4c-2.6,1.7-5,3.7-7.1,6.1c-0.8,0.8-1.6,2.9-1.1,3.5c1,1.1,2.4,1.8,3.8,1.9
	C504,328,505.7,327.7,507.2,327.1L507.2,327.1z M523.8,316.8l1.6-0.9c-0.7-4.2-1.4-8.4-2.2-12.5c-0.3-1-1-1.7-1.9-2.1
	c-1,0.1-1.9,0.6-2.4,1.5c-0.5,3.5-1.3,7.2-0.7,10.5C518.5,314.7,521.9,315.6,523.8,316.8L523.8,316.8z M553.4,458.7v-9.6l-13.4,3.1
	L553.4,458.7z M561.6,465.9c-0.6-6.2-1.2-12.4-1.8-18.5l-1.9,0c-0.2,1.3-0.5,2.7-0.5,4c-0.1,2.1,0.7,4.5-0.1,6.2
	C555.4,462,558.3,463.9,561.6,465.9L561.6,465.9z M499.3,464l8.3-7.9l-13.4-1C496.1,458.3,497.5,460.8,499.3,464L499.3,464z
	 M508.6,461.6l17.6-6c-0.2-0.5-0.3-1-0.5-1.5C520,456.7,512.1,452.5,508.6,461.6L508.6,461.6z M634.1,248.6l-1.6-5.6
	c-2.4,0.3-4.7,0.8-7.1,1.4c-1.1,0.6-1.8,1.6-1.9,2.8c0.5,1,1.5,1.8,2.6,1.9C628.8,249.2,631.4,249,634.1,248.6L634.1,248.6z
	 M635.6,237.8l2.2,0.2v-14.8l-0.8-0.1C636.6,228,636.1,232.9,635.6,237.8L635.6,237.8z M528,240.6l2.2-1.4l-3.4-6.4
	c-0.9,0.6-1.7,1.3-2.3,2.1C525.6,236.8,526.7,238.8,528,240.6z M493.9,720.2l0.9,1.5l11.3-6.8l-0.6-1.1L493.9,720.2z"/>
<path class="st0" d="M2383.3,449.6c10.4,4.5,20.9,9.1,31,13.5c-4.7,7.1-10.7,14.7-15,23.1c-17.5,33.8-35,67.5-51.4,101.8
	c-12.1,25.2-23.2,51-33.5,76.9c-8,20-14.5,40.5-20.8,61.1c-4.5,13.7-6.1,28.2-4.7,42.6c-0.1,1.7-1.1,3.2-2.5,4.1
	c-21.6,11.1-28.3,32.9-16.7,54.4c7.7,14.4,19.6,24.6,33.1,33.1c18.8,11.8,39.3,19.4,60.9,24.3c7.7,1.8,15.8,1.7,23.5-0.3
	c1.6-0.4,3.3-0.1,4.7,0.8c19.7,14.6,42.2,20.8,66.2,23.3c46.8,4.7,93.7,6.6,140.7,7c73.7,0.5,147.4,0.9,221.1,0.5
	c51.6-0.2,103.1-1.7,154.7-2.7c0.6,0.1,1.1,0.1,1.7-0.1c1-0.8,1.9-1.7,2.8-2.6c-0.9-0.7-2-1.2-3.1-1.5c-8.9,0.1-17.8,0.6-26.7,0.7
	c-32.3,0.6-64.6,1.3-96.9,1.6c-57.7,0.5-115.5,1.3-173.2,0.9c-51-0.3-102-1.5-152.9-3.2c-25.7-0.9-51.3-3.4-76.9-5.9
	c-18.7-1.7-36.6-8.3-52-19c-0.8-0.6-1.5-1.2-2.3-1.9c0.1-0.4,0.3-0.8,0.6-1.2c15.8-9.8,21.2-25,21.7-42.5c0.3-8.7-1.6-17.3-5.5-25
	c-10.5-21-29.4-18.7-42.5-4.9c-9.3,9.9-10,22.2-7,34.8c3.3,13.8,11.1,25.1,21.4,34.7c0.7,0.5,1.4,0.9,2.2,1.3l-0.6,1.6
	c-4.5,0.3-9.1,1.4-13.4,0.7c-32.4-5.1-61.9-16.8-86.3-39.6c-8.2-7.7-14.5-16.8-16.7-28.1c-2.5-12.8,0.7-24,10.7-32.7
	c2.6-2.3,6.1-3.6,9.7-5.7c1.2,4.2,2.1,7.7,3.2,11.2c4.5,14.6,11.8,27,25.4,35.1c10.4,6.2,21.5,5.3,28.3-2.6
	c5.7-6.6,6.3-14.4,1.5-22.3c-7-11.5-17.7-18.4-30.1-22.4c-6.7-2.2-14-2.8-21.1-3.5c-2.7-0.3-3.3-1.1-3.5-3.5
	c-0.9-12.5,0.3-25,3.6-37.2c6.8-27.2,16.8-53.3,27.5-79.2c19-45.9,40.5-90.7,63.4-134.8c7.7-14.9,16.6-29.1,25.2-43.6
	c2.1-3.1,4.4-6,6.9-8.8c0.6-0.8,1.4-1.4,2.3-1.8c15.7-3.5,27.3-13.5,39-23.6c1.4-1.2,2.7-2.5,4.9-4.4c4.9,8.1,9.8,15.6,14,23.5
	c10.7,20.1,19.3,41,22.8,63.8c0.5,3,0.6,6,0.9,9c0.8,9.3,6.9,13.1,14.8,8.1c7.1-4.3,13.5-9.7,18.9-16c23.3-28.2,36.5-60.2,33.9-97.5
	c-1.5-21.5-2.5-43-4.7-64.4c-0.5-5.3,1-8.4,3.7-12.1c13.5-18.2,27.1-36.4,37.1-56.9c2.2-4.4,5-8.8,3.7-14.3c0-1,0.4-1.9,1.2-2.6
	c12-10.1,19-23.6,25.4-37.5c15.4-33.5,24.6-68.6,25.8-105.5c0.7-20.4,0.6-40.8-0.3-61.1c-0.5-12-2.5-24-7.9-35.1
	c-3-6.1-7.8-9.2-14.2-8c-9.3,1.5-18.5,3.9-27.4,7c-36.7,13.9-71.6,32.1-104,54.2c-20.8,14.1-36.8,33.4-51.4,53.6
	c-12.6,17.4-24,35.8-35.9,53.6c-1.3,1.7-2.7,3.3-4.3,4.8c-13.1,14-24.1,29.2-28.9,48.2c-2.4,9.4-1.4,18.2,4.9,25.6
	c-8.6-1.1-17-2.7-25.5-3.1c-33.4-1.5-62.2,9.7-85.4,33.7c-14.3,14.8-27.9,30.5-40.9,46.5c-5.8,7.1-10,15.7-13.7,24.2
	c-4,9.2,0.9,15.2,11,13.7c14.3-2.1,28.5-5.5,42.7-7.9c17.7-2.9,35.4-5.8,53.2-8c12-1.5,23.7,1.3,35.3,4.1c3.1,0.8,4,2.3,4.1,5.7
	c0.5,11.8-4.8,21.9-8.6,32.4c-0.3,0.7-0.5,1.4-0.7,2c-0.9,2.9-0.8,5.8,2.4,6.8c3.1,1,5.1-1.3,5.7-3.9c1.6-5.3,2.7-10.8,3.3-16.4
	c0.4-4.3,2.1-8.3,5-11.6c1.5-1.9,2.7-2.1,4.6-0.6c6.6,5.3,13.3,10.5,20,15.6c11.7,8.8,23.8,16.9,38.1,22.1l-16.7,18.4
	c-1,0.9-1.8,1.8-2.6,2.9c-4.4,7.9-11,7.7-18,4.8c-6.2-2.6-12.1-5.8-18.2-8.7c-3.4-1.7-4.5-4-2.8-7.6c1.1-2.4,1.5-5.8-1.4-6.7
	c-2.6-0.5-5.2,0.2-7.1,2c-1.2,2.1-1.2,4.7,0,6.8c2.8,3.2,1.6,5.7,0,8.5c-9.2,16.1-17.9,32.5-27.7,48.1c-25.9,41-52,82-78.8,122.4
	c-19.3,28.9-40.9,56.2-64.6,81.7c-19.9,21.9-41.8,41.9-65.5,59.6c-26.3,19.4-54.9,34.5-86.6,43.1c-13.5,3.7-27,7.6-41.2,11.7
	c0.5-3.8,1-6.9,1.2-9.9c1.8-19-10.1-35.8-28-39.3c-7.8-1.4-15.9-0.4-23.2,2.9c-13.8,5.7-25.4,14-31.8,28.1c-1.4,3-2.3,6.2-2.8,9.4
	c-1.4,12.1,5,20.4,17,22.9c10.4,2.2,20.6,1,30.8-1.2c9.8-2,19.4-4.6,29.3-7c-14.7,42.2-87.8,90-133.5,83.4c3.9-3.2,7.9-6.2,11.5-9.5
	c19.6-18.7,18.4-41.9-3.5-58.1c-13.7-10.1-28.8-15.2-46.1-11.3c-14.4,3.3-26.6,15.2-28.2,28.6c-1.4,12,4.2,21.5,12.3,29.6
	c11.1,10.9,24.4,19.2,39,24.4c-5.9,2.4-11.6,5.1-17.6,7.2c-26.2,9.5-53.5,12.7-81.1,14.8c-55.6,4.4-167.1,3.2-167.1,3.2
	s63.9,2.4,142.2,2.4c55.7,0,61.5-3.5,91.2-11.9c12.9-3.6,25.2-9.5,37.7-14.3c1.4-0.6,2.9-0.9,4.5-0.9c16.5,2.2,32.4-0.7,47.9-6
	c28.1-9.7,53.4-26.2,73.6-48c9-9.3,16.3-20.2,21.4-32.1c0.9-2.3,2.9-3.9,5.2-4.3c30.2-8.1,60.7-15.4,88.6-30.2
	c32.2-17,60.2-39.4,86.1-64.8c27.3-26.4,51.8-55.5,73.2-86.8c28.2-41.6,55.4-83.8,82.6-126.1C2358.9,491.6,2371,470.1,2383.3,449.6z
	 M2562.4,358.5c0.3,2.5,0.6,3.8,0.7,5.2c1.1,15.6,2.6,31.2,3.2,46.9c0.5,13.3,1.7,26.9-0.2,40c-4.1,29.6-18.1,56.9-39.7,77.5
	c-3.2,3.1-6.9,5.6-10.9,7.5c-4.8,2.3-7.3,0.6-8-4.7c-0.4-3-0.4-6-0.9-9c-5.1-30.5-17.6-58.1-34.2-83.9c-3.8-6-8.4-11.5-12.6-17.3
	c21.4-22.7,48-40,63.4-67.8c1.6,0.8,2.3,1.2,3.1,1.5c8.1,3.8,15.7,5.1,23.4-1.8c14-12.3,25.9-26.9,35.1-43.2c2.2-4.3,3.8-9,4.5-13.8
	c0.8-4.5-2.5-7.8-7-7.8c-2.6,0-5.1,0.3-7.6,1.1c-7.4,2.1-13.3,6.5-18.7,11.9c-11,10.9-19,24.1-27.3,37c-7,11-7,11.1-18.6,5.1
	c-37.7-19.4-74.3-40.6-108-66.5c-8-6.2-11.1-13.4-9.9-23.1c1.3-10.9,6.4-20.2,12-29.2c2.2-3.5,4.6-6.9,6.9-10.4
	c0.6,0.5,0.8,1.3,0.6,2.1c-3.8,9.9-8,19.6-11.4,29.7c-1.8,5.6-2.8,11.4-3,17.2c-0.2,5.1,4.1,7,8.3,4.2c2.5-1.7,4.8-3.7,6.7-6
	c12.1-14.5,20.6-31.1,28.2-48.1c2.7-6,4.6-12.3,5.8-18.8c1.3-6.8-3.2-10-9.7-7.8c-2.2,0.9-4.4,2-6.5,3.1c1.7-2.5,2.8-4,3.7-5.5
	c12.9-21.1,27.5-41.1,43.5-59.8c11.4-13.2,23.5-25.6,38.3-35.1c24.1-15.7,49.3-29.4,75.6-41.1c13.9-6.1,28.2-11.2,42.9-15.2
	c13.4-3.6,16.7-0.7,20.5,12.9c4,14.5,5.1,29.4,5.5,44.3c1,36.8-1.4,73.2-12.3,108.7c-6.2,20.2-13.7,39.9-25.1,57.9
	c-3.7,5.9-7.8,11.5-12.9,15c-7.6-7-14.2-14.2-21.9-20.1c-35.3-27-74.3-47.8-115.1-65.1c-5.4-2.2-11-4-16.7-5.4
	c-1.7-0.4-3.8,0.9-5.8,1.5c0.7,1.8,0.9,4.2,2.2,5.4c3.3,3.4,6.9,6.5,10.7,9.2c18.7,12.5,37.3,25.4,56.5,37.1
	c22.1,13.4,44.7,25.9,67.3,38.4c5.9,3.3,11.9,7.8,21.1,5.5c-1.7,4.8-2.7,8.8-4.5,12.3c-10.8,21.4-25.1,40.4-39.5,59.4
	c-0.7,0.7-1.7,1.2-2.7,1.5c-2.7,0.8-6.2,0.7-8.1,2.4c-13,11.9-25.9,24-38.4,36.4c-4.6,4.6-8.2,10.3-11.8,15.8
	c-0.9,1.4-1.1,4.9-0.1,5.7c1.8,1.2,4,1.4,6.1,0.7c3.7-1.5,7.1-3.7,10-6.5c12.2-12.6,24-25.5,35.9-38.3
	C2557.3,364.9,2559.5,362,2562.4,358.5L2562.4,358.5z M2375.4,375.1c-15.5-4.3-30.1-7.3-44.9-5.1c-20.4,3-40.7,6.8-61.1,10.3
	c-9.7,1.7-19.4,3.9-29.2,5.4c-8.4,1.3-11.2-1.7-8-9.6c2.8-7.4,6.7-14.3,11.5-20.5c13-16,26.6-31.6,40.5-46.8
	c8.1-8.8,17.7-16.1,28.3-21.5c23.5-12.2,48.3-14.5,74.1-9.7c1.5,0.4,3,0.9,4.5,1.4C2381.7,310.4,2374.7,341.8,2375.4,375.1
	L2375.4,375.1z M2519.2,351.6c-15.3,27.9-41.5,44.5-61.8,66c-6.1-4.2-11.3-8.2-16.9-11.6c-18.7-11.3-37.9-21.5-58.6-28.9
	c-1.5-0.7-2.5-2.2-2.8-3.8c1.1-24.1,2.7-48.1,9.9-71.4c2.6-8.3,4.4-16.7,6.7-25.8C2434.2,306.5,2475.9,330.1,2519.2,351.6
	L2519.2,351.6z M1844.8,830.2c15,0.2,29.2,6.5,39.5,17.3c10.3,11.2,12,25,4.5,37.2c-5.7,9.2-14,15.4-23.3,20.5
	c-1.3,0.6-2.7,0.8-4.1,0.4c-18.4-4-34.8-14.5-46.1-29.6c-5.6-7.2-7.7-15.7-4.5-24.8C1815.4,838.5,1829,830.2,1844.8,830.2z
	 M1954.4,828c-1.4-0.1-3.6-0.2-5.9-0.5c-13-1.6-19.1-10.9-15-23.3c5.2-16,17.3-24.9,32.3-30.4c11.4-4.1,22.9-4.6,33,3.8
	c11.5,9.6,13.7,23.3,10.1,37.2c-0.4,1.6-2.6,3.2-4.3,3.9c-3.4,1.2-6.8,2.2-10.3,2.9C1981.5,824.8,1968.8,828.3,1954.4,828
	L1954.4,828z M2413.6,835.5c-0.9,6.7-1.1,12.1-2.3,17.2c-2.6,10.5-7.9,19.3-17.7,24.8c-1.8,1.3-4.3,1-5.8-0.6
	c-11.7-10.6-20.4-23-22.7-39c-1.7-11.6,0.4-22.4,10.2-29.9c13.1-10,26-8.2,33.1,8C2411.2,822.5,2412.2,829.7,2413.6,835.5
	L2413.6,835.5z M2605.9,273.3c-11.4,3.7-140.2-73.4-150.8-88.7c0.4-0.2,0.8-0.3,1.2-0.3c6.7,2.4,13.7,4.3,20.1,7.5
	c20.2,9.9,40.4,19.8,60.3,30.4c18.3,9.6,35.6,21.1,51.6,34.2C2594.3,261.4,2599.6,267.2,2605.9,273.3L2605.9,273.3z M2294.3,774.1
	c7.1,1.2,13.9,1.6,20.2,3.4c12.1,3.5,22.7,9.8,29.5,20.9c3.5,5.7,4.1,11.7-0.1,17.3c-4.3,5.7-10.2,7-16.9,5.4
	C2307.9,816.9,2295.4,792,2294.3,774.1L2294.3,774.1z M2525.9,349.2c1.2-2,2.4-4.1,3.7-6.1c8.9-13.9,17.3-28.2,29.1-40
	c5.9-5.9,12.7-10.4,21.2-11.6c4.1-0.6,5.8,1.1,5.2,5.1c-0.4,2.7-1.2,5.3-2.4,7.8c-8.6,16.9-20.5,32-34.9,44.4
	C2540.4,355.4,2534.6,355.4,2525.9,349.2L2525.9,349.2z M2402.9,264.2c-0.5-0.3-1.1-0.6-1.7-0.8c0.2-3.3,0.5-6.7,1.1-10
	c3.6-15.7,10.1-30.4,17.1-44.9c3.3-6.9,7.6-12.5,14.2-16.2c2.3-1.3,5.3-1.6,7.9-2.4c0.1,2.7,1.1,5.7,0.3,8.1
	c-7.1,22-18.2,42.6-32.6,60.6C2407.2,260.6,2405.1,262.5,2402.9,264.2L2402.9,264.2z M2378.9,380.3c27.1,10.1,52.2,22.4,74.8,39.7
	c-5.5,7.5-5.6,7.8-12.7,4.5c-6.3-2.7-12.4-5.9-18.2-9.7c-10.7-7.5-20.8-15.7-31.3-23.5c-2-1.5-4.2-3.5-6.5-3.9
	c-2.1-0.4-4.6,1.1-7,1.8C2378.3,386.8,2378.6,384,2378.9,380.3L2378.9,380.3z M2558.4,354.5l1.2,1.1c-5.3,6.4-10.3,13.2-16.1,19.2
	c-9.8,10.4-20,20.4-30.2,30.4c-1.8,1.7-4.3,2.7-6.4,4l-1.1-1.5C2520.5,387,2538.5,369.7,2558.4,354.5L2558.4,354.5z M2426.3,457
	c-0.1-0.5-0.1-0.9,0-1.4c7-7.5,14-15.1,21.1-22.6c0.6-0.7,1.5-1.2,2.5-1.2c3,0.5,5.9,1.4,9.6,2.3
	C2450.1,443.8,2438.8,451.6,2426.3,457L2426.3,457z M2456.3,423.3c2.1,2.5,3.6,4.2,5.1,6c-0.2,0.2-0.4,0.5-0.5,0.7
	c-2.6-0.6-5.2-1.2-8.1-1.9C2454.1,426.2,2455,424.9,2456.3,423.3L2456.3,423.3z"/>
</svg>
